<mxfile host="app.diagrams.net" agent="Mozilla/5.0 (Macintosh; Intel Mac OS X 10_15_7) AppleWebKit/605.1.15 (KHTML, like Gecko) Version/18.0 Safari/605.1.15" version="24.7.7">
  <diagram name="Page-1" id="6j-Chfkjgz5ES26Hd6RG">
    <mxGraphModel dx="2145" dy="1150" grid="1" gridSize="10" guides="1" tooltips="1" connect="1" arrows="1" fold="1" page="1" pageScale="1" pageWidth="850" pageHeight="1100" math="0" shadow="0">
      <root>
        <mxCell id="0" />
        <mxCell id="1" parent="0" />
        <mxCell id="LZxzUFQRepn7Im_rXGNJ-2" value="subnet router" style="ellipse;whiteSpace=wrap;html=1;aspect=fixed;fillColor=#fad9d5;strokeColor=#ae4132;" vertex="1" parent="1">
          <mxGeometry x="180" y="450" width="80" height="80" as="geometry" />
        </mxCell>
        <mxCell id="LZxzUFQRepn7Im_rXGNJ-7" value="us-south" style="rounded=1;whiteSpace=wrap;html=1;fillColor=#dae8fc;strokeColor=#6c8ebf;labelPosition=center;verticalLabelPosition=top;align=center;verticalAlign=bottom;" vertex="1" parent="1">
          <mxGeometry x="760" y="100" width="420" height="190" as="geometry" />
        </mxCell>
        <mxCell id="LZxzUFQRepn7Im_rXGNJ-3" value="advertise routes&lt;div&gt;10.240.0.0/17&lt;/div&gt;" style="shape=process;whiteSpace=wrap;html=1;backgroundOutline=1;" vertex="1" parent="1">
          <mxGeometry x="320" y="370" width="120" height="60" as="geometry" />
        </mxCell>
        <mxCell id="LZxzUFQRepn7Im_rXGNJ-5" value="advertise routes&lt;div&gt;10.249.0.0/17&lt;/div&gt;" style="shape=process;whiteSpace=wrap;html=1;backgroundOutline=1;" vertex="1" parent="1">
          <mxGeometry x="320" y="460" width="120" height="60" as="geometry" />
        </mxCell>
        <mxCell id="LZxzUFQRepn7Im_rXGNJ-6" value="advertise routes&lt;div&gt;10.251.0.0/17&lt;/div&gt;" style="shape=process;whiteSpace=wrap;html=1;backgroundOutline=1;" vertex="1" parent="1">
          <mxGeometry x="320" y="550" width="120" height="60" as="geometry" />
        </mxCell>
        <mxCell id="LZxzUFQRepn7Im_rXGNJ-8" value="transit&lt;div&gt;gateway&lt;/div&gt;" style="rhombus;whiteSpace=wrap;html=1;fillColor=#d5e8d4;strokeColor=#82b366;" vertex="1" parent="1">
          <mxGeometry x="530" y="440" width="110" height="100" as="geometry" />
        </mxCell>
        <mxCell id="LZxzUFQRepn7Im_rXGNJ-9" value="ca-tor" style="rounded=1;whiteSpace=wrap;html=1;fillColor=#dae8fc;strokeColor=#6c8ebf;labelPosition=center;verticalLabelPosition=top;align=center;verticalAlign=bottom;" vertex="1" parent="1">
          <mxGeometry x="760" y="380" width="420" height="190" as="geometry" />
        </mxCell>
        <mxCell id="LZxzUFQRepn7Im_rXGNJ-10" value="eu-es" style="rounded=1;whiteSpace=wrap;html=1;fillColor=#dae8fc;strokeColor=#6c8ebf;labelPosition=center;verticalLabelPosition=top;align=center;verticalAlign=bottom;" vertex="1" parent="1">
          <mxGeometry x="770" y="660" width="420" height="190" as="geometry" />
        </mxCell>
        <mxCell id="LZxzUFQRepn7Im_rXGNJ-11" value="10.240.0.50" style="shape=hexagon;perimeter=hexagonPerimeter2;whiteSpace=wrap;html=1;fixedSize=1;fillColor=#e1d5e7;strokeColor=#9673a6;" vertex="1" parent="1">
          <mxGeometry x="910" y="150" width="120" height="80" as="geometry" />
        </mxCell>
        <mxCell id="LZxzUFQRepn7Im_rXGNJ-12" value="10.249.0.25" style="shape=hexagon;perimeter=hexagonPerimeter2;whiteSpace=wrap;html=1;fixedSize=1;fillColor=#e1d5e7;strokeColor=#9673a6;" vertex="1" parent="1">
          <mxGeometry x="910" y="430" width="120" height="80" as="geometry" />
        </mxCell>
        <mxCell id="LZxzUFQRepn7Im_rXGNJ-13" value="10.251.0.6" style="shape=hexagon;perimeter=hexagonPerimeter2;whiteSpace=wrap;html=1;fixedSize=1;fillColor=#e1d5e7;strokeColor=#9673a6;" vertex="1" parent="1">
          <mxGeometry x="920" y="715" width="120" height="80" as="geometry" />
        </mxCell>
        <mxCell id="LZxzUFQRepn7Im_rXGNJ-27" value="" style="rounded=0;whiteSpace=wrap;html=1;fontFamily=IBM Plex Sans;fontSource=fonts%2FIBMPlexSans-Regular.woff;fontSize=14;spacingBottom=-28;spacingTop=0;labelPosition=-100;verticalLabelPosition=top;align=center;verticalAlign=bottom;spacingLeft=9;spacing=0;expand=0;recursiveResize=0;spacingRight=0;container=1;collapsible=0;" vertex="1" parent="1">
          <mxGeometry x="620" y="1250" width="1320" height="1400" as="geometry">
            <mxRectangle width="670" as="alternateBounds" />
          </mxGeometry>
        </mxCell>
        <mxCell id="LZxzUFQRepn7Im_rXGNJ-28" value="" style="rounded=0;whiteSpace=wrap;html=1;strokeColor=none;fillColor=#1192E8;" vertex="1" parent="LZxzUFQRepn7Im_rXGNJ-27">
          <mxGeometry width="4" height="48" as="geometry" />
        </mxCell>
        <mxCell id="LZxzUFQRepn7Im_rXGNJ-29" value="IBM Cloud" style="text;html=1;strokeColor=none;fillColor=none;align=left;verticalAlign=middle;whiteSpace=wrap;rounded=0;fontFamily=IBM Plex Sans;fontSource=fonts%2FIBMPlexSans-Regular.woff;fontSize=14;" vertex="1" parent="LZxzUFQRepn7Im_rXGNJ-27">
          <mxGeometry x="51" y="8" width="163" height="20" as="geometry" />
        </mxCell>
        <mxCell id="LZxzUFQRepn7Im_rXGNJ-30" value="" style="shape=image;image=data:image/svg+xml,PD94bWwgdmVyc2lvbj0iMS4wIiBlbmNvZGluZz0iVVRGLTgiPz4KPHN2ZyB3aWR0aD0iMzNweCIgaGVpZ2h0PSIzMXB4IiB2aWV3Qm94PSIwIDAgMzMgMzEiIHZlcnNpb249IjEuMSIgeG1sbnM9Imh0dHA6Ly93d3cudzMub3JnLzIwMDAvc3ZnIiB4bWxuczp4bGluaz0iaHR0cDovL3d3dy53My5vcmcvMTk5OS94bGluayI+CiAgICA8IS0tIEdlbmVyYXRvcjogU2tldGNoIDUzICg3MjUyMCkgLSBodHRwczovL3NrZXRjaGFwcC5jb20gLS0+CiAgICA8dGl0bGU+SUJNIENsb3VkIEJsYWNrPC90aXRsZT4KICAgIDxkZXNjPkNyZWF0ZWQgd2l0aCBTa2V0Y2guPC9kZXNjPgogICAgPGcgaWQ9IlBhZ2UtMSIgc3Ryb2tlPSJub25lIiBzdHJva2Utd2lkdGg9IjEiIGZpbGw9Im5vbmUiIGZpbGwtcnVsZT0iZXZlbm9kZCI+CiAgICAgICAgPGcgaWQ9IklCTS1DbG91ZC1CbGFjayIgdHJhbnNmb3JtPSJ0cmFuc2xhdGUoMC43ODQ3MjIsIDAuNTAwMTI1KSIgZmlsbD0iIzAwMDAwMCI+CiAgICAgICAgICAgIDxwYXRoIGQ9Ik0yNy4xMDIxLDI3LjAxMDYgQzI1Ljg3MDEsMjcuODc5NiAyNC4zNjExLDI4LjI2NzYgMjIuODUzMSwyOC4yNjc2IEw3LjAwNDEsMjguMjY3NiBDNC4xMTIxLDI4LjI3NDYgMS43NjIxLDI1LjkzNDYgMS43NTUxLDIzLjA0MjYgQzEuNzQ5MSwyMC40MTA2IDMuNjk3MSwxOC4xODM2IDYuMzA1MSwxNy44Mzg2IEM2LjQxMTEsMTkuMTYxNiA2Ljc4NzEsMjAuNDQ5NiA3LjQwOTEsMjEuNjIxNiBDNy41OTUxLDIxLjk5MTYgOC4wNDYxLDIyLjE0MDYgOC40MTYxLDIxLjk1NDYgQzguNzg2MSwyMS43Njc2IDguOTM1MSwyMS4zMTc2IDguNzQ4MSwyMC45NDc2IEw4LjczMDEsMjAuOTEyNiBDNy4xMzIxLDE3LjkzNTYgNy40MjkxLDE0LjIxNzYgOS42NzIxLDExLjY4OTYgQzEzLjQ4NjEsNy4zOTI2IDE5Ljc4NzEsOC4wNTI2IDIyLjc1NzEsMTIuMjgxNiBDMjAuMzM0MSwxMi4zNDc2IDE4LjA0NzEsMTMuNDE1NiAxNi40NDExLDE1LjIzMDYgQzE2LjE2MTEsMTUuNTM1NiAxNi4xODExLDE2LjAxMDYgMTYuNDg1MSwxNi4yOTA2IEMxNi43ODkxLDE2LjU3MTYgMTcuMjY0MSwxNi41NTI2IDE3LjU0NTEsMTYuMjQ3NiBMMTcuNTY2MSwxNi4yMjI2IEMxOS41OTUxLDEzLjkyMzYgMjIuODg0MSwxMy4wNTI2IDI1LjcwMzEsMTQuMjYzNiBDMzEuMTY1MSwxNi42MDk2IDMxLjgxMDEsMjMuNjkyNiAyNy4xMDIxLDI3LjAxMDYgTTI0LjU4NTEsMTIuOTE3NiBDMjIuMDU0MSw4LjE3NTYgMTYuMTU5MSw2LjM4MjYgMTEuNDE2MSw4LjkxMzYgQzguNDY1MSwxMC40ODg2IDYuNTI5MSwxMy40Njg2IDYuMjkwMSwxNi44MDY2IEMyLjU4NDEsMTcuMjA0NiAtMC4wOTc5LDIwLjUzMjYgMC4zMDExLDI0LjIzOTYgQzAuNjY5MSwyNy42NjU2IDMuNTU5MSwzMC4yNjM2IDcuMDA0MSwzMC4yNjc2IEwyMy4wMDQxLDMwLjI2NzYgQzI3LjgzNTEsMzAuMjcwNiAzMS43NTMxLDI2LjM1NzYgMzEuNzU2MSwyMS41MjY2IEMzMS43NTkxLDE3LjMwMTYgMjguNzQxMSwxMy42Nzg2IDI0LjU4NTEsMTIuOTE3NiIgaWQ9IkZpbGwtMSI+PC9wYXRoPgogICAgICAgICAgICA8ZyBpZD0iR3JvdXAtNSIgdHJhbnNmb3JtPSJ0cmFuc2xhdGUoMjcuMDAwMDAwLCA4LjI2NzcwMCkiPgogICAgICAgICAgICAgICAgPHBhdGggZD0iTTQuOTAyOCwwLjkxOTcgQzQuNjkzOCwwLjU1NjcgNC4yMjk4LDAuNDMyNyAzLjg2NjgsMC42NDE3IEMzLjg2NjgsMC42NDE3IDMuODY2OCwwLjY0MTcgMy44NjY4LDAuNjQyNyBMMC44NDY4LDIuMzg1NyBDMC40Nzg4LDIuNTg2NyAwLjM0MzgsMy4wNDc3IDAuNTQ0OCwzLjQxNTcgQzAuNzQ1OCwzLjc4MzcgMS4yMDY4LDMuOTE4NyAxLjU3NDgsMy43MTc3IEMxLjU4NDgsMy43MTE3IDEuNTk0OCwzLjcwNTcgMS42MDQ4LDMuNjk5NyBMNC42MjQ4LDEuOTU2NyBDNC45ODc4LDEuNzQ2NyA1LjExMTgsMS4yODI3IDQuOTAyOCwwLjkxOTciIGlkPSJGaWxsLTMiPjwvcGF0aD4KICAgICAgICAgICAgPC9nPgogICAgICAgICAgICA8cGF0aCBkPSJNMjIuNjgxMiw2LjgwMjYgQzIzLjA0MzIsNy4wMTI2IDIzLjUwNzIsNi44ODg2IDIzLjcxNzIsNi41MjU2IEwyMy43MTcyLDYuNTI1NiBMMjUuNDYxMiwzLjUwNTYgQzI1LjY2ODIsMy4xNDA2IDI1LjU0MDIsMi42Nzc2IDI1LjE3NjIsMi40NzA2IEMyNC44MTUyLDIuMjY2NiAyNC4zNTcyLDIuMzg4NiAyNC4xNDcyLDIuNzQ2NiBMMjIuNDAzMiw1Ljc2NjYgQzIyLjE5NDIsNi4xMjk2IDIyLjMxODIsNi41OTM2IDIyLjY4MTIsNi44MDI2IiBpZD0iRmlsbC02Ij48L3BhdGg+CiAgICAgICAgICAgIDxwYXRoIGQ9Ik0xNi4wMDQ0LDUuMDE0MSBDMTYuNDIzNCw1LjAxNDEgMTYuNzYzNCw0LjY3NDEgMTcuMzM1NCw0LjI1NTEgTDE3LjMzNTQsMC43NjcxIEMxNi43Njg0LDAuMzQ4MSAxNi40MzI0LDAuMDA1MSAxNi4wMTM0LDAuMDAwMSBDMTUuNTk0NCwtMC4wMDQ5IDE1LjI1MTQsMC4zMzExIDE1LjMzNTQsMC43NTAxIEwxNS4zMzU0LDAuNzY3MSBMMTUuMzM1NCw0LjI1NTEgQzE1LjI0NjQsNC42NzQxIDE1LjU4NTQsNS4wMTQxIDE2LjAwNDQsNS4wMTQxIiBpZD0iRmlsbC04Ij48L3BhdGg+CiAgICAgICAgICAgIDxwYXRoIGQ9Ik04LjI5Miw2LjUyNDggQzguNTA0LDYuODg1OCA4Ljk2OSw3LjAwNjggOS4zMzEsNi43OTQ4IEM5LjY4OCw2LjU4NDggOS44MTEsNi4xMjY4IDkuNjA2LDUuNzY1OCBMNy44NjIsMi43NDU4IEM3LjY1NSwyLjM4MTggNy4xOTIsMi4yNTM4IDYuODI4LDIuNDYwOCBDNi40NjMsMi42Njc4IDYuMzM1LDMuMTMwOCA2LjU0MiwzLjQ5NDggQzYuNTQ0LDMuNDk4OCA2LjU0NiwzLjUwMTggNi41NDgsMy41MDQ4IEw4LjI5Miw2LjUyNDggWiIgaWQ9IkZpbGwtMTAiPjwvcGF0aD4KICAgICAgICAgICAgPGcgaWQ9Ikdyb3VwLTE0IiB0cmFuc2Zvcm09InRyYW5zbGF0ZSgwLjAwMDAwMCwgOC4yNjc3MDApIj4KICAgICAgICAgICAgICAgIDxwYXRoIGQ9Ik00LjE2MzEsMi4zODYgTDEuMTQzMSwwLjY0MiBDMC43ODIxLDAuNDMgMC4zMTcxLDAuNTUxIDAuMTA0MSwwLjkxMiBDLTAuMTA3OSwxLjI3MyAwLjAxMzEsMS43MzkgMC4zNzQxLDEuOTUgQzAuMzc4MSwxLjk1MiAwLjM4MTEsMS45NTQgMC4zODQxLDEuOTU2IEwzLjQwNTEsMy43IEMzLjc2NjEsMy45MTIgNC4yMzExLDMuNzkxIDQuNDQzMSwzLjQzIEM0LjY1NTEsMy4wNjkgNC41MzUxLDIuNjA0IDQuMTczMSwyLjM5MiBDNC4xNzAxLDIuMzkgNC4xNjYxLDIuMzg4IDQuMTYzMSwyLjM4NiBaIiBpZD0iRmlsbC0xMiI+PC9wYXRoPgogICAgICAgICAgICA8L2c+CiAgICAgICAgPC9nPgogICAgPC9nPgo8L3N2Zz4=;" vertex="1" parent="LZxzUFQRepn7Im_rXGNJ-27">
          <mxGeometry x="15" y="7" width="24" height="24" as="geometry" />
        </mxCell>
        <mxCell id="LZxzUFQRepn7Im_rXGNJ-22" value="" style="rounded=0;whiteSpace=wrap;html=1;fontFamily=IBM Plex Sans;fontSource=fonts%2FIBMPlexSans-Regular.woff;fontSize=14;spacingBottom=-28;spacingTop=0;labelPosition=-100;verticalLabelPosition=top;align=center;verticalAlign=bottom;spacingLeft=9;spacing=0;expand=0;recursiveResize=0;spacingRight=0;container=1;collapsible=0;strokeColor=#6c8ebf;fillColor=#dae8fc;" vertex="1" parent="LZxzUFQRepn7Im_rXGNJ-27">
          <mxGeometry x="60" y="420" width="470" height="580" as="geometry">
            <mxRectangle width="670" as="alternateBounds" />
          </mxGeometry>
        </mxCell>
        <mxCell id="LZxzUFQRepn7Im_rXGNJ-23" value="" style="rounded=0;whiteSpace=wrap;html=1;strokeColor=none;fillColor=#878d96;" vertex="1" parent="LZxzUFQRepn7Im_rXGNJ-22">
          <mxGeometry width="4" height="48" as="geometry" />
        </mxCell>
        <mxCell id="LZxzUFQRepn7Im_rXGNJ-24" value="us-south region" style="text;html=1;strokeColor=none;fillColor=none;align=left;verticalAlign=middle;whiteSpace=wrap;rounded=0;fontFamily=IBM Plex Sans;fontSource=fonts%2FIBMPlexSans-Regular.woff;fontSize=14;" vertex="1" parent="LZxzUFQRepn7Im_rXGNJ-22">
          <mxGeometry x="51" y="8" width="168" height="20" as="geometry" />
        </mxCell>
        <mxCell id="LZxzUFQRepn7Im_rXGNJ-25" style="edgeStyle=orthogonalEdgeStyle;rounded=0;orthogonalLoop=1;jettySize=auto;html=1;exitX=0;exitY=0.5;exitDx=0;exitDy=0;entryX=1.009;entryY=0.22;entryDx=0;entryDy=0;entryPerimeter=0;fontFamily=IBM Plex Sans;fontSource=fonts%2FIBMPlexSans-Regular.woff;fontSize=14;startArrow=oval;startFill=1;strokeColor=#198038;" edge="1" parent="LZxzUFQRepn7Im_rXGNJ-22">
          <mxGeometry relative="1" as="geometry" />
        </mxCell>
        <mxCell id="LZxzUFQRepn7Im_rXGNJ-26" value="" style="shape=image;image=data:image/svg+xml,PD94bWwgdmVyc2lvbj0iMS4wIiBlbmNvZGluZz0iVVRGLTgiPz4KPHN2ZyB3aWR0aD0iMjNweCIgaGVpZ2h0PSIyOHB4IiB2aWV3Qm94PSIwIDAgMjMgMjgiIHZlcnNpb249IjEuMSIgeG1sbnM9Imh0dHA6Ly93d3cudzMub3JnLzIwMDAvc3ZnIiB4bWxuczp4bGluaz0iaHR0cDovL3d3dy53My5vcmcvMTk5OS94bGluayI+CiAgICA8IS0tIEdlbmVyYXRvcjogU2tldGNoIDUzICg3MjUyMCkgLSBodHRwczovL3NrZXRjaGFwcC5jb20gLS0+CiAgICA8dGl0bGU+UmVnaW9uIEJsYWNrPC90aXRsZT4KICAgIDxkZXNjPkNyZWF0ZWQgd2l0aCBTa2V0Y2guPC9kZXNjPgogICAgPGcgaWQ9IlBhZ2UtMSIgc3Ryb2tlPSJub25lIiBzdHJva2Utd2lkdGg9IjEiIGZpbGw9Im5vbmUiIGZpbGwtcnVsZT0iZXZlbm9kZCI+CiAgICAgICAgPGcgaWQ9IlJlZ2lvbi1CbGFjayIgdHJhbnNmb3JtPSJ0cmFuc2xhdGUoMC4xMjUwMDAsIDAuMDAwMDAwKSIgZmlsbD0iIzAwMDAwMCI+CiAgICAgICAgICAgIDxwYXRoIGQ9Ik0xMS4wMDAyLDggQzkuMzQzMiw4IDguMDAwMiw5LjM0MyA4LjAwMDIsMTEgQzguMDAwMiwxMi42NTcgOS4zNDMyLDE0IDExLjAwMDIsMTQgQzEyLjY1NzIsMTQgMTQuMDAwMiwxMi42NTcgMTQuMDAwMiwxMSBDMTMuOTk4Miw5LjM0NCAxMi42NTYyLDguMDAyIDExLjAwMDIsOCBNMTEuMDAwMiwxNiBDOC4yMzgyLDE2IDYuMDAwMiwxMy43NjEgNi4wMDAyLDExIEM2LjAwMDIsOC4yMzkgOC4yMzgyLDYgMTEuMDAwMiw2IEMxMy43NjEyLDYgMTYuMDAwMiw4LjIzOSAxNi4wMDAyLDExIEMxNS45OTcyLDEzLjc2IDEzLjc2MDIsMTUuOTk3IDExLjAwMDIsMTYiIGlkPSJGaWxsLTEiPjwvcGF0aD4KICAgICAgICAgICAgPGcgaWQ9Ikdyb3VwLTUiPgogICAgICAgICAgICAgICAgPHBhdGggZD0iTTMuODEyNywxNi4zOTUgQzMuODEzNywxNi4zOTUgNC4wNDU3LDE2LjcwMyA0LjA5ODcsMTYuNzcgTDEwLjk5OTcsMjQuOTA4IEwxNy45MTA3LDE2Ljc1OCBDMTcuOTU0NywxNi43MDMgMTguMTg4NywxNi4zOTMgMTguMTg4NywxNi4zOTIgQzE5LjM2NjcsMTQuODQxIDIwLjAwMTcsMTIuOTQ3IDE5Ljk5OTcsMTEgQzE5Ljk5OTcsNi4wMjkgMTUuOTcwNywyIDEwLjk5OTcsMiBDNi4wMjk3LDIgMi4wMDA3LDYuMDI5IDIuMDAwNywxMSBDMS45OTc3LDEyLjk0OCAyLjYzNDcsMTQuODQzIDMuODEyNywxNi4zOTUgTDMuODEyNywxNi4zOTUgWiBNMTAuOTk5NywyOCBMMi41NjQ3LDE4LjA1MSBDMi41MTY3LDE3Ljk5NCAyLjIxNjcsMTcuNiAyLjIxNjcsMTcuNiBDMC43NzQ3LDE1LjcwMiAtMC4wMDMzLDEzLjM4MyAtMC4wMDAzLDExIEMtMC4wMDAzLDQuOTI1IDQuOTI0NywwIDEwLjk5OTcsMCBDMTcuMDc1NywwIDIxLjk5OTcsNC45MjUgMjEuOTk5NywxMSBDMjIuMDAyNywxMy4zODIgMjEuMjI1NywxNS43IDE5Ljc4NTcsMTcuNTk3IEwxOS43ODM3LDE3LjYgQzE5Ljc4MzcsMTcuNiAxOS40ODM3LDE3Ljk5NCAxOS40Mzg3LDE4LjA0NyBMMTAuOTk5NywyOCBaIiBpZD0iRmlsbC0zIj48L3BhdGg+CiAgICAgICAgICAgIDwvZz4KICAgICAgICA8L2c+CiAgICA8L2c+Cjwvc3ZnPg==;" vertex="1" parent="LZxzUFQRepn7Im_rXGNJ-22">
          <mxGeometry x="19.66" y="8" width="24" height="24" as="geometry" />
        </mxCell>
        <mxCell id="LZxzUFQRepn7Im_rXGNJ-14" value="" style="rounded=0;whiteSpace=wrap;html=1;fontFamily=IBM Plex Sans;fontSource=fonts%2FIBMPlexSans-Regular.woff;fontSize=14;spacingBottom=-28;spacingTop=0;labelPosition=-100;verticalLabelPosition=top;align=center;verticalAlign=bottom;spacingLeft=9;spacing=0;expand=0;recursiveResize=0;spacingRight=0;container=1;collapsible=0;strokeColor=#82b366;fillColor=#d5e8d4;" vertex="1" parent="LZxzUFQRepn7Im_rXGNJ-22">
          <mxGeometry x="43.66" y="48" width="369" height="412" as="geometry">
            <mxRectangle width="670" as="alternateBounds" />
          </mxGeometry>
        </mxCell>
        <mxCell id="LZxzUFQRepn7Im_rXGNJ-15" value="" style="rounded=0;whiteSpace=wrap;html=1;strokeColor=none;fillColor=#1192E8;" vertex="1" parent="LZxzUFQRepn7Im_rXGNJ-14">
          <mxGeometry width="4" height="48" as="geometry" />
        </mxCell>
        <mxCell id="LZxzUFQRepn7Im_rXGNJ-16" value="dallas demo vpc" style="text;html=1;strokeColor=none;fillColor=none;align=left;verticalAlign=middle;whiteSpace=wrap;rounded=0;fontFamily=IBM Plex Sans;fontSource=fonts%2FIBMPlexSans-Regular.woff;fontSize=14;" vertex="1" parent="LZxzUFQRepn7Im_rXGNJ-14">
          <mxGeometry x="51" y="8" width="163" height="20" as="geometry" />
        </mxCell>
        <mxCell id="LZxzUFQRepn7Im_rXGNJ-17" value="" style="shape=image;image=data:image/svg+xml,PD94bWwgdmVyc2lvbj0iMS4wIiBlbmNvZGluZz0iVVRGLTgiPz4KPHN2ZyB3aWR0aD0iMjlweCIgaGVpZ2h0PSIyOHB4IiB2aWV3Qm94PSIwIDAgMjkgMjgiIHZlcnNpb249IjEuMSIgeG1sbnM9Imh0dHA6Ly93d3cudzMub3JnLzIwMDAvc3ZnIiB4bWxuczp4bGluaz0iaHR0cDovL3d3dy53My5vcmcvMTk5OS94bGluayI+CiAgICA8IS0tIEdlbmVyYXRvcjogU2tldGNoIDUzICg3MjUyMCkgLSBodHRwczovL3NrZXRjaGFwcC5jb20gLS0+CiAgICA8dGl0bGU+SUJNIFZQQyBCbGFjazwvdGl0bGU+CiAgICA8ZGVzYz5DcmVhdGVkIHdpdGggU2tldGNoLjwvZGVzYz4KICAgIDxnIGlkPSJQYWdlLTEiIHN0cm9rZT0ibm9uZSIgc3Ryb2tlLXdpZHRoPSIxIiBmaWxsPSJub25lIiBmaWxsLXJ1bGU9ImV2ZW5vZGQiPgogICAgICAgIDxnIGlkPSJJQk0tVlBDLUJsYWNrIiB0cmFuc2Zvcm09InRyYW5zbGF0ZSgwLjc1MDAwMCwgLTEuMDAwMDAwKSIgZmlsbD0iIzAwMDAwMCI+CiAgICAgICAgICAgIDxwYXRoIGQ9Ik0wLjAwMDksMS4wMDAyIEwwLjAwMDksOS4wMDAyIEw2LjU4NjksOS4wMDAyIEwyMC4wMDA5LDIyLjQxNDIgTDIwLjAwMDksMjkuMDAwMiBMMjguMDAwOSwyOS4wMDAyIEwyOC4wMDA5LDIxLjAwMDIgTDIxLjQxNTksMjEuMDAwMiBMOC4wMDA5LDcuNTg1MiBMOC4wMDA5LDEuMDAwMiBMMC4wMDA5LDEuMDAwMiBaIE0yLjAwMDksNy4wMDAyIEw2LjAwMDksNy4wMDAyIEw2LjAwMDksMy4wMDAyIEwyLjAwMDksMy4wMDAyIEwyLjAwMDksNy4wMDAyIFogTTIyLjAwMDksMjcuMDAxMiBMMjYuMDAxOSwyNy4wMDEyIEwyNi4wMDE5LDIzLjAwMDIgTDIyLjAwMDksMjMuMDAwMiBMMjIuMDAwOSwyNy4wMDEyIFoiIGlkPSJGaWxsLTEiPjwvcGF0aD4KICAgICAgICAgICAgPGcgaWQ9Ikdyb3VwLTgiIHRyYW5zZm9ybT0idHJhbnNsYXRlKDAuMDAwMDAwLCAwLjAwMTkwMCkiPgogICAgICAgICAgICAgICAgPGcgaWQ9Ikdyb3VwLTQiIHRyYW5zZm9ybT0idHJhbnNsYXRlKDExLjAwMDAwMCwgMC4wMDAwMDApIj4KICAgICAgICAgICAgICAgICAgICA8cGF0aCBkPSJNMTIuNjQ2Nyw2LjgxNzkgQzExLjU0MjcsNi44MTc5IDEwLjY0NjcsNS45MjI5IDEwLjY0NjcsNC44MTc5IEMxMC42NDY3LDMuNzEzOSAxMS41NDI3LDIuODE3OSAxMi42NDY3LDIuODE3OSBDMTMuNzUwNywyLjgxNzkgMTQuNjQ2NywzLjcxMzkgMTQuNjQ2Nyw0LjgxNzkgQzE0LjY0NTcsNS45MjE5IDEzLjc1MDcsNi44MTY5IDEyLjY0NjcsNi44MTc5IE0xNi43MzM3LDMuNTE4OSBDMTYuMzU2NywyLjQ5ODkgMTUuNTMxNywxLjY2NzkgMTQuNTE1NywxLjI4MDkgQzEyLjEyNzcsMC4zNzA5IDkuNzE3NywxLjc1NTkgOS4xNDI3LDMuOTk3OSBMMC4wMDA3LDMuOTk3OSBMMC4wMDA3LDUuOTk3OSBMOS4xNDI3LDUuOTk3OSBDOS41MDc3LDcuMzk3OSAxMC42MDE3LDguNDkwOSAxMi4wMDA3LDguODU1OSBMMTIuMDAwNywxNy45OTc5IEwxNC4wMDA3LDE3Ljk5NzkgTDE0LjAwMDcsOC44NTU5IEMxNi4yMjk3LDguMjgxOSAxNy42MTE3LDUuODk2OSAxNi43MzM3LDMuNTE4OSIgaWQ9IkZpbGwtMiI+PC9wYXRoPgogICAgICAgICAgICAgICAgPC9nPgogICAgICAgICAgICAgICAgPGcgaWQ9Ikdyb3VwLTciIHRyYW5zZm9ybT0idHJhbnNsYXRlKDAuMDAwMDAwLCAxMS4wMDAwMDApIj4KICAgICAgICAgICAgICAgICAgICA8cGF0aCBkPSJNMy42NDY3LDE1LjgxNzkgQzIuNTQyNywxNS44MTc5IDEuNjQ2NywxNC45MjI5IDEuNjQ2NywxMy44MTc5IEMxLjY0NjcsMTIuNzEzOSAyLjU0MjcsMTEuODE3OSAzLjY0NjcsMTEuODE3OSBDNC43NTA3LDExLjgxNzkgNS42NDY3LDEyLjcxMzkgNS42NDY3LDEzLjgxNzkgQzUuNjQ1NywxNC45MjE5IDQuNzUwNywxNS44MTY5IDMuNjQ2NywxNS44MTc5IEwzLjY0NjcsMTUuODE3OSBaIE0xNy4wMDA3LDEyLjk5NzkgTDcuODU4NywxMi45OTc5IEM3LjQ5MzcsMTEuNTk3OSA2LjQwMDcsMTAuNTA0OSA1LjAwMDcsMTAuMTM5OSBMNS4wMDA3LDAuOTk3OSBMMy4wMDA3LDAuOTk3OSBMMy4wMDA3LDEwLjEzOTkgQzAuNDg3NywxMC43ODQ5IC0wLjg1MTMsMTMuNjgzOSAwLjU5NDcsMTYuMTE5OSBDMS4xNTA3LDE3LjA1NTkgMi4xMTE3LDE3LjcyODkgMy4xODI3LDE3LjkyNjkgQzUuNDAyNywxOC4zMzc5IDcuMzUzNywxNi45Njk5IDcuODU4NywxNC45OTc5IEwxNy4wMDA3LDE0Ljk5NzkgTDE3LjAwMDcsMTIuOTk3OSBaIiBpZD0iRmlsbC01Ij48L3BhdGg+CiAgICAgICAgICAgICAgICA8L2c+CiAgICAgICAgICAgIDwvZz4KICAgICAgICA8L2c+CiAgICA8L2c+Cjwvc3ZnPg==;" vertex="1" parent="LZxzUFQRepn7Im_rXGNJ-14">
          <mxGeometry x="17" y="9.849999999999909" width="24" height="24" as="geometry" />
        </mxCell>
        <mxCell id="LZxzUFQRepn7Im_rXGNJ-18" value="" style="rounded=0;whiteSpace=wrap;html=1;fontFamily=IBM Plex Sans;fontSource=fonts%2FIBMPlexSans-Regular.woff;fontSize=14;fillColor=#f5f5f5;spacingBottom=-28;spacingTop=0;labelPosition=-100;verticalLabelPosition=top;align=center;verticalAlign=bottom;spacingLeft=9;spacing=0;expand=0;recursiveResize=0;spacingRight=0;container=0;collapsible=0;strokeColor=#666666;strokeWidth=2;dashed=1;dashPattern=1 2;fontColor=#333333;" vertex="1" parent="LZxzUFQRepn7Im_rXGNJ-14">
          <mxGeometry x="51" y="48" width="217" height="152" as="geometry">
            <mxRectangle width="670" as="alternateBounds" />
          </mxGeometry>
        </mxCell>
        <mxCell id="LZxzUFQRepn7Im_rXGNJ-19" value="Zone 1" style="text;html=1;strokeColor=none;fillColor=none;align=left;verticalAlign=middle;whiteSpace=wrap;rounded=0;fontFamily=IBM Plex Sans;fontSource=fonts%2FIBMPlexSans-Regular.woff;fontSize=14;" vertex="1" parent="LZxzUFQRepn7Im_rXGNJ-18">
          <mxGeometry x="51" y="8" width="168" height="20" as="geometry" />
        </mxCell>
        <mxCell id="LZxzUFQRepn7Im_rXGNJ-20" value="" style="shape=image;image=data:image/svg+xml,PD94bWwgdmVyc2lvbj0iMS4wIiBlbmNvZGluZz0iVVRGLTgiPz4KPHN2ZyB3aWR0aD0iMjlweCIgaGVpZ2h0PSIyNnB4IiB2aWV3Qm94PSIwIDAgMjkgMjYiIHZlcnNpb249IjEuMSIgeG1sbnM9Imh0dHA6Ly93d3cudzMub3JnLzIwMDAvc3ZnIiB4bWxuczp4bGluaz0iaHR0cDovL3d3dy53My5vcmcvMTk5OS94bGluayI+CiAgICA8IS0tIEdlbmVyYXRvcjogU2tldGNoIDUzICg3MjUyMCkgLSBodHRwczovL3NrZXRjaGFwcC5jb20gLS0+CiAgICA8dGl0bGU+Wm9uZSBCbGFjazwvdGl0bGU+CiAgICA8ZGVzYz5DcmVhdGVkIHdpdGggU2tldGNoLjwvZGVzYz4KICAgIDxnIGlkPSJQYWdlLTEiIHN0cm9rZT0ibm9uZSIgc3Ryb2tlLXdpZHRoPSIxIiBmaWxsPSJub25lIiBmaWxsLXJ1bGU9ImV2ZW5vZGQiPgogICAgICAgIDxnIGlkPSJab25lLUJsYWNrIiB0cmFuc2Zvcm09InRyYW5zbGF0ZSgwLjEyNTAwMCwgMC4wMDAwMDApIiBmaWxsPSIjMDAwMDAwIj4KICAgICAgICAgICAgPGcgaWQ9Ikdyb3VwLTMiPgogICAgICAgICAgICAgICAgPHBhdGggZD0iTTI2LjAwMDEsMjQuMDAwMSBMMjEuMDAwMSwyNC4wMDAxIEwyMS4wMDAxLDIwLjAwMDEgTDIzLjAwMDEsMjAuMDAwMSBMMjMuMDAwMSwxOC4wMDAxIEwyMS4wMDAxLDE4LjAwMDEgTDIxLjAwMDEsMTYuMDAwMSBMMjMuMDAwMSwxNi4wMDAxIEwyMy4wMDAxLDE0LjAwMDEgTDIxLjAwMDEsMTQuMDAwMSBMMjEuMDAwMSwxMi4wMDAxIEwyMy4wMDAxLDEyLjAwMDEgTDIzLjAwMDEsMTAuMDAwMSBMMjEuMDAwMSwxMC4wMDAxIEwyMS4wMDAxLDguMDAwMSBMMjYuMDAwMSw4LjAwMDEgTDI2LjAwMDEsMjQuMDAwMSBaIE05LjAwMDEsMjQuMDAwMSBMMTkuMDAwMSwyNC4wMDAxIEwxOS4wMDAxLDIuMDAwMSBMOS4wMDAxLDIuMDAwMSBMOS4wMDAxLDI0LjAwMDEgWiBNMi4wMDAxLDI0LjAwMDEgTDIuMDAwMSw4LjAwMDEgTDcuMDAwMSw4LjAwMDEgTDcuMDAwMSwxMC4wMDAxIEw1LjAwMDEsMTAuMDAwMSBMNS4wMDAxLDEyLjAwMDEgTDcuMDAwMSwxMi4wMDAxIEw3LjAwMDEsMTQuMDAwMSBMNS4wMDAxLDE0LjAwMDEgTDUuMDAwMSwxNi4wMDAxIEw3LjAwMDEsMTYuMDAwMSBMNy4wMDAxLDE4LjAwMDEgTDUuMDAwMSwxOC4wMDAxIEw1LjAwMDEsMjAuMDAwMSBMNy4wMDAxLDIwLjAwMDEgTDcuMDAwMSwyNC4wMDAxIEwyLjAwMDEsMjQuMDAwMSBaIE0yNi4wMDAxLDYuMDAwMSBMMjEuMDAwMSw2LjAwMDEgTDIxLjAwMDEsMi4wMDAxIEMyMC45OTkxLDAuODk2MSAyMC4xMDQxLDAuMDAxMSAxOS4wMDAxLDAuMDAwMSBMOS4wMDAxLDAuMDAwMSBDNy44OTYxLDAuMDAxMSA3LjAwMTEsMC44OTYxIDcuMDAwMSwyLjAwMDEgTDcuMDAwMSw2LjAwMDEgTDIuMDAwMSw2LjAwMDEgQzAuODk2MSw2LjAwMTEgMC4wMDExLDYuODk2MSAwLjAwMDEsOC4wMDAxIEwwLjAwMDEsMjQuMDAwMSBDMC4wMDExLDI1LjEwNDEgMC44OTYxLDI1Ljk5OTEgMi4wMDAxLDI2LjAwMDEgTDI2LjAwMDEsMjYuMDAwMSBDMjcuMTA0MSwyNS45OTkxIDI3Ljk5OTEsMjUuMTA0MSAyOC4wMDAxLDI0LjAwMDEgTDI4LjAwMDEsOC4wMDAxIEMyNy45OTkxLDYuODk2MSAyNy4xMDQxLDYuMDAxMSAyNi4wMDAxLDYuMDAwMSBMMjYuMDAwMSw2LjAwMDEgWiIgaWQ9IkZpbGwtMSI+PC9wYXRoPgogICAgICAgICAgICA8L2c+CiAgICAgICAgICAgIDxwb2x5Z29uIGlkPSJGaWxsLTQiIHBvaW50cz0iMTIgNiAxNiA2IDE2IDQgMTIgNCI+PC9wb2x5Z29uPgogICAgICAgICAgICA8cG9seWdvbiBpZD0iRmlsbC02IiBwb2ludHM9IjEyIDEwIDE2IDEwIDE2IDggMTIgOCI+PC9wb2x5Z29uPgogICAgICAgICAgICA8cG9seWdvbiBpZD0iRmlsbC03IiBwb2ludHM9IjEyIDE0IDE2IDE0IDE2IDEyIDEyIDEyIj48L3BvbHlnb24+CiAgICAgICAgPC9nPgogICAgPC9nPgo8L3N2Zz4=;" vertex="1" parent="LZxzUFQRepn7Im_rXGNJ-18">
          <mxGeometry x="18" y="12.07" width="24" height="24" as="geometry" />
        </mxCell>
        <mxCell id="LZxzUFQRepn7Im_rXGNJ-21" style="edgeStyle=orthogonalEdgeStyle;rounded=0;orthogonalLoop=1;jettySize=auto;html=1;exitX=0;exitY=0.5;exitDx=0;exitDy=0;entryX=1.009;entryY=0.22;entryDx=0;entryDy=0;entryPerimeter=0;fontFamily=IBM Plex Sans;fontSource=fonts%2FIBMPlexSans-Regular.woff;fontSize=14;startArrow=oval;startFill=1;strokeColor=#198038;" edge="1" parent="LZxzUFQRepn7Im_rXGNJ-18">
          <mxGeometry relative="1" as="geometry" />
        </mxCell>
        <mxCell id="LZxzUFQRepn7Im_rXGNJ-47" value="tailscale&#xa;subnet router" style="shape=image;aspect=fixed;image=data:image/svg+xml,PD94bWwgdmVyc2lvbj0iMS4wIiBlbmNvZGluZz0iVVRGLTgiPz4KPHN2ZyB3aWR0aD0iNDhweCIgaGVpZ2h0PSI0OXB4IiB2aWV3Qm94PSIwIDAgNDggNDkiIHZlcnNpb249IjEuMSIgeG1sbnM9Imh0dHA6Ly93d3cudzMub3JnLzIwMDAvc3ZnIiB4bWxuczp4bGluaz0iaHR0cDovL3d3dy53My5vcmcvMTk5OS94bGluayI+CiAgICA8dGl0bGU+VmlydHVhbCBTZXJ2ZXIgQ2xhc3NpYzwvdGl0bGU+CiAgICA8ZyBpZD0iVjItSWNvbnMiIHN0cm9rZT0ibm9uZSIgc3Ryb2tlLXdpZHRoPSIxIiBmaWxsPSJub25lIiBmaWxsLXJ1bGU9ImV2ZW5vZGQiPgogICAgICAgIDxnIGlkPSJJQk0tLy1DbG91ZC0vLUNvbXB1dGUiIHRyYW5zZm9ybT0idHJhbnNsYXRlKC0xMjUzLCAtNDgpIj4KICAgICAgICAgICAgPGcgaWQ9IlZpcnR1YWwtU2VydmVyLUNsYXNzaWMiIHRyYW5zZm9ybT0idHJhbnNsYXRlKDEyNTMsIDQ4LjM0MjEpIj4KICAgICAgICAgICAgICAgIDxwb2x5Z29uIGlkPSJSZWN0YW5nbGUiIGZpbGw9IiMxOTgwMzgiIHBvaW50cz0iMCA0OCA0OCA0OCA0OCAwIDAgMCI+PC9wb2x5Z29uPgogICAgICAgICAgICAgICAgPGcgaWQ9ImlibS1jbG91ZC0tdmlydHVhbC1zZXJ2ZXItdnBjIiB0cmFuc2Zvcm09InRyYW5zbGF0ZSgxMS45OTU4LCAxMS42NTc5KSI+CiAgICAgICAgICAgICAgICAgICAgPGNpcmNsZSBpZD0iT3ZhbCIgZmlsbD0iI0ZGRkZGRiIgZmlsbC1ydWxlPSJub256ZXJvIiBjeD0iNiIgY3k9IjE5LjUiIHI9IjEiPjwvY2lyY2xlPgogICAgICAgICAgICAgICAgICAgIDxwYXRoIGQ9Ik0zLjc1LDIyLjUgTDIwLjI1LDIyLjUgQzIxLjA3NSwyMi41IDIxLjc1LDIxLjgyNSAyMS43NSwyMSBMMjEuNzUsMTggQzIxLjc1LDE3LjE3NSAyMS4wNzUsMTYuNSAyMC4yNSwxNi41IEwzLjc1LDE2LjUgQzIuOTI1LDE2LjUgMi4yNSwxNy4xNzUgMi4yNSwxOCBMMi4yNSwyMSBDMi4yNSwyMS44MjUgMi45MjUsMjIuNSAzLjc1LDIyLjUgWiBNMy43NSwxOCBMMjAuMjUsMTggTDIwLjI1LDIxIEwzLjc1LDIxIEwzLjc1LDE4IFoiIGlkPSJTaGFwZSIgZmlsbD0iI0ZGRkZGRiIgZmlsbC1ydWxlPSJub256ZXJvIj48L3BhdGg+CiAgICAgICAgICAgICAgICAgICAgPHBhdGggZD0iTTE3LjI1LDE1IEw2Ljc1LDE1IEM0LjI2NzUsMTUgMi4yNSwxMi45ODI1IDIuMjUsMTAuNSBDMi4yNSw4LjIxMjUgMy45Njc1LDYuMzE1IDYuMTg3NSw2LjAzNzUgQzYuODQ3NSwzLjQxMjUgOS4yNDc1LDEuNSAxMiwxLjUgQzE0Ljc1MjUsMS41IDE3LjE1MjUsMy40MTI1IDE3LjgxMjUsNi4wMzc1IEMyMC4wMzI1LDYuMzE1IDIxLjc1LDguMjEyNSAyMS43NSwxMC41IEMyMS43NSwxMi45ODI1IDE5LjczMjUsMTUgMTcuMjUsMTUgWiBNNi43MTI1LDcuNSBDNS4wNzc1LDcuNTIyNSAzLjc1LDguODU3NSAzLjc1LDEwLjUgQzMuNzUsMTIuMTU3NSA1LjA5MjUsMTMuNSA2Ljc1LDEzLjUgTDE3LjI1LDEzLjUgQzE4LjkwNzUsMTMuNSAyMC4yNSwxMi4xNTc1IDIwLjI1LDEwLjUgQzIwLjI1LDguODU3NSAxOC45Myw3LjUyMjUgMTcuMjk1LDcuNSBMMTcuMjA1LDcuNTA3NSBMMTYuNTQ1LDcuNTIyNSBMMTYuNDU1LDYuODYyNSBDMTYuMTMyNSw0LjY1NzUgMTQuMjIsMyAxMiwzIEM5Ljc4LDMgNy44Njc1LDQuNjU3NSA3LjU1MjUsNi44NjI1IEw3LjQ2MjUsNy41MjI1IEw2LjcxMjUsNy41IFoiIGlkPSJTaGFwZSIgZmlsbD0iI0ZGRkZGRiIgZmlsbC1ydWxlPSJub256ZXJvIj48L3BhdGg+CiAgICAgICAgICAgICAgICAgICAgPHJlY3QgaWQ9IlJlY3RhbmdsZSIgeD0iMCIgeT0iMCIgd2lkdGg9IjI0IiBoZWlnaHQ9IjI0Ij48L3JlY3Q+CiAgICAgICAgICAgICAgICA8L2c+CiAgICAgICAgICAgIDwvZz4KICAgICAgICA8L2c+CiAgICA8L2c+Cjwvc3ZnPg==;fontFamily=IBM Plex Sans;fontSize=14;labelPosition=right;verticalLabelPosition=middle;align=left;verticalAlign=middle;spacingTop=-6;" vertex="1" parent="LZxzUFQRepn7Im_rXGNJ-18">
          <mxGeometry x="84.5" y="52" width="48" height="48" as="geometry" />
        </mxCell>
        <mxCell id="LZxzUFQRepn7Im_rXGNJ-48" value="" style="rounded=0;whiteSpace=wrap;html=1;fontFamily=IBM Plex Sans;fontSource=fonts%2FIBMPlexSans-Regular.woff;fontSize=14;fillColor=#f5f5f5;spacingBottom=-28;spacingTop=0;labelPosition=-100;verticalLabelPosition=top;align=center;verticalAlign=bottom;spacingLeft=9;spacing=0;expand=0;recursiveResize=0;spacingRight=0;container=0;collapsible=0;strokeColor=#666666;strokeWidth=2;dashed=1;dashPattern=1 2;fontColor=#333333;" vertex="1" parent="LZxzUFQRepn7Im_rXGNJ-14">
          <mxGeometry x="51" y="230" width="219" height="154" as="geometry">
            <mxRectangle width="670" as="alternateBounds" />
          </mxGeometry>
        </mxCell>
        <mxCell id="LZxzUFQRepn7Im_rXGNJ-49" value="Zone 2" style="text;html=1;strokeColor=none;fillColor=none;align=left;verticalAlign=middle;whiteSpace=wrap;rounded=0;fontFamily=IBM Plex Sans;fontSource=fonts%2FIBMPlexSans-Regular.woff;fontSize=14;" vertex="1" parent="LZxzUFQRepn7Im_rXGNJ-48">
          <mxGeometry x="51" y="8" width="168" height="20" as="geometry" />
        </mxCell>
        <mxCell id="LZxzUFQRepn7Im_rXGNJ-50" value="" style="shape=image;image=data:image/svg+xml,PD94bWwgdmVyc2lvbj0iMS4wIiBlbmNvZGluZz0iVVRGLTgiPz4KPHN2ZyB3aWR0aD0iMjlweCIgaGVpZ2h0PSIyNnB4IiB2aWV3Qm94PSIwIDAgMjkgMjYiIHZlcnNpb249IjEuMSIgeG1sbnM9Imh0dHA6Ly93d3cudzMub3JnLzIwMDAvc3ZnIiB4bWxuczp4bGluaz0iaHR0cDovL3d3dy53My5vcmcvMTk5OS94bGluayI+CiAgICA8IS0tIEdlbmVyYXRvcjogU2tldGNoIDUzICg3MjUyMCkgLSBodHRwczovL3NrZXRjaGFwcC5jb20gLS0+CiAgICA8dGl0bGU+Wm9uZSBCbGFjazwvdGl0bGU+CiAgICA8ZGVzYz5DcmVhdGVkIHdpdGggU2tldGNoLjwvZGVzYz4KICAgIDxnIGlkPSJQYWdlLTEiIHN0cm9rZT0ibm9uZSIgc3Ryb2tlLXdpZHRoPSIxIiBmaWxsPSJub25lIiBmaWxsLXJ1bGU9ImV2ZW5vZGQiPgogICAgICAgIDxnIGlkPSJab25lLUJsYWNrIiB0cmFuc2Zvcm09InRyYW5zbGF0ZSgwLjEyNTAwMCwgMC4wMDAwMDApIiBmaWxsPSIjMDAwMDAwIj4KICAgICAgICAgICAgPGcgaWQ9Ikdyb3VwLTMiPgogICAgICAgICAgICAgICAgPHBhdGggZD0iTTI2LjAwMDEsMjQuMDAwMSBMMjEuMDAwMSwyNC4wMDAxIEwyMS4wMDAxLDIwLjAwMDEgTDIzLjAwMDEsMjAuMDAwMSBMMjMuMDAwMSwxOC4wMDAxIEwyMS4wMDAxLDE4LjAwMDEgTDIxLjAwMDEsMTYuMDAwMSBMMjMuMDAwMSwxNi4wMDAxIEwyMy4wMDAxLDE0LjAwMDEgTDIxLjAwMDEsMTQuMDAwMSBMMjEuMDAwMSwxMi4wMDAxIEwyMy4wMDAxLDEyLjAwMDEgTDIzLjAwMDEsMTAuMDAwMSBMMjEuMDAwMSwxMC4wMDAxIEwyMS4wMDAxLDguMDAwMSBMMjYuMDAwMSw4LjAwMDEgTDI2LjAwMDEsMjQuMDAwMSBaIE05LjAwMDEsMjQuMDAwMSBMMTkuMDAwMSwyNC4wMDAxIEwxOS4wMDAxLDIuMDAwMSBMOS4wMDAxLDIuMDAwMSBMOS4wMDAxLDI0LjAwMDEgWiBNMi4wMDAxLDI0LjAwMDEgTDIuMDAwMSw4LjAwMDEgTDcuMDAwMSw4LjAwMDEgTDcuMDAwMSwxMC4wMDAxIEw1LjAwMDEsMTAuMDAwMSBMNS4wMDAxLDEyLjAwMDEgTDcuMDAwMSwxMi4wMDAxIEw3LjAwMDEsMTQuMDAwMSBMNS4wMDAxLDE0LjAwMDEgTDUuMDAwMSwxNi4wMDAxIEw3LjAwMDEsMTYuMDAwMSBMNy4wMDAxLDE4LjAwMDEgTDUuMDAwMSwxOC4wMDAxIEw1LjAwMDEsMjAuMDAwMSBMNy4wMDAxLDIwLjAwMDEgTDcuMDAwMSwyNC4wMDAxIEwyLjAwMDEsMjQuMDAwMSBaIE0yNi4wMDAxLDYuMDAwMSBMMjEuMDAwMSw2LjAwMDEgTDIxLjAwMDEsMi4wMDAxIEMyMC45OTkxLDAuODk2MSAyMC4xMDQxLDAuMDAxMSAxOS4wMDAxLDAuMDAwMSBMOS4wMDAxLDAuMDAwMSBDNy44OTYxLDAuMDAxMSA3LjAwMTEsMC44OTYxIDcuMDAwMSwyLjAwMDEgTDcuMDAwMSw2LjAwMDEgTDIuMDAwMSw2LjAwMDEgQzAuODk2MSw2LjAwMTEgMC4wMDExLDYuODk2MSAwLjAwMDEsOC4wMDAxIEwwLjAwMDEsMjQuMDAwMSBDMC4wMDExLDI1LjEwNDEgMC44OTYxLDI1Ljk5OTEgMi4wMDAxLDI2LjAwMDEgTDI2LjAwMDEsMjYuMDAwMSBDMjcuMTA0MSwyNS45OTkxIDI3Ljk5OTEsMjUuMTA0MSAyOC4wMDAxLDI0LjAwMDEgTDI4LjAwMDEsOC4wMDAxIEMyNy45OTkxLDYuODk2MSAyNy4xMDQxLDYuMDAxMSAyNi4wMDAxLDYuMDAwMSBMMjYuMDAwMSw2LjAwMDEgWiIgaWQ9IkZpbGwtMSI+PC9wYXRoPgogICAgICAgICAgICA8L2c+CiAgICAgICAgICAgIDxwb2x5Z29uIGlkPSJGaWxsLTQiIHBvaW50cz0iMTIgNiAxNiA2IDE2IDQgMTIgNCI+PC9wb2x5Z29uPgogICAgICAgICAgICA8cG9seWdvbiBpZD0iRmlsbC02IiBwb2ludHM9IjEyIDEwIDE2IDEwIDE2IDggMTIgOCI+PC9wb2x5Z29uPgogICAgICAgICAgICA8cG9seWdvbiBpZD0iRmlsbC03IiBwb2ludHM9IjEyIDE0IDE2IDE0IDE2IDEyIDEyIDEyIj48L3BvbHlnb24+CiAgICAgICAgPC9nPgogICAgPC9nPgo8L3N2Zz4=;" vertex="1" parent="LZxzUFQRepn7Im_rXGNJ-48">
          <mxGeometry x="18" y="12.07" width="24" height="24" as="geometry" />
        </mxCell>
        <mxCell id="LZxzUFQRepn7Im_rXGNJ-51" style="edgeStyle=orthogonalEdgeStyle;rounded=0;orthogonalLoop=1;jettySize=auto;html=1;exitX=0;exitY=0.5;exitDx=0;exitDy=0;entryX=1.009;entryY=0.22;entryDx=0;entryDy=0;entryPerimeter=0;fontFamily=IBM Plex Sans;fontSource=fonts%2FIBMPlexSans-Regular.woff;fontSize=14;startArrow=oval;startFill=1;strokeColor=#198038;" edge="1" parent="LZxzUFQRepn7Im_rXGNJ-48">
          <mxGeometry relative="1" as="geometry" />
        </mxCell>
        <mxCell id="LZxzUFQRepn7Im_rXGNJ-52" value="Public&#xa;Gateway" style="shape=image;verticalLabelPosition=middle;verticalAlign=middle;imageAspect=0;aspect=fixed;image=data:image/svg+xml,PHN2ZyB4bWxuczp4bGluaz0iaHR0cDovL3d3dy53My5vcmcvMTk5OS94bGluayIgeG1sbnM9Imh0dHA6Ly93d3cudzMub3JnLzIwMDAvc3ZnIiB2ZXJzaW9uPSIxLjEiIHZpZXdCb3g9IjAgMCA0OCA0OCIgaGVpZ2h0PSI0OHB4IiB3aWR0aD0iNDhweCI+JiN4YTsgICAgPHRpdGxlPmdhdGV3YXktLXB1YmxpYzwvdGl0bGU+JiN4YTsgICAgPGcgZmlsbC1ydWxlPSJldmVub2RkIiBmaWxsPSJub25lIiBzdHJva2Utd2lkdGg9IjEiIHN0cm9rZT0ibm9uZSIgaWQ9IlYyLUljb25zIj4mI3hhOyAgICAgICAgPGcgdHJhbnNmb3JtPSJ0cmFuc2xhdGUoLTYzNywgLTg2KSIgaWQ9IklCTS9DbG91ZC9OZXR3b3JrIj4mI3hhOyAgICAgICAgICAgIDxnIHRyYW5zZm9ybT0idHJhbnNsYXRlKDYzNywgODYpIiBpZD0iZ2F0ZXdheS0tcHVibGljIj4mI3hhOyAgICAgICAgICAgICAgICA8cmVjdCBoZWlnaHQ9IjQ4IiB3aWR0aD0iNDgiIHk9IjAiIHg9IjAiIGZpbGw9IiMxMTkyRTgiIGlkPSJSZWN0YW5nbGUtQ29weS0xOSIvPiYjeGE7ICAgICAgICAgICAgICAgIDxnIHRyYW5zZm9ybT0idHJhbnNsYXRlKDEyLCAxMikiPiYjeGE7ICAgICAgICAgICAgICAgICAgICA8cGF0aCBmaWxsLXJ1bGU9Im5vbnplcm8iIGZpbGw9IiNGRkZGRkYiIGlkPSJTaGFwZSIgZD0iTTE0LjI1LDEwLjUgTDEwLjUsMTAuNSBMMTAuNSw5IEMxMC41LDguMTcxNTcyODggMTEuMTcxNTcyOSw3LjUgMTIsNy41IEMxMi44Mjg0MjcxLDcuNSAxMy41LDguMTcxNTcyODggMTMuNSw5IEwxNSw5IEMxNSw3LjM0MzE0NTc1IDEzLjY1Njg1NDIsNiAxMiw2IEMxMC4zNDMxNDU4LDYgOSw3LjM0MzE0NTc1IDksOSBMOSwxMC43MDg3MjUgQzguNTM3NDk0NywxMC45NzQ0ODI5IDguMjUxNjczNTIsMTEuNDY2NTgxMiA4LjI1LDEyIEw4LjI1LDE1Ljc1IEM4LjI1MDk1MDYsMTYuNTc4MDMzMSA4LjkyMTk2Njk1LDE3LjI0OTA0OTQgOS43NSwxNy4yNSBMMTQuMjUsMTcuMjUgQzE1LjA3ODAzMzEsMTcuMjQ5MDQ5NCAxNS43NDkwNDk0LDE2LjU3ODAzMzEgMTUuNzUsMTUuNzUgTDE1Ljc1LDEyIEMxNS43NDkwNDk0LDExLjE3MTk2NjkgMTUuMDc4MDMzMSwxMC41MDA5NTA2IDE0LjI1LDEwLjUgWiBNMTQuMjUsMTUuNzUgTDkuNzUsMTUuNzUgTDkuNzUsMTIgTDE0LjI1LDEyIEwxNC4yNSwxNS43NSBaIi8+JiN4YTsgICAgICAgICAgICAgICAgICAgIDxwYXRoIGZpbGwtcnVsZT0ibm9uemVybyIgZmlsbD0iI0ZGRkZGRiIgaWQ9IlNoYXBlIiBkPSJNMjIuODEwNTc1LDEzLjA2MDU3NSBDMjMuMDkxOTE5NCwxMi43NzkzMjYxIDIzLjI0OTk4NSwxMi4zOTc4MTM1IDIzLjI0OTk4NSwxMiBDMjMuMjQ5OTg1LDExLjYwMjE4NjUgMjMuMDkxOTE5NCwxMS4yMjA2NzM5IDIyLjgxMDU3NSwxMC45Mzk0MjUgTDE4LjQ3MDQsNi41OTk0NzUgTDIwLjY0NTg1LDQuNDUyMzc1IEMyMS4zMDU1MTE4LDQuNjE1ODM5NDggMjEuOTkyNzEzOSw0LjMxNTc5MDM4IDIyLjMyMTI0MTQsMy43MjA4NTg0MSBDMjIuNjQ5NzY5LDMuMTI1OTI2NDUgMjIuNTM3NjgwMSwyLjM4NDUwMDY2IDIyLjA0Nzk2OTgsMS45MTMyNzAwNiBDMjEuNTU4MjU5NiwxLjQ0MjAzOTQ2IDIwLjgxMzA3MjUsMS4zNTg1MzkyNiAyMC4yMzEyMTE0LDEuNzA5Njk3NDQgQzE5LjY0OTM1MDMsMi4wNjA4NTU2MiAxOS4zNzU5NDQyLDIuNzU5MDg1NjYgMTkuNTY0NjUsMy40MTE5NzUgTDE3LjQwOTY3NSw1LjUzODYgTDEzLjA2MDU3NSwxLjE4OTQyNSBDMTIuNzc5MzI2MSwwLjkwODA4MDYzMyAxMi4zOTc4MTM1LDAuNzUwMDE0OTgzIDEyLDAuNzUwMDE0OTgzIEMxMS42MDIxODY1LDAuNzUwMDE0OTgzIDExLjIyMDY3MzksMC45MDgwODA2MzMgMTAuOTM5NDI1LDEuMTg5NDI1IEw2LjU5OTQ3NSw1LjUyOTQ1IEw0LjQ1MjYsMy4zNTM3NzUgQzQuNjE1OTcxODYsMi42OTM5OTg2MiA0LjMxNTc1MDI2LDIuMDA2NzYwNjIgMy43MjA2NzEzNCwxLjY3ODMxNTMxIEMzLjEyNTU5MjQzLDEuMzQ5ODcgMi4zODQwOTE1MiwxLjQ2MjE0NDEzIDEuOTEyOTIwNzgsMS45NTIwMzUzMiBDMS40NDE3NTAwNCwyLjQ0MTkyNjUgMS4zNTg0MzczNywzLjE4NzIzNzIyIDEuNzA5ODA3NzIsMy43NjkwNzQwNyBDMi4wNjExNzgwNyw0LjM1MDkxMDkyIDIuNzU5NTg2Myw0LjYyNDE0MTYzIDMuNDEyNSw0LjQzNTIgTDUuNTM4NzUsNi41OTAzMjUgTDEuMTg5NDI1LDEwLjkzOTQyNSBDMC45MDgwODA2MzMsMTEuMjIwNjczOSAwLjc1MDAxNDk4MywxMS42MDIxODY1IDAuNzUwMDE0OTgzLDEyIEMwLjc1MDAxNDk4MywxMi4zOTc4MTM1IDAuOTA4MDgwNjMzLDEyLjc3OTMyNjEgMS4xODk0MjUsMTMuMDYwNTc1IEw1LjUzODYsMTcuNDA5Njc1IEwzLjQxMjUsMTkuNTY0OCBDMi43NjEwNzcwNiwxOS4zNzcyNDU0IDIuMDY0ODc5MzYsMTkuNjUwNDQxNCAxLjcxNDg2MjE2LDIwLjIzMDk3MjYgQzEuMzY0ODQ0OTUsMjAuODExNTAzOSAxLjQ0ODIxOTMzLDIxLjU1NDcyMzkgMS45MTgxNjU3NywyMi4wNDMyNzE3IEMyLjM4ODExMjIxLDIyLjUzMTgxOTUgMy4xMjc1Mzc3NSwyMi42NDM5NjczIDMuNzIxMjEyMjMsMjIuMzE2NzM3NyBDNC4zMTQ4ODY3MSwyMS45ODk1MDgxIDQuNjE0ODg4OCwyMS4zMDQ0MzQ0IDQuNDUyNzUsMjAuNjQ2MjI1IEw2LjU5OTYyNSwxOC40NzA1NSBMMTAuOTM5NTc1LDIyLjgxMDU3NSBDMTEuMjIwODIzOSwyMy4wOTE5MTk0IDExLjYwMjMzNjUsMjMuMjQ5OTg1IDEyLjAwMDE1LDIzLjI0OTk4NSBDMTIuMzk3OTYzNSwyMy4yNDk5ODUgMTIuNzc5NDc2MSwyMy4wOTE5MTk0IDEzLjA2MDcyNSwyMi44MTA1NzUgTDE3LjQwOTgyNSwxOC40NjE0IEwxOS41NjQ4LDIwLjU4ODAyNSBDMTkuMzc3MjUyMywyMS4yMzk1ODc1IDE5LjY1MDU2OTEsMjEuOTM1OTAwNiAyMC4yMzEyNTYxLDIyLjI4NTkxNTYgQzIwLjgxMTk0MzEsMjIuNjM1OTMwNiAyMS41NTUzMDEyLDIyLjU1MjQyODggMjIuMDQzODYxNiwyMi4wODIzMDQ3IEMyMi41MzI0MjE5LDIxLjYxMjE4MDYgMjIuNjQ0NDQyMSwyMC44NzI1ODI0IDIyLjMxNzAxMTgsMjAuMjc4ODY3NyBDMjEuOTg5NTgxNCwxOS42ODUxNTI5IDIxLjMwNDI5MTUsMTkuMzg1MjY2OCAyMC42NDYsMTkuNTQ3NjI1IEwxOC40NzA1NSwxNy40MDA1MjUgTDIyLjgxMDU3NSwxMy4wNjA1NzUgWiBNMTIsMjEuNzUgTDIuMjUsMTIgTDEyLDIuMjUgTDIxLjc1LDEyIEwxMiwyMS43NSBaIi8+JiN4YTsgICAgICAgICAgICAgICAgICAgIDxyZWN0IGhlaWdodD0iMjQiIHdpZHRoPSIyNCIgeT0iMCIgeD0iMCIgaWQ9Il9UcmFuc3BhcmVudF9SZWN0YW5nbGVfIi8+JiN4YTsgICAgICAgICAgICAgICAgPC9nPiYjeGE7ICAgICAgICAgICAgPC9nPiYjeGE7ICAgICAgICA8L2c+JiN4YTsgICAgPC9nPiYjeGE7PC9zdmc+;fontFamily=IBM Plex Sans;fontSize=14;spacingTop=-7;labelPosition=right;align=left;" vertex="1" parent="LZxzUFQRepn7Im_rXGNJ-48">
          <mxGeometry x="187" y="53" width="48" height="48" as="geometry" />
        </mxCell>
        <mxCell id="LZxzUFQRepn7Im_rXGNJ-53" value="south web 1" style="shape=image;aspect=fixed;image=data:image/svg+xml,PD94bWwgdmVyc2lvbj0iMS4wIiBlbmNvZGluZz0iVVRGLTgiPz4KPHN2ZyB3aWR0aD0iNDhweCIgaGVpZ2h0PSI0OXB4IiB2aWV3Qm94PSIwIDAgNDggNDkiIHZlcnNpb249IjEuMSIgeG1sbnM9Imh0dHA6Ly93d3cudzMub3JnLzIwMDAvc3ZnIiB4bWxuczp4bGluaz0iaHR0cDovL3d3dy53My5vcmcvMTk5OS94bGluayI+CiAgICA8dGl0bGU+VmlydHVhbCBTZXJ2ZXIgQ2xhc3NpYzwvdGl0bGU+CiAgICA8ZyBpZD0iVjItSWNvbnMiIHN0cm9rZT0ibm9uZSIgc3Ryb2tlLXdpZHRoPSIxIiBmaWxsPSJub25lIiBmaWxsLXJ1bGU9ImV2ZW5vZGQiPgogICAgICAgIDxnIGlkPSJJQk0tLy1DbG91ZC0vLUNvbXB1dGUiIHRyYW5zZm9ybT0idHJhbnNsYXRlKC0xMjUzLCAtNDgpIj4KICAgICAgICAgICAgPGcgaWQ9IlZpcnR1YWwtU2VydmVyLUNsYXNzaWMiIHRyYW5zZm9ybT0idHJhbnNsYXRlKDEyNTMsIDQ4LjM0MjEpIj4KICAgICAgICAgICAgICAgIDxwb2x5Z29uIGlkPSJSZWN0YW5nbGUiIGZpbGw9IiMxOTgwMzgiIHBvaW50cz0iMCA0OCA0OCA0OCA0OCAwIDAgMCI+PC9wb2x5Z29uPgogICAgICAgICAgICAgICAgPGcgaWQ9ImlibS1jbG91ZC0tdmlydHVhbC1zZXJ2ZXItdnBjIiB0cmFuc2Zvcm09InRyYW5zbGF0ZSgxMS45OTU4LCAxMS42NTc5KSI+CiAgICAgICAgICAgICAgICAgICAgPGNpcmNsZSBpZD0iT3ZhbCIgZmlsbD0iI0ZGRkZGRiIgZmlsbC1ydWxlPSJub256ZXJvIiBjeD0iNiIgY3k9IjE5LjUiIHI9IjEiPjwvY2lyY2xlPgogICAgICAgICAgICAgICAgICAgIDxwYXRoIGQ9Ik0zLjc1LDIyLjUgTDIwLjI1LDIyLjUgQzIxLjA3NSwyMi41IDIxLjc1LDIxLjgyNSAyMS43NSwyMSBMMjEuNzUsMTggQzIxLjc1LDE3LjE3NSAyMS4wNzUsMTYuNSAyMC4yNSwxNi41IEwzLjc1LDE2LjUgQzIuOTI1LDE2LjUgMi4yNSwxNy4xNzUgMi4yNSwxOCBMMi4yNSwyMSBDMi4yNSwyMS44MjUgMi45MjUsMjIuNSAzLjc1LDIyLjUgWiBNMy43NSwxOCBMMjAuMjUsMTggTDIwLjI1LDIxIEwzLjc1LDIxIEwzLjc1LDE4IFoiIGlkPSJTaGFwZSIgZmlsbD0iI0ZGRkZGRiIgZmlsbC1ydWxlPSJub256ZXJvIj48L3BhdGg+CiAgICAgICAgICAgICAgICAgICAgPHBhdGggZD0iTTE3LjI1LDE1IEw2Ljc1LDE1IEM0LjI2NzUsMTUgMi4yNSwxMi45ODI1IDIuMjUsMTAuNSBDMi4yNSw4LjIxMjUgMy45Njc1LDYuMzE1IDYuMTg3NSw2LjAzNzUgQzYuODQ3NSwzLjQxMjUgOS4yNDc1LDEuNSAxMiwxLjUgQzE0Ljc1MjUsMS41IDE3LjE1MjUsMy40MTI1IDE3LjgxMjUsNi4wMzc1IEMyMC4wMzI1LDYuMzE1IDIxLjc1LDguMjEyNSAyMS43NSwxMC41IEMyMS43NSwxMi45ODI1IDE5LjczMjUsMTUgMTcuMjUsMTUgWiBNNi43MTI1LDcuNSBDNS4wNzc1LDcuNTIyNSAzLjc1LDguODU3NSAzLjc1LDEwLjUgQzMuNzUsMTIuMTU3NSA1LjA5MjUsMTMuNSA2Ljc1LDEzLjUgTDE3LjI1LDEzLjUgQzE4LjkwNzUsMTMuNSAyMC4yNSwxMi4xNTc1IDIwLjI1LDEwLjUgQzIwLjI1LDguODU3NSAxOC45Myw3LjUyMjUgMTcuMjk1LDcuNSBMMTcuMjA1LDcuNTA3NSBMMTYuNTQ1LDcuNTIyNSBMMTYuNDU1LDYuODYyNSBDMTYuMTMyNSw0LjY1NzUgMTQuMjIsMyAxMiwzIEM5Ljc4LDMgNy44Njc1LDQuNjU3NSA3LjU1MjUsNi44NjI1IEw3LjQ2MjUsNy41MjI1IEw2LjcxMjUsNy41IFoiIGlkPSJTaGFwZSIgZmlsbD0iI0ZGRkZGRiIgZmlsbC1ydWxlPSJub256ZXJvIj48L3BhdGg+CiAgICAgICAgICAgICAgICAgICAgPHJlY3QgaWQ9IlJlY3RhbmdsZSIgeD0iMCIgeT0iMCIgd2lkdGg9IjI0IiBoZWlnaHQ9IjI0Ij48L3JlY3Q+CiAgICAgICAgICAgICAgICA8L2c+CiAgICAgICAgICAgIDwvZz4KICAgICAgICA8L2c+CiAgICA8L2c+Cjwvc3ZnPg==;fontFamily=IBM Plex Sans;fontSize=14;labelPosition=center;verticalLabelPosition=bottom;align=center;verticalAlign=top;spacingTop=-6;" vertex="1" parent="LZxzUFQRepn7Im_rXGNJ-48">
          <mxGeometry x="84.5" y="52" width="48" height="48" as="geometry" />
        </mxCell>
        <mxCell id="LZxzUFQRepn7Im_rXGNJ-96" value="Flow&#xa;Logs" style="shape=image;aspect=fixed;image=data:image/svg+xml,PD94bWwgdmVyc2lvbj0iMS4wIiBlbmNvZGluZz0iVVRGLTgiPz4KPHN2ZyB3aWR0aD0iNDhweCIgaGVpZ2h0PSI0OHB4IiB2aWV3Qm94PSIwIDAgNDggNDgiIHZlcnNpb249IjEuMSIgeG1sbnM9Imh0dHA6Ly93d3cudzMub3JnLzIwMDAvc3ZnIiB4bWxuczp4bGluaz0iaHR0cDovL3d3dy53My5vcmcvMTk5OS94bGluayI+CiAgICA8dGl0bGU+Zmxvdy1sb2dzLXZwYzwvdGl0bGU+CiAgICA8ZyBpZD0iVjItSWNvbnMiIHN0cm9rZT0ibm9uZSIgc3Ryb2tlLXdpZHRoPSIxIiBmaWxsPSJub25lIiBmaWxsLXJ1bGU9ImV2ZW5vZGQiPgogICAgICAgIDxnIGlkPSJJQk0tQ2xvdWQtLy1PYnNlcnZhYmlsaXR5IiB0cmFuc2Zvcm09InRyYW5zbGF0ZSgtNTYwLCAtNDgpIj4KICAgICAgICAgICAgPGcgaWQ9ImZsb3ctbG9ncy12cGMiIHRyYW5zZm9ybT0idHJhbnNsYXRlKDU2MCwgNDgpIj4KICAgICAgICAgICAgICAgIDxyZWN0IGlkPSJSZWN0YW5nbGUtQ29weS0yOCIgZmlsbD0iIzAwOUQ5QSIgeD0iMCIgeT0iMCIgd2lkdGg9IjQ4IiBoZWlnaHQ9IjQ4Ij48L3JlY3Q+CiAgICAgICAgICAgICAgICA8ZyBpZD0iZmxvdy1sb2dzLXZwYygxKSIgdHJhbnNmb3JtPSJ0cmFuc2xhdGUoMTIsIDEyKSI+CiAgICAgICAgICAgICAgICAgICAgPHJlY3QgaWQ9IlJlY3RhbmdsZSIgZmlsbD0iI0ZGRkZGRiIgZmlsbC1ydWxlPSJub256ZXJvIiB4PSIxMy41IiB5PSIxNC4yNSIgd2lkdGg9IjkiIGhlaWdodD0iMS41Ij48L3JlY3Q+CiAgICAgICAgICAgICAgICAgICAgPHJlY3QgaWQ9IlJlY3RhbmdsZSIgZmlsbD0iI0ZGRkZGRiIgZmlsbC1ydWxlPSJub256ZXJvIiB4PSIxMy41IiB5PSIxNy4yNSIgd2lkdGg9IjkiIGhlaWdodD0iMS41Ij48L3JlY3Q+CiAgICAgICAgICAgICAgICAgICAgPHJlY3QgaWQ9IlJlY3RhbmdsZSIgZmlsbD0iI0ZGRkZGRiIgZmlsbC1ydWxlPSJub256ZXJvIiB4PSIxMy41IiB5PSIyMC4yNSIgd2lkdGg9IjYiIGhlaWdodD0iMS41Ij48L3JlY3Q+CiAgICAgICAgICAgICAgICAgICAgPHBhdGggZD0iTTE4LDMgQzE2LjYzNTg3NDMsMy4wMDQxNDUyOCAxNS40NDY2Mjg4LDMuOTI4OTMyNDcgMTUuMTA2NTc1LDUuMjUgTDksNS4yNSBMOSwzIEwzLDMgTDMsOSBMOSw5IEw5LDYuNzUgTDE1LjEwNjU3NSw2Ljc1IEMxNS4xNzYzODA5LDcuMDE4NDQwMDEgMTUuMjgzNjMzNiw3LjI3NTcxNTAzIDE1LjQyNTE3NSw3LjUxNDI1IEw3LjUxNDI1LDE1LjQyNTE3NSBDNy4wNTY5OTY4NiwxNS4xNDk2NzYzIDYuNTMzODI3OTEsMTUuMDAyNzc5NiA2LDE1IEM0LjQzOTU1MTE4LDE0Ljk5NDExODYgMy4xMzUxNTk2OCwxNi4xODU0ODYzIDIuOTk5OTcyMTUsMTcuNzQwMDc5MyBDMi44NjQ3ODQ2MSwxOS4yOTQ2NzIzIDMuOTQzOTQ4NjgsMjAuNjkzMzE0MSA1LjQ4MTk4OTQ0LDIwLjk1Njg3NzcgQzcuMDIwMDMwMiwyMS4yMjA0NDEyIDguNTAzMjk4OTQsMjAuMjYwOTA1OSA4Ljg5MzQyNSwxOC43NSBMMTIsMTguNzUgTDEyLDE3LjI1IEw4Ljg5MzQyNSwxNy4yNSBDOC44MjM2MTkwNiwxNi45ODE1NiA4LjcxNjM2NjQzLDE2LjcyNDI4NSA4LjU3NDgyNSwxNi40ODU3NSBMMTYuNDg1NzUsOC41NzQ4MjUgQzE2Ljk0MzAwMzEsOC44NTAzMjM2OSAxNy40NjYxNzIxLDguOTk3MjIwNDEgMTgsOSBDMTkuNjU2ODU0Miw5IDIxLDcuNjU2ODU0MjUgMjEsNiBDMjEsNC4zNDMxNDU3NSAxOS42NTY4NTQyLDMgMTgsMyBaIE03LjUsNy41IEw0LjUsNy41IEw0LjUsNC41IEw3LjUsNC41IEw3LjUsNy41IFogTTYsMTkuNSBDNS4xNzE1NzI4OCwxOS41IDQuNSwxOC44Mjg0MjcxIDQuNSwxOCBDNC41LDE3LjE3MTU3MjkgNS4xNzE1NzI4OCwxNi41IDYsMTYuNSBDNi44Mjg0MjcxMiwxNi41IDcuNSwxNy4xNzE1NzI5IDcuNSwxOCBDNy40OTkwNDk0LDE4LjgyODAzMzEgNi44MjgwMzMwNSwxOS40OTkwNDk0IDYsMTkuNSBaIE0xOCw3LjUgQzE3LjE3MTU3MjksNy41IDE2LjUsNi44Mjg0MjcxMiAxNi41LDYgQzE2LjUsNS4xNzE1NzI4OCAxNy4xNzE1NzI5LDQuNSAxOCw0LjUgQzE4LjgyODQyNzEsNC41IDE5LjUsNS4xNzE1NzI4OCAxOS41LDYgQzE5LjQ5OTA0OTQsNi44MjgwMzMwNSAxOC44MjgwMzMxLDcuNDk5MDQ5NCAxOCw3LjUgTDE4LDcuNSBaIiBpZD0iU2hhcGUiIGZpbGw9IiNGRkZGRkYiIGZpbGwtcnVsZT0ibm9uemVybyI+PC9wYXRoPgogICAgICAgICAgICAgICAgICAgIDxyZWN0IGlkPSJfVHJhbnNwYXJlbnRfUmVjdGFuZ2xlXyIgeD0iMCIgeT0iMCIgd2lkdGg9IjI0IiBoZWlnaHQ9IjI0Ij48L3JlY3Q+CiAgICAgICAgICAgICAgICA8L2c+CiAgICAgICAgICAgIDwvZz4KICAgICAgICA8L2c+CiAgICA8L2c+Cjwvc3ZnPg==;fontFamily=IBM Plex Sans;fontSize=14;spacingTop=-7;labelPosition=left;verticalLabelPosition=middle;align=right;verticalAlign=middle;" vertex="1" parent="LZxzUFQRepn7Im_rXGNJ-14">
          <mxGeometry x="346.34000000000003" y="352" width="48" height="48" as="geometry" />
        </mxCell>
        <mxCell id="LZxzUFQRepn7Im_rXGNJ-173" style="edgeStyle=orthogonalEdgeStyle;rounded=0;orthogonalLoop=1;jettySize=auto;html=1;entryX=0.5;entryY=0;entryDx=0;entryDy=0;fillColor=#dae8fc;strokeColor=#6c8ebf;strokeWidth=2;dashed=1;dashPattern=1 2;curved=1;" edge="1" parent="LZxzUFQRepn7Im_rXGNJ-14" source="LZxzUFQRepn7Im_rXGNJ-47" target="LZxzUFQRepn7Im_rXGNJ-53">
          <mxGeometry relative="1" as="geometry" />
        </mxCell>
        <mxCell id="LZxzUFQRepn7Im_rXGNJ-40" value="Public&#xa;Gateway" style="shape=image;verticalLabelPosition=middle;verticalAlign=middle;imageAspect=0;aspect=fixed;image=data:image/svg+xml,PHN2ZyB4bWxuczp4bGluaz0iaHR0cDovL3d3dy53My5vcmcvMTk5OS94bGluayIgeG1sbnM9Imh0dHA6Ly93d3cudzMub3JnLzIwMDAvc3ZnIiB2ZXJzaW9uPSIxLjEiIHZpZXdCb3g9IjAgMCA0OCA0OCIgaGVpZ2h0PSI0OHB4IiB3aWR0aD0iNDhweCI+JiN4YTsgICAgPHRpdGxlPmdhdGV3YXktLXB1YmxpYzwvdGl0bGU+JiN4YTsgICAgPGcgZmlsbC1ydWxlPSJldmVub2RkIiBmaWxsPSJub25lIiBzdHJva2Utd2lkdGg9IjEiIHN0cm9rZT0ibm9uZSIgaWQ9IlYyLUljb25zIj4mI3hhOyAgICAgICAgPGcgdHJhbnNmb3JtPSJ0cmFuc2xhdGUoLTYzNywgLTg2KSIgaWQ9IklCTS9DbG91ZC9OZXR3b3JrIj4mI3hhOyAgICAgICAgICAgIDxnIHRyYW5zZm9ybT0idHJhbnNsYXRlKDYzNywgODYpIiBpZD0iZ2F0ZXdheS0tcHVibGljIj4mI3hhOyAgICAgICAgICAgICAgICA8cmVjdCBoZWlnaHQ9IjQ4IiB3aWR0aD0iNDgiIHk9IjAiIHg9IjAiIGZpbGw9IiMxMTkyRTgiIGlkPSJSZWN0YW5nbGUtQ29weS0xOSIvPiYjeGE7ICAgICAgICAgICAgICAgIDxnIHRyYW5zZm9ybT0idHJhbnNsYXRlKDEyLCAxMikiPiYjeGE7ICAgICAgICAgICAgICAgICAgICA8cGF0aCBmaWxsLXJ1bGU9Im5vbnplcm8iIGZpbGw9IiNGRkZGRkYiIGlkPSJTaGFwZSIgZD0iTTE0LjI1LDEwLjUgTDEwLjUsMTAuNSBMMTAuNSw5IEMxMC41LDguMTcxNTcyODggMTEuMTcxNTcyOSw3LjUgMTIsNy41IEMxMi44Mjg0MjcxLDcuNSAxMy41LDguMTcxNTcyODggMTMuNSw5IEwxNSw5IEMxNSw3LjM0MzE0NTc1IDEzLjY1Njg1NDIsNiAxMiw2IEMxMC4zNDMxNDU4LDYgOSw3LjM0MzE0NTc1IDksOSBMOSwxMC43MDg3MjUgQzguNTM3NDk0NywxMC45NzQ0ODI5IDguMjUxNjczNTIsMTEuNDY2NTgxMiA4LjI1LDEyIEw4LjI1LDE1Ljc1IEM4LjI1MDk1MDYsMTYuNTc4MDMzMSA4LjkyMTk2Njk1LDE3LjI0OTA0OTQgOS43NSwxNy4yNSBMMTQuMjUsMTcuMjUgQzE1LjA3ODAzMzEsMTcuMjQ5MDQ5NCAxNS43NDkwNDk0LDE2LjU3ODAzMzEgMTUuNzUsMTUuNzUgTDE1Ljc1LDEyIEMxNS43NDkwNDk0LDExLjE3MTk2NjkgMTUuMDc4MDMzMSwxMC41MDA5NTA2IDE0LjI1LDEwLjUgWiBNMTQuMjUsMTUuNzUgTDkuNzUsMTUuNzUgTDkuNzUsMTIgTDE0LjI1LDEyIEwxNC4yNSwxNS43NSBaIi8+JiN4YTsgICAgICAgICAgICAgICAgICAgIDxwYXRoIGZpbGwtcnVsZT0ibm9uemVybyIgZmlsbD0iI0ZGRkZGRiIgaWQ9IlNoYXBlIiBkPSJNMjIuODEwNTc1LDEzLjA2MDU3NSBDMjMuMDkxOTE5NCwxMi43NzkzMjYxIDIzLjI0OTk4NSwxMi4zOTc4MTM1IDIzLjI0OTk4NSwxMiBDMjMuMjQ5OTg1LDExLjYwMjE4NjUgMjMuMDkxOTE5NCwxMS4yMjA2NzM5IDIyLjgxMDU3NSwxMC45Mzk0MjUgTDE4LjQ3MDQsNi41OTk0NzUgTDIwLjY0NTg1LDQuNDUyMzc1IEMyMS4zMDU1MTE4LDQuNjE1ODM5NDggMjEuOTkyNzEzOSw0LjMxNTc5MDM4IDIyLjMyMTI0MTQsMy43MjA4NTg0MSBDMjIuNjQ5NzY5LDMuMTI1OTI2NDUgMjIuNTM3NjgwMSwyLjM4NDUwMDY2IDIyLjA0Nzk2OTgsMS45MTMyNzAwNiBDMjEuNTU4MjU5NiwxLjQ0MjAzOTQ2IDIwLjgxMzA3MjUsMS4zNTg1MzkyNiAyMC4yMzEyMTE0LDEuNzA5Njk3NDQgQzE5LjY0OTM1MDMsMi4wNjA4NTU2MiAxOS4zNzU5NDQyLDIuNzU5MDg1NjYgMTkuNTY0NjUsMy40MTE5NzUgTDE3LjQwOTY3NSw1LjUzODYgTDEzLjA2MDU3NSwxLjE4OTQyNSBDMTIuNzc5MzI2MSwwLjkwODA4MDYzMyAxMi4zOTc4MTM1LDAuNzUwMDE0OTgzIDEyLDAuNzUwMDE0OTgzIEMxMS42MDIxODY1LDAuNzUwMDE0OTgzIDExLjIyMDY3MzksMC45MDgwODA2MzMgMTAuOTM5NDI1LDEuMTg5NDI1IEw2LjU5OTQ3NSw1LjUyOTQ1IEw0LjQ1MjYsMy4zNTM3NzUgQzQuNjE1OTcxODYsMi42OTM5OTg2MiA0LjMxNTc1MDI2LDIuMDA2NzYwNjIgMy43MjA2NzEzNCwxLjY3ODMxNTMxIEMzLjEyNTU5MjQzLDEuMzQ5ODcgMi4zODQwOTE1MiwxLjQ2MjE0NDEzIDEuOTEyOTIwNzgsMS45NTIwMzUzMiBDMS40NDE3NTAwNCwyLjQ0MTkyNjUgMS4zNTg0MzczNywzLjE4NzIzNzIyIDEuNzA5ODA3NzIsMy43NjkwNzQwNyBDMi4wNjExNzgwNyw0LjM1MDkxMDkyIDIuNzU5NTg2Myw0LjYyNDE0MTYzIDMuNDEyNSw0LjQzNTIgTDUuNTM4NzUsNi41OTAzMjUgTDEuMTg5NDI1LDEwLjkzOTQyNSBDMC45MDgwODA2MzMsMTEuMjIwNjczOSAwLjc1MDAxNDk4MywxMS42MDIxODY1IDAuNzUwMDE0OTgzLDEyIEMwLjc1MDAxNDk4MywxMi4zOTc4MTM1IDAuOTA4MDgwNjMzLDEyLjc3OTMyNjEgMS4xODk0MjUsMTMuMDYwNTc1IEw1LjUzODYsMTcuNDA5Njc1IEwzLjQxMjUsMTkuNTY0OCBDMi43NjEwNzcwNiwxOS4zNzcyNDU0IDIuMDY0ODc5MzYsMTkuNjUwNDQxNCAxLjcxNDg2MjE2LDIwLjIzMDk3MjYgQzEuMzY0ODQ0OTUsMjAuODExNTAzOSAxLjQ0ODIxOTMzLDIxLjU1NDcyMzkgMS45MTgxNjU3NywyMi4wNDMyNzE3IEMyLjM4ODExMjIxLDIyLjUzMTgxOTUgMy4xMjc1Mzc3NSwyMi42NDM5NjczIDMuNzIxMjEyMjMsMjIuMzE2NzM3NyBDNC4zMTQ4ODY3MSwyMS45ODk1MDgxIDQuNjE0ODg4OCwyMS4zMDQ0MzQ0IDQuNDUyNzUsMjAuNjQ2MjI1IEw2LjU5OTYyNSwxOC40NzA1NSBMMTAuOTM5NTc1LDIyLjgxMDU3NSBDMTEuMjIwODIzOSwyMy4wOTE5MTk0IDExLjYwMjMzNjUsMjMuMjQ5OTg1IDEyLjAwMDE1LDIzLjI0OTk4NSBDMTIuMzk3OTYzNSwyMy4yNDk5ODUgMTIuNzc5NDc2MSwyMy4wOTE5MTk0IDEzLjA2MDcyNSwyMi44MTA1NzUgTDE3LjQwOTgyNSwxOC40NjE0IEwxOS41NjQ4LDIwLjU4ODAyNSBDMTkuMzc3MjUyMywyMS4yMzk1ODc1IDE5LjY1MDU2OTEsMjEuOTM1OTAwNiAyMC4yMzEyNTYxLDIyLjI4NTkxNTYgQzIwLjgxMTk0MzEsMjIuNjM1OTMwNiAyMS41NTUzMDEyLDIyLjU1MjQyODggMjIuMDQzODYxNiwyMi4wODIzMDQ3IEMyMi41MzI0MjE5LDIxLjYxMjE4MDYgMjIuNjQ0NDQyMSwyMC44NzI1ODI0IDIyLjMxNzAxMTgsMjAuMjc4ODY3NyBDMjEuOTg5NTgxNCwxOS42ODUxNTI5IDIxLjMwNDI5MTUsMTkuMzg1MjY2OCAyMC42NDYsMTkuNTQ3NjI1IEwxOC40NzA1NSwxNy40MDA1MjUgTDIyLjgxMDU3NSwxMy4wNjA1NzUgWiBNMTIsMjEuNzUgTDIuMjUsMTIgTDEyLDIuMjUgTDIxLjc1LDEyIEwxMiwyMS43NSBaIi8+JiN4YTsgICAgICAgICAgICAgICAgICAgIDxyZWN0IGhlaWdodD0iMjQiIHdpZHRoPSIyNCIgeT0iMCIgeD0iMCIgaWQ9Il9UcmFuc3BhcmVudF9SZWN0YW5nbGVfIi8+JiN4YTsgICAgICAgICAgICAgICAgPC9nPiYjeGE7ICAgICAgICAgICAgPC9nPiYjeGE7ICAgICAgICA8L2c+JiN4YTsgICAgPC9nPiYjeGE7PC9zdmc+;fontFamily=IBM Plex Sans;fontSize=14;spacingTop=-7;labelPosition=right;align=left;" vertex="1" parent="LZxzUFQRepn7Im_rXGNJ-14">
          <mxGeometry x="238" y="33.849999999999994" width="48" height="48" as="geometry" />
        </mxCell>
        <mxCell id="LZxzUFQRepn7Im_rXGNJ-97" value="south collector&#xa;bucket" style="shape=image;aspect=fixed;image=data:image/svg+xml,PD94bWwgdmVyc2lvbj0iMS4wIiBlbmNvZGluZz0iVVRGLTgiPz4KPHN2ZyB3aWR0aD0iNDhweCIgaGVpZ2h0PSI0OXB4IiB2aWV3Qm94PSIwIDAgNDggNDkiIHZlcnNpb249IjEuMSIgeG1sbnM9Imh0dHA6Ly93d3cudzMub3JnLzIwMDAvc3ZnIiB4bWxuczp4bGluaz0iaHR0cDovL3d3dy53My5vcmcvMTk5OS94bGluayI+CiAgICA8dGl0bGU+T2JqZWN0IEJ1Y2tldDwvdGl0bGU+CiAgICA8ZyBpZD0iVjItSWNvbnMiIHN0cm9rZT0ibm9uZSIgc3Ryb2tlLXdpZHRoPSIxIiBmaWxsPSJub25lIiBmaWxsLXJ1bGU9ImV2ZW5vZGQiPgogICAgICAgIDxnIGlkPSJJQk0tLy1DbG91ZC0vLVN0b3JhZ2UiIHRyYW5zZm9ybT0idHJhbnNsYXRlKC01MzQsIC00NykiPgogICAgICAgICAgICA8ZyBpZD0iT2JqZWN0LUJ1Y2tldCIgdHJhbnNmb3JtPSJ0cmFuc2xhdGUoNTM0LCA0Ny45MzYyKSI+CiAgICAgICAgICAgICAgICA8cG9seWdvbiBpZD0iRmlsbC00IiBmaWxsPSIjMEY2MkZFIiBwb2ludHM9IjAgNDggNDggNDggNDggMCAwIDAiPjwvcG9seWdvbj4KICAgICAgICAgICAgICAgIDxwYXRoIGQ9Ik0yOC43NSwzMC4wNjM3NzczIEMyOC4xODE3NTExLDMwLjA2NTAwMjUgMjcuNjM1MzA1NiwzMC4yODI2MzEzIDI3LjIyMTgsMzAuNjcyNDAyMyBMMjQuMjE5MDI1LDI4Ljg3MDY3NzMgQzI0LjI2MDMyNTUsMjguNjY4MTYxNiAyNC4yNjAzMjU1LDI4LjQ1OTM5MzEgMjQuMjE5MDI1LDI4LjI1Njg3NzMgTDI3LjIyMTgsMjYuNDU1MTUyMyBDMjguMDczODYzLDI3LjI5NzA0MzYgMjkuNDExNzE0MiwyNy4zOTQxMDYxIDMwLjM3NjM3NDYsMjYuNjg0MDE5OSBDMzEuMzQxMDM1MSwyNS45NzM5MzM4IDMxLjY0NTg5ODUsMjQuNjY3NjY5OSAzMS4wOTUyMjQ1LDIzLjYwMzkyNjMgQzMwLjU0NDU1MDUsMjIuNTQwMTgyNyAyOS4zMDE5NDc4LDIyLjAzNTAwNDEgMjguMTY1MjQwMiwyMi40MTI3NDQ3IEMyNy4wMjg1MzI2LDIyLjc5MDQ4NTQgMjYuMzM1NDQyNywyMy45Mzg5MTYyIDI2LjUzMDk3NSwyNS4xMjA2NzczIEwyMy41MjgyLDI2LjkyMjQwMjMgQzIyLjYzNTQyMDEsMjYuMDg1MzI5OSAyMS4yMzczMTA5LDI2LjExNTM0MDMgMjAuMzgxMjcyMiwyNi45ODk5NTEgQzE5LjUyNTIzMzUsMjcuODY0NTYxNyAxOS41MjUyMzM1LDI5LjI2Mjk5MjkgMjAuMzgxMjcyMiwzMC4xMzc2MDM3IEMyMS4yMzczMTA5LDMxLjAxMjIxNDQgMjIuNjM1NDIwMSwzMS4wNDIyMjQ3IDIzLjUyODIsMzAuMjA1MTUyMyBMMjYuNTMwOTc1LDMyLjAwNjg3NzMgQzI2LjUxMzU3NzcsMzIuMTA4MzM5NiAyNi41MDMyMjc5LDMyLjIxMDg4NDkgMjYuNSwzMi4zMTM3NzczIEMyNi41LDMzLjU1NjQxOCAyNy41MDczNTkzLDM0LjU2Mzc3NzMgMjguNzUsMzQuNTYzNzc3MyBDMjkuOTkyNjQwNywzNC41NjM3NzczIDMxLDMzLjU1NjQxOCAzMSwzMi4zMTM3NzczIEMzMSwzMS4wNzExMzY2IDI5Ljk5MjY0MDcsMzAuMDYzNzc3MyAyOC43NSwzMC4wNjM3NzczIFogTTI4Ljc1LDI0LjA2Mzc3NzMgQzI5LjE2NDIxMzYsMjQuMDYzNzc3MyAyOS41LDI0LjM5OTU2MzggMjkuNSwyNC44MTM3NzczIEMyOS41LDI1LjIyNzk5MDkgMjkuMTY0MjEzNiwyNS41NjM3NzczIDI4Ljc1LDI1LjU2Mzc3NzMgQzI4LjMzNTc4NjQsMjUuNTYzNzc3MyAyOCwyNS4yMjc5OTA5IDI4LDI0LjgxMzc3NzMgQzI4LjAwMDMzMDksMjQuMzk5NzAwOSAyOC4zMzU5MjM2LDI0LjA2NDEwODIgMjguNzUsMjQuMDYzNzc3MyBMMjguNzUsMjQuMDYzNzc3MyBaIE0yMiwyOS4zMTM3NzczIEMyMS41ODU3ODY0LDI5LjMxMzc3NzMgMjEuMjUsMjguOTc3OTkwOSAyMS4yNSwyOC41NjM3NzczIEMyMS4yNSwyOC4xNDk1NjM4IDIxLjU4NTc4NjQsMjcuODEzNzc3MyAyMiwyNy44MTM3NzczIEMyMi40MTQyMTM2LDI3LjgxMzc3NzMgMjIuNzUsMjguMTQ5NTYzOCAyMi43NSwyOC41NjM3NzczIEMyMi43NDk2NjkxLDI4Ljk3Nzg1MzggMjIuNDE0MDc2NCwyOS4zMTM0NDY1IDIyLDI5LjMxMzc3NzMgTDIyLDI5LjMxMzc3NzMgWiBNMjguNzUsMzMuMDYzNzc3MyBDMjguMzM1Nzg2NCwzMy4wNjM3NzczIDI4LDMyLjcyNzk5MDkgMjgsMzIuMzEzNzc3MyBDMjgsMzEuODk5NTYzOCAyOC4zMzU3ODY0LDMxLjU2Mzc3NzMgMjguNzUsMzEuNTYzNzc3MyBDMjkuMTY0MjEzNiwzMS41NjM3NzczIDI5LjUsMzEuODk5NTYzOCAyOS41LDMyLjMxMzc3NzMgQzI5LjQ5OTY2OTEsMzIuNzI3ODUzOCAyOS4xNjQwNzY0LDMzLjA2MzQ0NjUgMjguNzUsMzMuMDYzNzc3MyBaIiBpZD0iU2hhcGUiIGZpbGw9IiNGRkZGRkYiIGZpbGwtcnVsZT0ibm9uemVybyI+PC9wYXRoPgogICAgICAgICAgICAgICAgPHBhdGggZD0iTTE3LjUsMzMuMDYzNzcxNSBMMTQuNSwzMy4wNjM3NzE1IEMxMy42NzE5NjY5LDMzLjA2MjgyNjcgMTMuMDAwOTUwNiwzMi4zOTE4MTA0IDEzLDMxLjU2Mzc3MTUgTDEzLDE2LjU2Mzc3MTUgQzEzLjAwMDk1MDYsMTUuNzM1NzQ0MyAxMy42NzE5NjY5LDE1LjA2NDcyNzkgMTQuNSwxNS4wNjM3NzE1IEwyMC4xODkyNzUsMTUuMDYzNzcxNSBDMjAuNTg3MzU2NywxNS4wNjI2NjE0IDIwLjk2OTMyOTMsMTUuMjIwOTAwNiAyMS4yNSwxNS41MDMyMDIzIEwyMy44MTA3MjUsMTguMDYzNzcxNSBMMzIuNSwxOC4wNjM3NzE1IEMzMy4zMjgwMzMxLDE4LjA2NDcyNzkgMzMuOTk5MDQ5NCwxOC43MzU3NDQzIDM0LDE5LjU2Mzc3MTUgTDM0LDI1LjU2Mzc3MTUgTDMyLjUsMjUuNTYzNzcxNSBMMzIuNSwxOS41NjM3NzE1IEwyMy4xODkyNzUsMTkuNTYzNzcxNSBMMjAuMTg5Mjc1LDE2LjU2Mzc3MTUgTDE0LjUsMTYuNTYzNzcxNSBMMTQuNSwzMS41NjM3NzE1IEwxNy41LDMxLjU2Mzc3MTUgTDE3LjUsMzMuMDYzNzcxNSBaIiBpZD0iUGF0aCIgZmlsbD0iI0ZGRkZGRiIgZmlsbC1ydWxlPSJub256ZXJvIj48L3BhdGg+CiAgICAgICAgICAgICAgICA8cmVjdCBpZD0iX1RyYW5zcGFyZW50X1JlY3RhbmdsZV8iIHg9IjExLjUiIHk9IjEyLjA2Mzc3NzMiIHdpZHRoPSIyNCIgaGVpZ2h0PSIyNCI+PC9yZWN0PgogICAgICAgICAgICA8L2c+CiAgICAgICAgPC9nPgogICAgPC9nPgo8L3N2Zz4=;fontFamily=IBM Plex Sans;fontSize=14;labelPosition=center;verticalLabelPosition=bottom;align=center;verticalAlign=top;spacingTop=-7;" vertex="1" parent="LZxzUFQRepn7Im_rXGNJ-22">
          <mxGeometry x="276" y="480" width="48" height="48" as="geometry" />
        </mxCell>
        <mxCell id="LZxzUFQRepn7Im_rXGNJ-100" style="edgeStyle=orthogonalEdgeStyle;rounded=0;orthogonalLoop=1;jettySize=auto;html=1;fillColor=#ffe6cc;strokeColor=#d79b00;" edge="1" parent="LZxzUFQRepn7Im_rXGNJ-22" source="LZxzUFQRepn7Im_rXGNJ-98" target="LZxzUFQRepn7Im_rXGNJ-97">
          <mxGeometry relative="1" as="geometry" />
        </mxCell>
        <mxCell id="LZxzUFQRepn7Im_rXGNJ-101" value="archive query" style="edgeLabel;html=1;align=center;verticalAlign=middle;resizable=0;points=[];" vertex="1" connectable="0" parent="LZxzUFQRepn7Im_rXGNJ-100">
          <mxGeometry x="-0.0156" y="1" relative="1" as="geometry">
            <mxPoint as="offset" />
          </mxGeometry>
        </mxCell>
        <mxCell id="LZxzUFQRepn7Im_rXGNJ-98" value="Cloud logs" style="shape=image;aspect=fixed;image=data:image/svg+xml,PD94bWwgdmVyc2lvbj0iMS4wIiBlbmNvZGluZz0iVVRGLTgiPz4KPHN2ZyB3aWR0aD0iNDhweCIgaGVpZ2h0PSI0OHB4IiB2aWV3Qm94PSIwIDAgNDggNDgiIHZlcnNpb249IjEuMSIgeG1sbnM9Imh0dHA6Ly93d3cudzMub3JnLzIwMDAvc3ZnIiB4bWxuczp4bGluaz0iaHR0cDovL3d3dy53My5vcmcvMTk5OS94bGluayI+CiAgICA8dGl0bGU+Y2xvdWQtLWxvZ2dpbmc8L3RpdGxlPgogICAgPGcgaWQ9IlYyLUljb25zIiBzdHJva2U9Im5vbmUiIHN0cm9rZS13aWR0aD0iMSIgZmlsbD0ibm9uZSIgZmlsbC1ydWxlPSJldmVub2RkIj4KICAgICAgICA8ZyBpZD0iSUJNLUNsb3VkLS8tT2JzZXJ2YWJpbGl0eSIgdHJhbnNmb3JtPSJ0cmFuc2xhdGUoLTMwOCwgLTQ5KSI+CiAgICAgICAgICAgIDxnIGlkPSJjbG91ZC0tbG9nZ2luZyIgdHJhbnNmb3JtPSJ0cmFuc2xhdGUoMzA4LCA0OSkiPgogICAgICAgICAgICAgICAgPHJlY3QgaWQ9IlJlY3RhbmdsZS1Db3B5LTM0IiBmaWxsPSIjMDA5RDlBIiB4PSIwIiB5PSIwIiB3aWR0aD0iNDgiIGhlaWdodD0iNDgiPjwvcmVjdD4KICAgICAgICAgICAgICAgIDxnIHRyYW5zZm9ybT0idHJhbnNsYXRlKDExLCAxMikiPgogICAgICAgICAgICAgICAgICAgIDxwYXRoIGQ9Ik0yMSwxMiBMMjEsMTYuNSBMMywxNi41IEwzLDQuNSBMMTEuMjUsNC41IEwxMS4yNSwzIEwzLDMgQzIuMTcxNTcyODgsMyAxLjUsMy42NzE1NzI4OCAxLjUsNC41IEwxLjUsMTYuNSBDMS41LDE3LjMyODQyNzEgMi4xNzE1NzI4OCwxOCAzLDE4IEw5LDE4IEw5LDIxIEw2LDIxIEw2LDIyLjUgTDE4LDIyLjUgTDE4LDIxIEwxNSwyMSBMMTUsMTggTDIxLDE4IEMyMS44Mjg0MjcxLDE4IDIyLjUsMTcuMzI4NDI3MSAyMi41LDE2LjUgTDIyLjUsMTIgTDIxLDEyIFogTTEzLjUsMjEgTDEwLjUsMjEgTDEwLjUsMTggTDEzLjUsMTggTDEzLjUsMjEgWiIgaWQ9IlNoYXBlIiBmaWxsPSIjRkZGRkZGIiBmaWxsLXJ1bGU9Im5vbnplcm8iPjwvcGF0aD4KICAgICAgICAgICAgICAgICAgICA8cmVjdCBpZD0iUmVjdGFuZ2xlIiBmaWxsPSIjRkZGRkZGIiBmaWxsLXJ1bGU9Im5vbnplcm8iIHg9IjEzLjUiIHk9IjMiIHdpZHRoPSI5IiBoZWlnaHQ9IjEuNSI+PC9yZWN0PgogICAgICAgICAgICAgICAgICAgIDxyZWN0IGlkPSJSZWN0YW5nbGUiIGZpbGw9IiNGRkZGRkYiIGZpbGwtcnVsZT0ibm9uemVybyIgeD0iMTMuNSIgeT0iNiIgd2lkdGg9IjkiIGhlaWdodD0iMS41Ij48L3JlY3Q+CiAgICAgICAgICAgICAgICAgICAgPHJlY3QgaWQ9IlJlY3RhbmdsZSIgZmlsbD0iI0ZGRkZGRiIgZmlsbC1ydWxlPSJub256ZXJvIiB4PSIxMy41IiB5PSI5IiB3aWR0aD0iNC41IiBoZWlnaHQ9IjEuNSI+PC9yZWN0PgogICAgICAgICAgICAgICAgICAgIDxyZWN0IGlkPSJfVHJhbnNwYXJlbnRfUmVjdGFuZ2xlXyIgeD0iMCIgeT0iMCIgd2lkdGg9IjI0IiBoZWlnaHQ9IjI0Ij48L3JlY3Q+CiAgICAgICAgICAgICAgICA8L2c+CiAgICAgICAgICAgIDwvZz4KICAgICAgICA8L2c+CiAgICA8L2c+Cjwvc3ZnPg==;fontFamily=IBM Plex Sans;labelPosition=center;verticalLabelPosition=bottom;align=center;verticalAlign=top;fontSize=14;spacingTop=-7;" vertex="1" parent="LZxzUFQRepn7Im_rXGNJ-22">
          <mxGeometry x="100" y="480" width="48" height="48" as="geometry" />
        </mxCell>
        <mxCell id="LZxzUFQRepn7Im_rXGNJ-99" style="edgeStyle=orthogonalEdgeStyle;rounded=0;orthogonalLoop=1;jettySize=auto;html=1;entryX=1;entryY=0.5;entryDx=0;entryDy=0;fillColor=#e1d5e7;strokeColor=#9673a6;dashed=1;dashPattern=1 1;strokeWidth=2;" edge="1" parent="LZxzUFQRepn7Im_rXGNJ-22" source="LZxzUFQRepn7Im_rXGNJ-96" target="LZxzUFQRepn7Im_rXGNJ-97">
          <mxGeometry relative="1" as="geometry">
            <Array as="points">
              <mxPoint x="420" y="504" />
            </Array>
          </mxGeometry>
        </mxCell>
        <mxCell id="LZxzUFQRepn7Im_rXGNJ-102" value="" style="rounded=0;whiteSpace=wrap;html=1;fontFamily=IBM Plex Sans;fontSource=fonts%2FIBMPlexSans-Regular.woff;fontSize=14;spacingBottom=-28;spacingTop=0;labelPosition=-100;verticalLabelPosition=top;align=center;verticalAlign=bottom;spacingLeft=9;spacing=0;expand=0;recursiveResize=0;spacingRight=0;container=1;collapsible=0;strokeColor=#6c8ebf;fillColor=#dae8fc;" vertex="1" parent="LZxzUFQRepn7Im_rXGNJ-27">
          <mxGeometry x="780" y="69" width="470" height="580" as="geometry">
            <mxRectangle width="670" as="alternateBounds" />
          </mxGeometry>
        </mxCell>
        <mxCell id="LZxzUFQRepn7Im_rXGNJ-103" value="" style="rounded=0;whiteSpace=wrap;html=1;strokeColor=none;fillColor=#878d96;" vertex="1" parent="LZxzUFQRepn7Im_rXGNJ-102">
          <mxGeometry width="4" height="48" as="geometry" />
        </mxCell>
        <mxCell id="LZxzUFQRepn7Im_rXGNJ-104" value="ca-tor region" style="text;html=1;strokeColor=none;fillColor=none;align=left;verticalAlign=middle;whiteSpace=wrap;rounded=0;fontFamily=IBM Plex Sans;fontSource=fonts%2FIBMPlexSans-Regular.woff;fontSize=14;" vertex="1" parent="LZxzUFQRepn7Im_rXGNJ-102">
          <mxGeometry x="51" y="8" width="168" height="20" as="geometry" />
        </mxCell>
        <mxCell id="LZxzUFQRepn7Im_rXGNJ-105" style="edgeStyle=orthogonalEdgeStyle;rounded=0;orthogonalLoop=1;jettySize=auto;html=1;exitX=0;exitY=0.5;exitDx=0;exitDy=0;entryX=1.009;entryY=0.22;entryDx=0;entryDy=0;entryPerimeter=0;fontFamily=IBM Plex Sans;fontSource=fonts%2FIBMPlexSans-Regular.woff;fontSize=14;startArrow=oval;startFill=1;strokeColor=#198038;" edge="1" parent="LZxzUFQRepn7Im_rXGNJ-102">
          <mxGeometry relative="1" as="geometry" />
        </mxCell>
        <mxCell id="LZxzUFQRepn7Im_rXGNJ-106" value="" style="shape=image;image=data:image/svg+xml,PD94bWwgdmVyc2lvbj0iMS4wIiBlbmNvZGluZz0iVVRGLTgiPz4KPHN2ZyB3aWR0aD0iMjNweCIgaGVpZ2h0PSIyOHB4IiB2aWV3Qm94PSIwIDAgMjMgMjgiIHZlcnNpb249IjEuMSIgeG1sbnM9Imh0dHA6Ly93d3cudzMub3JnLzIwMDAvc3ZnIiB4bWxuczp4bGluaz0iaHR0cDovL3d3dy53My5vcmcvMTk5OS94bGluayI+CiAgICA8IS0tIEdlbmVyYXRvcjogU2tldGNoIDUzICg3MjUyMCkgLSBodHRwczovL3NrZXRjaGFwcC5jb20gLS0+CiAgICA8dGl0bGU+UmVnaW9uIEJsYWNrPC90aXRsZT4KICAgIDxkZXNjPkNyZWF0ZWQgd2l0aCBTa2V0Y2guPC9kZXNjPgogICAgPGcgaWQ9IlBhZ2UtMSIgc3Ryb2tlPSJub25lIiBzdHJva2Utd2lkdGg9IjEiIGZpbGw9Im5vbmUiIGZpbGwtcnVsZT0iZXZlbm9kZCI+CiAgICAgICAgPGcgaWQ9IlJlZ2lvbi1CbGFjayIgdHJhbnNmb3JtPSJ0cmFuc2xhdGUoMC4xMjUwMDAsIDAuMDAwMDAwKSIgZmlsbD0iIzAwMDAwMCI+CiAgICAgICAgICAgIDxwYXRoIGQ9Ik0xMS4wMDAyLDggQzkuMzQzMiw4IDguMDAwMiw5LjM0MyA4LjAwMDIsMTEgQzguMDAwMiwxMi42NTcgOS4zNDMyLDE0IDExLjAwMDIsMTQgQzEyLjY1NzIsMTQgMTQuMDAwMiwxMi42NTcgMTQuMDAwMiwxMSBDMTMuOTk4Miw5LjM0NCAxMi42NTYyLDguMDAyIDExLjAwMDIsOCBNMTEuMDAwMiwxNiBDOC4yMzgyLDE2IDYuMDAwMiwxMy43NjEgNi4wMDAyLDExIEM2LjAwMDIsOC4yMzkgOC4yMzgyLDYgMTEuMDAwMiw2IEMxMy43NjEyLDYgMTYuMDAwMiw4LjIzOSAxNi4wMDAyLDExIEMxNS45OTcyLDEzLjc2IDEzLjc2MDIsMTUuOTk3IDExLjAwMDIsMTYiIGlkPSJGaWxsLTEiPjwvcGF0aD4KICAgICAgICAgICAgPGcgaWQ9Ikdyb3VwLTUiPgogICAgICAgICAgICAgICAgPHBhdGggZD0iTTMuODEyNywxNi4zOTUgQzMuODEzNywxNi4zOTUgNC4wNDU3LDE2LjcwMyA0LjA5ODcsMTYuNzcgTDEwLjk5OTcsMjQuOTA4IEwxNy45MTA3LDE2Ljc1OCBDMTcuOTU0NywxNi43MDMgMTguMTg4NywxNi4zOTMgMTguMTg4NywxNi4zOTIgQzE5LjM2NjcsMTQuODQxIDIwLjAwMTcsMTIuOTQ3IDE5Ljk5OTcsMTEgQzE5Ljk5OTcsNi4wMjkgMTUuOTcwNywyIDEwLjk5OTcsMiBDNi4wMjk3LDIgMi4wMDA3LDYuMDI5IDIuMDAwNywxMSBDMS45OTc3LDEyLjk0OCAyLjYzNDcsMTQuODQzIDMuODEyNywxNi4zOTUgTDMuODEyNywxNi4zOTUgWiBNMTAuOTk5NywyOCBMMi41NjQ3LDE4LjA1MSBDMi41MTY3LDE3Ljk5NCAyLjIxNjcsMTcuNiAyLjIxNjcsMTcuNiBDMC43NzQ3LDE1LjcwMiAtMC4wMDMzLDEzLjM4MyAtMC4wMDAzLDExIEMtMC4wMDAzLDQuOTI1IDQuOTI0NywwIDEwLjk5OTcsMCBDMTcuMDc1NywwIDIxLjk5OTcsNC45MjUgMjEuOTk5NywxMSBDMjIuMDAyNywxMy4zODIgMjEuMjI1NywxNS43IDE5Ljc4NTcsMTcuNTk3IEwxOS43ODM3LDE3LjYgQzE5Ljc4MzcsMTcuNiAxOS40ODM3LDE3Ljk5NCAxOS40Mzg3LDE4LjA0NyBMMTAuOTk5NywyOCBaIiBpZD0iRmlsbC0zIj48L3BhdGg+CiAgICAgICAgICAgIDwvZz4KICAgICAgICA8L2c+CiAgICA8L2c+Cjwvc3ZnPg==;" vertex="1" parent="LZxzUFQRepn7Im_rXGNJ-102">
          <mxGeometry x="19.66" y="8" width="24" height="24" as="geometry" />
        </mxCell>
        <mxCell id="LZxzUFQRepn7Im_rXGNJ-107" value="" style="rounded=0;whiteSpace=wrap;html=1;fontFamily=IBM Plex Sans;fontSource=fonts%2FIBMPlexSans-Regular.woff;fontSize=14;spacingBottom=-28;spacingTop=0;labelPosition=-100;verticalLabelPosition=top;align=center;verticalAlign=bottom;spacingLeft=9;spacing=0;expand=0;recursiveResize=0;spacingRight=0;container=1;collapsible=0;strokeColor=#82b366;fillColor=#d5e8d4;" vertex="1" parent="LZxzUFQRepn7Im_rXGNJ-102">
          <mxGeometry x="43.66" y="48" width="369" height="412" as="geometry">
            <mxRectangle width="670" as="alternateBounds" />
          </mxGeometry>
        </mxCell>
        <mxCell id="LZxzUFQRepn7Im_rXGNJ-108" value="" style="rounded=0;whiteSpace=wrap;html=1;strokeColor=none;fillColor=#1192E8;" vertex="1" parent="LZxzUFQRepn7Im_rXGNJ-107">
          <mxGeometry width="4" height="48" as="geometry" />
        </mxCell>
        <mxCell id="LZxzUFQRepn7Im_rXGNJ-109" value="toronto demo vpc" style="text;html=1;strokeColor=none;fillColor=none;align=left;verticalAlign=middle;whiteSpace=wrap;rounded=0;fontFamily=IBM Plex Sans;fontSource=fonts%2FIBMPlexSans-Regular.woff;fontSize=14;" vertex="1" parent="LZxzUFQRepn7Im_rXGNJ-107">
          <mxGeometry x="51" y="8" width="163" height="20" as="geometry" />
        </mxCell>
        <mxCell id="LZxzUFQRepn7Im_rXGNJ-110" value="" style="shape=image;image=data:image/svg+xml,PD94bWwgdmVyc2lvbj0iMS4wIiBlbmNvZGluZz0iVVRGLTgiPz4KPHN2ZyB3aWR0aD0iMjlweCIgaGVpZ2h0PSIyOHB4IiB2aWV3Qm94PSIwIDAgMjkgMjgiIHZlcnNpb249IjEuMSIgeG1sbnM9Imh0dHA6Ly93d3cudzMub3JnLzIwMDAvc3ZnIiB4bWxuczp4bGluaz0iaHR0cDovL3d3dy53My5vcmcvMTk5OS94bGluayI+CiAgICA8IS0tIEdlbmVyYXRvcjogU2tldGNoIDUzICg3MjUyMCkgLSBodHRwczovL3NrZXRjaGFwcC5jb20gLS0+CiAgICA8dGl0bGU+SUJNIFZQQyBCbGFjazwvdGl0bGU+CiAgICA8ZGVzYz5DcmVhdGVkIHdpdGggU2tldGNoLjwvZGVzYz4KICAgIDxnIGlkPSJQYWdlLTEiIHN0cm9rZT0ibm9uZSIgc3Ryb2tlLXdpZHRoPSIxIiBmaWxsPSJub25lIiBmaWxsLXJ1bGU9ImV2ZW5vZGQiPgogICAgICAgIDxnIGlkPSJJQk0tVlBDLUJsYWNrIiB0cmFuc2Zvcm09InRyYW5zbGF0ZSgwLjc1MDAwMCwgLTEuMDAwMDAwKSIgZmlsbD0iIzAwMDAwMCI+CiAgICAgICAgICAgIDxwYXRoIGQ9Ik0wLjAwMDksMS4wMDAyIEwwLjAwMDksOS4wMDAyIEw2LjU4NjksOS4wMDAyIEwyMC4wMDA5LDIyLjQxNDIgTDIwLjAwMDksMjkuMDAwMiBMMjguMDAwOSwyOS4wMDAyIEwyOC4wMDA5LDIxLjAwMDIgTDIxLjQxNTksMjEuMDAwMiBMOC4wMDA5LDcuNTg1MiBMOC4wMDA5LDEuMDAwMiBMMC4wMDA5LDEuMDAwMiBaIE0yLjAwMDksNy4wMDAyIEw2LjAwMDksNy4wMDAyIEw2LjAwMDksMy4wMDAyIEwyLjAwMDksMy4wMDAyIEwyLjAwMDksNy4wMDAyIFogTTIyLjAwMDksMjcuMDAxMiBMMjYuMDAxOSwyNy4wMDEyIEwyNi4wMDE5LDIzLjAwMDIgTDIyLjAwMDksMjMuMDAwMiBMMjIuMDAwOSwyNy4wMDEyIFoiIGlkPSJGaWxsLTEiPjwvcGF0aD4KICAgICAgICAgICAgPGcgaWQ9Ikdyb3VwLTgiIHRyYW5zZm9ybT0idHJhbnNsYXRlKDAuMDAwMDAwLCAwLjAwMTkwMCkiPgogICAgICAgICAgICAgICAgPGcgaWQ9Ikdyb3VwLTQiIHRyYW5zZm9ybT0idHJhbnNsYXRlKDExLjAwMDAwMCwgMC4wMDAwMDApIj4KICAgICAgICAgICAgICAgICAgICA8cGF0aCBkPSJNMTIuNjQ2Nyw2LjgxNzkgQzExLjU0MjcsNi44MTc5IDEwLjY0NjcsNS45MjI5IDEwLjY0NjcsNC44MTc5IEMxMC42NDY3LDMuNzEzOSAxMS41NDI3LDIuODE3OSAxMi42NDY3LDIuODE3OSBDMTMuNzUwNywyLjgxNzkgMTQuNjQ2NywzLjcxMzkgMTQuNjQ2Nyw0LjgxNzkgQzE0LjY0NTcsNS45MjE5IDEzLjc1MDcsNi44MTY5IDEyLjY0NjcsNi44MTc5IE0xNi43MzM3LDMuNTE4OSBDMTYuMzU2NywyLjQ5ODkgMTUuNTMxNywxLjY2NzkgMTQuNTE1NywxLjI4MDkgQzEyLjEyNzcsMC4zNzA5IDkuNzE3NywxLjc1NTkgOS4xNDI3LDMuOTk3OSBMMC4wMDA3LDMuOTk3OSBMMC4wMDA3LDUuOTk3OSBMOS4xNDI3LDUuOTk3OSBDOS41MDc3LDcuMzk3OSAxMC42MDE3LDguNDkwOSAxMi4wMDA3LDguODU1OSBMMTIuMDAwNywxNy45OTc5IEwxNC4wMDA3LDE3Ljk5NzkgTDE0LjAwMDcsOC44NTU5IEMxNi4yMjk3LDguMjgxOSAxNy42MTE3LDUuODk2OSAxNi43MzM3LDMuNTE4OSIgaWQ9IkZpbGwtMiI+PC9wYXRoPgogICAgICAgICAgICAgICAgPC9nPgogICAgICAgICAgICAgICAgPGcgaWQ9Ikdyb3VwLTciIHRyYW5zZm9ybT0idHJhbnNsYXRlKDAuMDAwMDAwLCAxMS4wMDAwMDApIj4KICAgICAgICAgICAgICAgICAgICA8cGF0aCBkPSJNMy42NDY3LDE1LjgxNzkgQzIuNTQyNywxNS44MTc5IDEuNjQ2NywxNC45MjI5IDEuNjQ2NywxMy44MTc5IEMxLjY0NjcsMTIuNzEzOSAyLjU0MjcsMTEuODE3OSAzLjY0NjcsMTEuODE3OSBDNC43NTA3LDExLjgxNzkgNS42NDY3LDEyLjcxMzkgNS42NDY3LDEzLjgxNzkgQzUuNjQ1NywxNC45MjE5IDQuNzUwNywxNS44MTY5IDMuNjQ2NywxNS44MTc5IEwzLjY0NjcsMTUuODE3OSBaIE0xNy4wMDA3LDEyLjk5NzkgTDcuODU4NywxMi45OTc5IEM3LjQ5MzcsMTEuNTk3OSA2LjQwMDcsMTAuNTA0OSA1LjAwMDcsMTAuMTM5OSBMNS4wMDA3LDAuOTk3OSBMMy4wMDA3LDAuOTk3OSBMMy4wMDA3LDEwLjEzOTkgQzAuNDg3NywxMC43ODQ5IC0wLjg1MTMsMTMuNjgzOSAwLjU5NDcsMTYuMTE5OSBDMS4xNTA3LDE3LjA1NTkgMi4xMTE3LDE3LjcyODkgMy4xODI3LDE3LjkyNjkgQzUuNDAyNywxOC4zMzc5IDcuMzUzNywxNi45Njk5IDcuODU4NywxNC45OTc5IEwxNy4wMDA3LDE0Ljk5NzkgTDE3LjAwMDcsMTIuOTk3OSBaIiBpZD0iRmlsbC01Ij48L3BhdGg+CiAgICAgICAgICAgICAgICA8L2c+CiAgICAgICAgICAgIDwvZz4KICAgICAgICA8L2c+CiAgICA8L2c+Cjwvc3ZnPg==;" vertex="1" parent="LZxzUFQRepn7Im_rXGNJ-107">
          <mxGeometry x="17" y="9.849999999999909" width="24" height="24" as="geometry" />
        </mxCell>
        <mxCell id="LZxzUFQRepn7Im_rXGNJ-111" value="" style="rounded=0;whiteSpace=wrap;html=1;fontFamily=IBM Plex Sans;fontSource=fonts%2FIBMPlexSans-Regular.woff;fontSize=14;fillColor=#f5f5f5;spacingBottom=-28;spacingTop=0;labelPosition=-100;verticalLabelPosition=top;align=center;verticalAlign=bottom;spacingLeft=9;spacing=0;expand=0;recursiveResize=0;spacingRight=0;container=0;collapsible=0;strokeColor=#666666;strokeWidth=2;dashed=1;dashPattern=1 2;fontColor=#333333;" vertex="1" parent="LZxzUFQRepn7Im_rXGNJ-107">
          <mxGeometry x="51" y="48" width="217" height="152" as="geometry">
            <mxRectangle width="670" as="alternateBounds" />
          </mxGeometry>
        </mxCell>
        <mxCell id="LZxzUFQRepn7Im_rXGNJ-112" value="Zone 1" style="text;html=1;strokeColor=none;fillColor=none;align=left;verticalAlign=middle;whiteSpace=wrap;rounded=0;fontFamily=IBM Plex Sans;fontSource=fonts%2FIBMPlexSans-Regular.woff;fontSize=14;" vertex="1" parent="LZxzUFQRepn7Im_rXGNJ-111">
          <mxGeometry x="51" y="8" width="168" height="20" as="geometry" />
        </mxCell>
        <mxCell id="LZxzUFQRepn7Im_rXGNJ-113" value="" style="shape=image;image=data:image/svg+xml,PD94bWwgdmVyc2lvbj0iMS4wIiBlbmNvZGluZz0iVVRGLTgiPz4KPHN2ZyB3aWR0aD0iMjlweCIgaGVpZ2h0PSIyNnB4IiB2aWV3Qm94PSIwIDAgMjkgMjYiIHZlcnNpb249IjEuMSIgeG1sbnM9Imh0dHA6Ly93d3cudzMub3JnLzIwMDAvc3ZnIiB4bWxuczp4bGluaz0iaHR0cDovL3d3dy53My5vcmcvMTk5OS94bGluayI+CiAgICA8IS0tIEdlbmVyYXRvcjogU2tldGNoIDUzICg3MjUyMCkgLSBodHRwczovL3NrZXRjaGFwcC5jb20gLS0+CiAgICA8dGl0bGU+Wm9uZSBCbGFjazwvdGl0bGU+CiAgICA8ZGVzYz5DcmVhdGVkIHdpdGggU2tldGNoLjwvZGVzYz4KICAgIDxnIGlkPSJQYWdlLTEiIHN0cm9rZT0ibm9uZSIgc3Ryb2tlLXdpZHRoPSIxIiBmaWxsPSJub25lIiBmaWxsLXJ1bGU9ImV2ZW5vZGQiPgogICAgICAgIDxnIGlkPSJab25lLUJsYWNrIiB0cmFuc2Zvcm09InRyYW5zbGF0ZSgwLjEyNTAwMCwgMC4wMDAwMDApIiBmaWxsPSIjMDAwMDAwIj4KICAgICAgICAgICAgPGcgaWQ9Ikdyb3VwLTMiPgogICAgICAgICAgICAgICAgPHBhdGggZD0iTTI2LjAwMDEsMjQuMDAwMSBMMjEuMDAwMSwyNC4wMDAxIEwyMS4wMDAxLDIwLjAwMDEgTDIzLjAwMDEsMjAuMDAwMSBMMjMuMDAwMSwxOC4wMDAxIEwyMS4wMDAxLDE4LjAwMDEgTDIxLjAwMDEsMTYuMDAwMSBMMjMuMDAwMSwxNi4wMDAxIEwyMy4wMDAxLDE0LjAwMDEgTDIxLjAwMDEsMTQuMDAwMSBMMjEuMDAwMSwxMi4wMDAxIEwyMy4wMDAxLDEyLjAwMDEgTDIzLjAwMDEsMTAuMDAwMSBMMjEuMDAwMSwxMC4wMDAxIEwyMS4wMDAxLDguMDAwMSBMMjYuMDAwMSw4LjAwMDEgTDI2LjAwMDEsMjQuMDAwMSBaIE05LjAwMDEsMjQuMDAwMSBMMTkuMDAwMSwyNC4wMDAxIEwxOS4wMDAxLDIuMDAwMSBMOS4wMDAxLDIuMDAwMSBMOS4wMDAxLDI0LjAwMDEgWiBNMi4wMDAxLDI0LjAwMDEgTDIuMDAwMSw4LjAwMDEgTDcuMDAwMSw4LjAwMDEgTDcuMDAwMSwxMC4wMDAxIEw1LjAwMDEsMTAuMDAwMSBMNS4wMDAxLDEyLjAwMDEgTDcuMDAwMSwxMi4wMDAxIEw3LjAwMDEsMTQuMDAwMSBMNS4wMDAxLDE0LjAwMDEgTDUuMDAwMSwxNi4wMDAxIEw3LjAwMDEsMTYuMDAwMSBMNy4wMDAxLDE4LjAwMDEgTDUuMDAwMSwxOC4wMDAxIEw1LjAwMDEsMjAuMDAwMSBMNy4wMDAxLDIwLjAwMDEgTDcuMDAwMSwyNC4wMDAxIEwyLjAwMDEsMjQuMDAwMSBaIE0yNi4wMDAxLDYuMDAwMSBMMjEuMDAwMSw2LjAwMDEgTDIxLjAwMDEsMi4wMDAxIEMyMC45OTkxLDAuODk2MSAyMC4xMDQxLDAuMDAxMSAxOS4wMDAxLDAuMDAwMSBMOS4wMDAxLDAuMDAwMSBDNy44OTYxLDAuMDAxMSA3LjAwMTEsMC44OTYxIDcuMDAwMSwyLjAwMDEgTDcuMDAwMSw2LjAwMDEgTDIuMDAwMSw2LjAwMDEgQzAuODk2MSw2LjAwMTEgMC4wMDExLDYuODk2MSAwLjAwMDEsOC4wMDAxIEwwLjAwMDEsMjQuMDAwMSBDMC4wMDExLDI1LjEwNDEgMC44OTYxLDI1Ljk5OTEgMi4wMDAxLDI2LjAwMDEgTDI2LjAwMDEsMjYuMDAwMSBDMjcuMTA0MSwyNS45OTkxIDI3Ljk5OTEsMjUuMTA0MSAyOC4wMDAxLDI0LjAwMDEgTDI4LjAwMDEsOC4wMDAxIEMyNy45OTkxLDYuODk2MSAyNy4xMDQxLDYuMDAxMSAyNi4wMDAxLDYuMDAwMSBMMjYuMDAwMSw2LjAwMDEgWiIgaWQ9IkZpbGwtMSI+PC9wYXRoPgogICAgICAgICAgICA8L2c+CiAgICAgICAgICAgIDxwb2x5Z29uIGlkPSJGaWxsLTQiIHBvaW50cz0iMTIgNiAxNiA2IDE2IDQgMTIgNCI+PC9wb2x5Z29uPgogICAgICAgICAgICA8cG9seWdvbiBpZD0iRmlsbC02IiBwb2ludHM9IjEyIDEwIDE2IDEwIDE2IDggMTIgOCI+PC9wb2x5Z29uPgogICAgICAgICAgICA8cG9seWdvbiBpZD0iRmlsbC03IiBwb2ludHM9IjEyIDE0IDE2IDE0IDE2IDEyIDEyIDEyIj48L3BvbHlnb24+CiAgICAgICAgPC9nPgogICAgPC9nPgo8L3N2Zz4=;" vertex="1" parent="LZxzUFQRepn7Im_rXGNJ-111">
          <mxGeometry x="18" y="12.07" width="24" height="24" as="geometry" />
        </mxCell>
        <mxCell id="LZxzUFQRepn7Im_rXGNJ-114" style="edgeStyle=orthogonalEdgeStyle;rounded=0;orthogonalLoop=1;jettySize=auto;html=1;exitX=0;exitY=0.5;exitDx=0;exitDy=0;entryX=1.009;entryY=0.22;entryDx=0;entryDy=0;entryPerimeter=0;fontFamily=IBM Plex Sans;fontSource=fonts%2FIBMPlexSans-Regular.woff;fontSize=14;startArrow=oval;startFill=1;strokeColor=#198038;" edge="1" parent="LZxzUFQRepn7Im_rXGNJ-111">
          <mxGeometry relative="1" as="geometry" />
        </mxCell>
        <mxCell id="LZxzUFQRepn7Im_rXGNJ-115" value="Public&#xa;Gateway" style="shape=image;verticalLabelPosition=middle;verticalAlign=middle;imageAspect=0;aspect=fixed;image=data:image/svg+xml,PHN2ZyB4bWxuczp4bGluaz0iaHR0cDovL3d3dy53My5vcmcvMTk5OS94bGluayIgeG1sbnM9Imh0dHA6Ly93d3cudzMub3JnLzIwMDAvc3ZnIiB2ZXJzaW9uPSIxLjEiIHZpZXdCb3g9IjAgMCA0OCA0OCIgaGVpZ2h0PSI0OHB4IiB3aWR0aD0iNDhweCI+JiN4YTsgICAgPHRpdGxlPmdhdGV3YXktLXB1YmxpYzwvdGl0bGU+JiN4YTsgICAgPGcgZmlsbC1ydWxlPSJldmVub2RkIiBmaWxsPSJub25lIiBzdHJva2Utd2lkdGg9IjEiIHN0cm9rZT0ibm9uZSIgaWQ9IlYyLUljb25zIj4mI3hhOyAgICAgICAgPGcgdHJhbnNmb3JtPSJ0cmFuc2xhdGUoLTYzNywgLTg2KSIgaWQ9IklCTS9DbG91ZC9OZXR3b3JrIj4mI3hhOyAgICAgICAgICAgIDxnIHRyYW5zZm9ybT0idHJhbnNsYXRlKDYzNywgODYpIiBpZD0iZ2F0ZXdheS0tcHVibGljIj4mI3hhOyAgICAgICAgICAgICAgICA8cmVjdCBoZWlnaHQ9IjQ4IiB3aWR0aD0iNDgiIHk9IjAiIHg9IjAiIGZpbGw9IiMxMTkyRTgiIGlkPSJSZWN0YW5nbGUtQ29weS0xOSIvPiYjeGE7ICAgICAgICAgICAgICAgIDxnIHRyYW5zZm9ybT0idHJhbnNsYXRlKDEyLCAxMikiPiYjeGE7ICAgICAgICAgICAgICAgICAgICA8cGF0aCBmaWxsLXJ1bGU9Im5vbnplcm8iIGZpbGw9IiNGRkZGRkYiIGlkPSJTaGFwZSIgZD0iTTE0LjI1LDEwLjUgTDEwLjUsMTAuNSBMMTAuNSw5IEMxMC41LDguMTcxNTcyODggMTEuMTcxNTcyOSw3LjUgMTIsNy41IEMxMi44Mjg0MjcxLDcuNSAxMy41LDguMTcxNTcyODggMTMuNSw5IEwxNSw5IEMxNSw3LjM0MzE0NTc1IDEzLjY1Njg1NDIsNiAxMiw2IEMxMC4zNDMxNDU4LDYgOSw3LjM0MzE0NTc1IDksOSBMOSwxMC43MDg3MjUgQzguNTM3NDk0NywxMC45NzQ0ODI5IDguMjUxNjczNTIsMTEuNDY2NTgxMiA4LjI1LDEyIEw4LjI1LDE1Ljc1IEM4LjI1MDk1MDYsMTYuNTc4MDMzMSA4LjkyMTk2Njk1LDE3LjI0OTA0OTQgOS43NSwxNy4yNSBMMTQuMjUsMTcuMjUgQzE1LjA3ODAzMzEsMTcuMjQ5MDQ5NCAxNS43NDkwNDk0LDE2LjU3ODAzMzEgMTUuNzUsMTUuNzUgTDE1Ljc1LDEyIEMxNS43NDkwNDk0LDExLjE3MTk2NjkgMTUuMDc4MDMzMSwxMC41MDA5NTA2IDE0LjI1LDEwLjUgWiBNMTQuMjUsMTUuNzUgTDkuNzUsMTUuNzUgTDkuNzUsMTIgTDE0LjI1LDEyIEwxNC4yNSwxNS43NSBaIi8+JiN4YTsgICAgICAgICAgICAgICAgICAgIDxwYXRoIGZpbGwtcnVsZT0ibm9uemVybyIgZmlsbD0iI0ZGRkZGRiIgaWQ9IlNoYXBlIiBkPSJNMjIuODEwNTc1LDEzLjA2MDU3NSBDMjMuMDkxOTE5NCwxMi43NzkzMjYxIDIzLjI0OTk4NSwxMi4zOTc4MTM1IDIzLjI0OTk4NSwxMiBDMjMuMjQ5OTg1LDExLjYwMjE4NjUgMjMuMDkxOTE5NCwxMS4yMjA2NzM5IDIyLjgxMDU3NSwxMC45Mzk0MjUgTDE4LjQ3MDQsNi41OTk0NzUgTDIwLjY0NTg1LDQuNDUyMzc1IEMyMS4zMDU1MTE4LDQuNjE1ODM5NDggMjEuOTkyNzEzOSw0LjMxNTc5MDM4IDIyLjMyMTI0MTQsMy43MjA4NTg0MSBDMjIuNjQ5NzY5LDMuMTI1OTI2NDUgMjIuNTM3NjgwMSwyLjM4NDUwMDY2IDIyLjA0Nzk2OTgsMS45MTMyNzAwNiBDMjEuNTU4MjU5NiwxLjQ0MjAzOTQ2IDIwLjgxMzA3MjUsMS4zNTg1MzkyNiAyMC4yMzEyMTE0LDEuNzA5Njk3NDQgQzE5LjY0OTM1MDMsMi4wNjA4NTU2MiAxOS4zNzU5NDQyLDIuNzU5MDg1NjYgMTkuNTY0NjUsMy40MTE5NzUgTDE3LjQwOTY3NSw1LjUzODYgTDEzLjA2MDU3NSwxLjE4OTQyNSBDMTIuNzc5MzI2MSwwLjkwODA4MDYzMyAxMi4zOTc4MTM1LDAuNzUwMDE0OTgzIDEyLDAuNzUwMDE0OTgzIEMxMS42MDIxODY1LDAuNzUwMDE0OTgzIDExLjIyMDY3MzksMC45MDgwODA2MzMgMTAuOTM5NDI1LDEuMTg5NDI1IEw2LjU5OTQ3NSw1LjUyOTQ1IEw0LjQ1MjYsMy4zNTM3NzUgQzQuNjE1OTcxODYsMi42OTM5OTg2MiA0LjMxNTc1MDI2LDIuMDA2NzYwNjIgMy43MjA2NzEzNCwxLjY3ODMxNTMxIEMzLjEyNTU5MjQzLDEuMzQ5ODcgMi4zODQwOTE1MiwxLjQ2MjE0NDEzIDEuOTEyOTIwNzgsMS45NTIwMzUzMiBDMS40NDE3NTAwNCwyLjQ0MTkyNjUgMS4zNTg0MzczNywzLjE4NzIzNzIyIDEuNzA5ODA3NzIsMy43NjkwNzQwNyBDMi4wNjExNzgwNyw0LjM1MDkxMDkyIDIuNzU5NTg2Myw0LjYyNDE0MTYzIDMuNDEyNSw0LjQzNTIgTDUuNTM4NzUsNi41OTAzMjUgTDEuMTg5NDI1LDEwLjkzOTQyNSBDMC45MDgwODA2MzMsMTEuMjIwNjczOSAwLjc1MDAxNDk4MywxMS42MDIxODY1IDAuNzUwMDE0OTgzLDEyIEMwLjc1MDAxNDk4MywxMi4zOTc4MTM1IDAuOTA4MDgwNjMzLDEyLjc3OTMyNjEgMS4xODk0MjUsMTMuMDYwNTc1IEw1LjUzODYsMTcuNDA5Njc1IEwzLjQxMjUsMTkuNTY0OCBDMi43NjEwNzcwNiwxOS4zNzcyNDU0IDIuMDY0ODc5MzYsMTkuNjUwNDQxNCAxLjcxNDg2MjE2LDIwLjIzMDk3MjYgQzEuMzY0ODQ0OTUsMjAuODExNTAzOSAxLjQ0ODIxOTMzLDIxLjU1NDcyMzkgMS45MTgxNjU3NywyMi4wNDMyNzE3IEMyLjM4ODExMjIxLDIyLjUzMTgxOTUgMy4xMjc1Mzc3NSwyMi42NDM5NjczIDMuNzIxMjEyMjMsMjIuMzE2NzM3NyBDNC4zMTQ4ODY3MSwyMS45ODk1MDgxIDQuNjE0ODg4OCwyMS4zMDQ0MzQ0IDQuNDUyNzUsMjAuNjQ2MjI1IEw2LjU5OTYyNSwxOC40NzA1NSBMMTAuOTM5NTc1LDIyLjgxMDU3NSBDMTEuMjIwODIzOSwyMy4wOTE5MTk0IDExLjYwMjMzNjUsMjMuMjQ5OTg1IDEyLjAwMDE1LDIzLjI0OTk4NSBDMTIuMzk3OTYzNSwyMy4yNDk5ODUgMTIuNzc5NDc2MSwyMy4wOTE5MTk0IDEzLjA2MDcyNSwyMi44MTA1NzUgTDE3LjQwOTgyNSwxOC40NjE0IEwxOS41NjQ4LDIwLjU4ODAyNSBDMTkuMzc3MjUyMywyMS4yMzk1ODc1IDE5LjY1MDU2OTEsMjEuOTM1OTAwNiAyMC4yMzEyNTYxLDIyLjI4NTkxNTYgQzIwLjgxMTk0MzEsMjIuNjM1OTMwNiAyMS41NTUzMDEyLDIyLjU1MjQyODggMjIuMDQzODYxNiwyMi4wODIzMDQ3IEMyMi41MzI0MjE5LDIxLjYxMjE4MDYgMjIuNjQ0NDQyMSwyMC44NzI1ODI0IDIyLjMxNzAxMTgsMjAuMjc4ODY3NyBDMjEuOTg5NTgxNCwxOS42ODUxNTI5IDIxLjMwNDI5MTUsMTkuMzg1MjY2OCAyMC42NDYsMTkuNTQ3NjI1IEwxOC40NzA1NSwxNy40MDA1MjUgTDIyLjgxMDU3NSwxMy4wNjA1NzUgWiBNMTIsMjEuNzUgTDIuMjUsMTIgTDEyLDIuMjUgTDIxLjc1LDEyIEwxMiwyMS43NSBaIi8+JiN4YTsgICAgICAgICAgICAgICAgICAgIDxyZWN0IGhlaWdodD0iMjQiIHdpZHRoPSIyNCIgeT0iMCIgeD0iMCIgaWQ9Il9UcmFuc3BhcmVudF9SZWN0YW5nbGVfIi8+JiN4YTsgICAgICAgICAgICAgICAgPC9nPiYjeGE7ICAgICAgICAgICAgPC9nPiYjeGE7ICAgICAgICA8L2c+JiN4YTsgICAgPC9nPiYjeGE7PC9zdmc+;fontFamily=IBM Plex Sans;fontSize=14;spacingTop=-7;labelPosition=right;align=left;" vertex="1" parent="LZxzUFQRepn7Im_rXGNJ-111">
          <mxGeometry x="187" y="52" width="48" height="48" as="geometry" />
        </mxCell>
        <mxCell id="LZxzUFQRepn7Im_rXGNJ-116" value="toronto&#xa;web 1" style="shape=image;aspect=fixed;image=data:image/svg+xml,PD94bWwgdmVyc2lvbj0iMS4wIiBlbmNvZGluZz0iVVRGLTgiPz4KPHN2ZyB3aWR0aD0iNDhweCIgaGVpZ2h0PSI0OXB4IiB2aWV3Qm94PSIwIDAgNDggNDkiIHZlcnNpb249IjEuMSIgeG1sbnM9Imh0dHA6Ly93d3cudzMub3JnLzIwMDAvc3ZnIiB4bWxuczp4bGluaz0iaHR0cDovL3d3dy53My5vcmcvMTk5OS94bGluayI+CiAgICA8dGl0bGU+VmlydHVhbCBTZXJ2ZXIgQ2xhc3NpYzwvdGl0bGU+CiAgICA8ZyBpZD0iVjItSWNvbnMiIHN0cm9rZT0ibm9uZSIgc3Ryb2tlLXdpZHRoPSIxIiBmaWxsPSJub25lIiBmaWxsLXJ1bGU9ImV2ZW5vZGQiPgogICAgICAgIDxnIGlkPSJJQk0tLy1DbG91ZC0vLUNvbXB1dGUiIHRyYW5zZm9ybT0idHJhbnNsYXRlKC0xMjUzLCAtNDgpIj4KICAgICAgICAgICAgPGcgaWQ9IlZpcnR1YWwtU2VydmVyLUNsYXNzaWMiIHRyYW5zZm9ybT0idHJhbnNsYXRlKDEyNTMsIDQ4LjM0MjEpIj4KICAgICAgICAgICAgICAgIDxwb2x5Z29uIGlkPSJSZWN0YW5nbGUiIGZpbGw9IiMxOTgwMzgiIHBvaW50cz0iMCA0OCA0OCA0OCA0OCAwIDAgMCI+PC9wb2x5Z29uPgogICAgICAgICAgICAgICAgPGcgaWQ9ImlibS1jbG91ZC0tdmlydHVhbC1zZXJ2ZXItdnBjIiB0cmFuc2Zvcm09InRyYW5zbGF0ZSgxMS45OTU4LCAxMS42NTc5KSI+CiAgICAgICAgICAgICAgICAgICAgPGNpcmNsZSBpZD0iT3ZhbCIgZmlsbD0iI0ZGRkZGRiIgZmlsbC1ydWxlPSJub256ZXJvIiBjeD0iNiIgY3k9IjE5LjUiIHI9IjEiPjwvY2lyY2xlPgogICAgICAgICAgICAgICAgICAgIDxwYXRoIGQ9Ik0zLjc1LDIyLjUgTDIwLjI1LDIyLjUgQzIxLjA3NSwyMi41IDIxLjc1LDIxLjgyNSAyMS43NSwyMSBMMjEuNzUsMTggQzIxLjc1LDE3LjE3NSAyMS4wNzUsMTYuNSAyMC4yNSwxNi41IEwzLjc1LDE2LjUgQzIuOTI1LDE2LjUgMi4yNSwxNy4xNzUgMi4yNSwxOCBMMi4yNSwyMSBDMi4yNSwyMS44MjUgMi45MjUsMjIuNSAzLjc1LDIyLjUgWiBNMy43NSwxOCBMMjAuMjUsMTggTDIwLjI1LDIxIEwzLjc1LDIxIEwzLjc1LDE4IFoiIGlkPSJTaGFwZSIgZmlsbD0iI0ZGRkZGRiIgZmlsbC1ydWxlPSJub256ZXJvIj48L3BhdGg+CiAgICAgICAgICAgICAgICAgICAgPHBhdGggZD0iTTE3LjI1LDE1IEw2Ljc1LDE1IEM0LjI2NzUsMTUgMi4yNSwxMi45ODI1IDIuMjUsMTAuNSBDMi4yNSw4LjIxMjUgMy45Njc1LDYuMzE1IDYuMTg3NSw2LjAzNzUgQzYuODQ3NSwzLjQxMjUgOS4yNDc1LDEuNSAxMiwxLjUgQzE0Ljc1MjUsMS41IDE3LjE1MjUsMy40MTI1IDE3LjgxMjUsNi4wMzc1IEMyMC4wMzI1LDYuMzE1IDIxLjc1LDguMjEyNSAyMS43NSwxMC41IEMyMS43NSwxMi45ODI1IDE5LjczMjUsMTUgMTcuMjUsMTUgWiBNNi43MTI1LDcuNSBDNS4wNzc1LDcuNTIyNSAzLjc1LDguODU3NSAzLjc1LDEwLjUgQzMuNzUsMTIuMTU3NSA1LjA5MjUsMTMuNSA2Ljc1LDEzLjUgTDE3LjI1LDEzLjUgQzE4LjkwNzUsMTMuNSAyMC4yNSwxMi4xNTc1IDIwLjI1LDEwLjUgQzIwLjI1LDguODU3NSAxOC45Myw3LjUyMjUgMTcuMjk1LDcuNSBMMTcuMjA1LDcuNTA3NSBMMTYuNTQ1LDcuNTIyNSBMMTYuNDU1LDYuODYyNSBDMTYuMTMyNSw0LjY1NzUgMTQuMjIsMyAxMiwzIEM5Ljc4LDMgNy44Njc1LDQuNjU3NSA3LjU1MjUsNi44NjI1IEw3LjQ2MjUsNy41MjI1IEw2LjcxMjUsNy41IFoiIGlkPSJTaGFwZSIgZmlsbD0iI0ZGRkZGRiIgZmlsbC1ydWxlPSJub256ZXJvIj48L3BhdGg+CiAgICAgICAgICAgICAgICAgICAgPHJlY3QgaWQ9IlJlY3RhbmdsZSIgeD0iMCIgeT0iMCIgd2lkdGg9IjI0IiBoZWlnaHQ9IjI0Ij48L3JlY3Q+CiAgICAgICAgICAgICAgICA8L2c+CiAgICAgICAgICAgIDwvZz4KICAgICAgICA8L2c+CiAgICA8L2c+Cjwvc3ZnPg==;fontFamily=IBM Plex Sans;fontSize=14;labelPosition=center;verticalLabelPosition=bottom;align=center;verticalAlign=top;spacingTop=-6;" vertex="1" parent="LZxzUFQRepn7Im_rXGNJ-111">
          <mxGeometry x="84.5" y="52" width="48" height="48" as="geometry" />
        </mxCell>
        <mxCell id="LZxzUFQRepn7Im_rXGNJ-117" value="" style="rounded=0;whiteSpace=wrap;html=1;fontFamily=IBM Plex Sans;fontSource=fonts%2FIBMPlexSans-Regular.woff;fontSize=14;fillColor=#f5f5f5;spacingBottom=-28;spacingTop=0;labelPosition=-100;verticalLabelPosition=top;align=center;verticalAlign=bottom;spacingLeft=9;spacing=0;expand=0;recursiveResize=0;spacingRight=0;container=0;collapsible=0;strokeColor=#666666;strokeWidth=2;dashed=1;dashPattern=1 2;fontColor=#333333;" vertex="1" parent="LZxzUFQRepn7Im_rXGNJ-107">
          <mxGeometry x="51" y="230" width="217" height="154" as="geometry">
            <mxRectangle width="670" as="alternateBounds" />
          </mxGeometry>
        </mxCell>
        <mxCell id="LZxzUFQRepn7Im_rXGNJ-118" value="Zone 2" style="text;html=1;strokeColor=none;fillColor=none;align=left;verticalAlign=middle;whiteSpace=wrap;rounded=0;fontFamily=IBM Plex Sans;fontSource=fonts%2FIBMPlexSans-Regular.woff;fontSize=14;" vertex="1" parent="LZxzUFQRepn7Im_rXGNJ-117">
          <mxGeometry x="51" y="8" width="168" height="20" as="geometry" />
        </mxCell>
        <mxCell id="LZxzUFQRepn7Im_rXGNJ-119" value="" style="shape=image;image=data:image/svg+xml,PD94bWwgdmVyc2lvbj0iMS4wIiBlbmNvZGluZz0iVVRGLTgiPz4KPHN2ZyB3aWR0aD0iMjlweCIgaGVpZ2h0PSIyNnB4IiB2aWV3Qm94PSIwIDAgMjkgMjYiIHZlcnNpb249IjEuMSIgeG1sbnM9Imh0dHA6Ly93d3cudzMub3JnLzIwMDAvc3ZnIiB4bWxuczp4bGluaz0iaHR0cDovL3d3dy53My5vcmcvMTk5OS94bGluayI+CiAgICA8IS0tIEdlbmVyYXRvcjogU2tldGNoIDUzICg3MjUyMCkgLSBodHRwczovL3NrZXRjaGFwcC5jb20gLS0+CiAgICA8dGl0bGU+Wm9uZSBCbGFjazwvdGl0bGU+CiAgICA8ZGVzYz5DcmVhdGVkIHdpdGggU2tldGNoLjwvZGVzYz4KICAgIDxnIGlkPSJQYWdlLTEiIHN0cm9rZT0ibm9uZSIgc3Ryb2tlLXdpZHRoPSIxIiBmaWxsPSJub25lIiBmaWxsLXJ1bGU9ImV2ZW5vZGQiPgogICAgICAgIDxnIGlkPSJab25lLUJsYWNrIiB0cmFuc2Zvcm09InRyYW5zbGF0ZSgwLjEyNTAwMCwgMC4wMDAwMDApIiBmaWxsPSIjMDAwMDAwIj4KICAgICAgICAgICAgPGcgaWQ9Ikdyb3VwLTMiPgogICAgICAgICAgICAgICAgPHBhdGggZD0iTTI2LjAwMDEsMjQuMDAwMSBMMjEuMDAwMSwyNC4wMDAxIEwyMS4wMDAxLDIwLjAwMDEgTDIzLjAwMDEsMjAuMDAwMSBMMjMuMDAwMSwxOC4wMDAxIEwyMS4wMDAxLDE4LjAwMDEgTDIxLjAwMDEsMTYuMDAwMSBMMjMuMDAwMSwxNi4wMDAxIEwyMy4wMDAxLDE0LjAwMDEgTDIxLjAwMDEsMTQuMDAwMSBMMjEuMDAwMSwxMi4wMDAxIEwyMy4wMDAxLDEyLjAwMDEgTDIzLjAwMDEsMTAuMDAwMSBMMjEuMDAwMSwxMC4wMDAxIEwyMS4wMDAxLDguMDAwMSBMMjYuMDAwMSw4LjAwMDEgTDI2LjAwMDEsMjQuMDAwMSBaIE05LjAwMDEsMjQuMDAwMSBMMTkuMDAwMSwyNC4wMDAxIEwxOS4wMDAxLDIuMDAwMSBMOS4wMDAxLDIuMDAwMSBMOS4wMDAxLDI0LjAwMDEgWiBNMi4wMDAxLDI0LjAwMDEgTDIuMDAwMSw4LjAwMDEgTDcuMDAwMSw4LjAwMDEgTDcuMDAwMSwxMC4wMDAxIEw1LjAwMDEsMTAuMDAwMSBMNS4wMDAxLDEyLjAwMDEgTDcuMDAwMSwxMi4wMDAxIEw3LjAwMDEsMTQuMDAwMSBMNS4wMDAxLDE0LjAwMDEgTDUuMDAwMSwxNi4wMDAxIEw3LjAwMDEsMTYuMDAwMSBMNy4wMDAxLDE4LjAwMDEgTDUuMDAwMSwxOC4wMDAxIEw1LjAwMDEsMjAuMDAwMSBMNy4wMDAxLDIwLjAwMDEgTDcuMDAwMSwyNC4wMDAxIEwyLjAwMDEsMjQuMDAwMSBaIE0yNi4wMDAxLDYuMDAwMSBMMjEuMDAwMSw2LjAwMDEgTDIxLjAwMDEsMi4wMDAxIEMyMC45OTkxLDAuODk2MSAyMC4xMDQxLDAuMDAxMSAxOS4wMDAxLDAuMDAwMSBMOS4wMDAxLDAuMDAwMSBDNy44OTYxLDAuMDAxMSA3LjAwMTEsMC44OTYxIDcuMDAwMSwyLjAwMDEgTDcuMDAwMSw2LjAwMDEgTDIuMDAwMSw2LjAwMDEgQzAuODk2MSw2LjAwMTEgMC4wMDExLDYuODk2MSAwLjAwMDEsOC4wMDAxIEwwLjAwMDEsMjQuMDAwMSBDMC4wMDExLDI1LjEwNDEgMC44OTYxLDI1Ljk5OTEgMi4wMDAxLDI2LjAwMDEgTDI2LjAwMDEsMjYuMDAwMSBDMjcuMTA0MSwyNS45OTkxIDI3Ljk5OTEsMjUuMTA0MSAyOC4wMDAxLDI0LjAwMDEgTDI4LjAwMDEsOC4wMDAxIEMyNy45OTkxLDYuODk2MSAyNy4xMDQxLDYuMDAxMSAyNi4wMDAxLDYuMDAwMSBMMjYuMDAwMSw2LjAwMDEgWiIgaWQ9IkZpbGwtMSI+PC9wYXRoPgogICAgICAgICAgICA8L2c+CiAgICAgICAgICAgIDxwb2x5Z29uIGlkPSJGaWxsLTQiIHBvaW50cz0iMTIgNiAxNiA2IDE2IDQgMTIgNCI+PC9wb2x5Z29uPgogICAgICAgICAgICA8cG9seWdvbiBpZD0iRmlsbC02IiBwb2ludHM9IjEyIDEwIDE2IDEwIDE2IDggMTIgOCI+PC9wb2x5Z29uPgogICAgICAgICAgICA8cG9seWdvbiBpZD0iRmlsbC03IiBwb2ludHM9IjEyIDE0IDE2IDE0IDE2IDEyIDEyIDEyIj48L3BvbHlnb24+CiAgICAgICAgPC9nPgogICAgPC9nPgo8L3N2Zz4=;" vertex="1" parent="LZxzUFQRepn7Im_rXGNJ-117">
          <mxGeometry x="18" y="12.07" width="24" height="24" as="geometry" />
        </mxCell>
        <mxCell id="LZxzUFQRepn7Im_rXGNJ-120" style="edgeStyle=orthogonalEdgeStyle;rounded=0;orthogonalLoop=1;jettySize=auto;html=1;exitX=0;exitY=0.5;exitDx=0;exitDy=0;entryX=1.009;entryY=0.22;entryDx=0;entryDy=0;entryPerimeter=0;fontFamily=IBM Plex Sans;fontSource=fonts%2FIBMPlexSans-Regular.woff;fontSize=14;startArrow=oval;startFill=1;strokeColor=#198038;" edge="1" parent="LZxzUFQRepn7Im_rXGNJ-117">
          <mxGeometry relative="1" as="geometry" />
        </mxCell>
        <mxCell id="LZxzUFQRepn7Im_rXGNJ-121" value="Public&#xa;Gateway" style="shape=image;verticalLabelPosition=middle;verticalAlign=middle;imageAspect=0;aspect=fixed;image=data:image/svg+xml,PHN2ZyB4bWxuczp4bGluaz0iaHR0cDovL3d3dy53My5vcmcvMTk5OS94bGluayIgeG1sbnM9Imh0dHA6Ly93d3cudzMub3JnLzIwMDAvc3ZnIiB2ZXJzaW9uPSIxLjEiIHZpZXdCb3g9IjAgMCA0OCA0OCIgaGVpZ2h0PSI0OHB4IiB3aWR0aD0iNDhweCI+JiN4YTsgICAgPHRpdGxlPmdhdGV3YXktLXB1YmxpYzwvdGl0bGU+JiN4YTsgICAgPGcgZmlsbC1ydWxlPSJldmVub2RkIiBmaWxsPSJub25lIiBzdHJva2Utd2lkdGg9IjEiIHN0cm9rZT0ibm9uZSIgaWQ9IlYyLUljb25zIj4mI3hhOyAgICAgICAgPGcgdHJhbnNmb3JtPSJ0cmFuc2xhdGUoLTYzNywgLTg2KSIgaWQ9IklCTS9DbG91ZC9OZXR3b3JrIj4mI3hhOyAgICAgICAgICAgIDxnIHRyYW5zZm9ybT0idHJhbnNsYXRlKDYzNywgODYpIiBpZD0iZ2F0ZXdheS0tcHVibGljIj4mI3hhOyAgICAgICAgICAgICAgICA8cmVjdCBoZWlnaHQ9IjQ4IiB3aWR0aD0iNDgiIHk9IjAiIHg9IjAiIGZpbGw9IiMxMTkyRTgiIGlkPSJSZWN0YW5nbGUtQ29weS0xOSIvPiYjeGE7ICAgICAgICAgICAgICAgIDxnIHRyYW5zZm9ybT0idHJhbnNsYXRlKDEyLCAxMikiPiYjeGE7ICAgICAgICAgICAgICAgICAgICA8cGF0aCBmaWxsLXJ1bGU9Im5vbnplcm8iIGZpbGw9IiNGRkZGRkYiIGlkPSJTaGFwZSIgZD0iTTE0LjI1LDEwLjUgTDEwLjUsMTAuNSBMMTAuNSw5IEMxMC41LDguMTcxNTcyODggMTEuMTcxNTcyOSw3LjUgMTIsNy41IEMxMi44Mjg0MjcxLDcuNSAxMy41LDguMTcxNTcyODggMTMuNSw5IEwxNSw5IEMxNSw3LjM0MzE0NTc1IDEzLjY1Njg1NDIsNiAxMiw2IEMxMC4zNDMxNDU4LDYgOSw3LjM0MzE0NTc1IDksOSBMOSwxMC43MDg3MjUgQzguNTM3NDk0NywxMC45NzQ0ODI5IDguMjUxNjczNTIsMTEuNDY2NTgxMiA4LjI1LDEyIEw4LjI1LDE1Ljc1IEM4LjI1MDk1MDYsMTYuNTc4MDMzMSA4LjkyMTk2Njk1LDE3LjI0OTA0OTQgOS43NSwxNy4yNSBMMTQuMjUsMTcuMjUgQzE1LjA3ODAzMzEsMTcuMjQ5MDQ5NCAxNS43NDkwNDk0LDE2LjU3ODAzMzEgMTUuNzUsMTUuNzUgTDE1Ljc1LDEyIEMxNS43NDkwNDk0LDExLjE3MTk2NjkgMTUuMDc4MDMzMSwxMC41MDA5NTA2IDE0LjI1LDEwLjUgWiBNMTQuMjUsMTUuNzUgTDkuNzUsMTUuNzUgTDkuNzUsMTIgTDE0LjI1LDEyIEwxNC4yNSwxNS43NSBaIi8+JiN4YTsgICAgICAgICAgICAgICAgICAgIDxwYXRoIGZpbGwtcnVsZT0ibm9uemVybyIgZmlsbD0iI0ZGRkZGRiIgaWQ9IlNoYXBlIiBkPSJNMjIuODEwNTc1LDEzLjA2MDU3NSBDMjMuMDkxOTE5NCwxMi43NzkzMjYxIDIzLjI0OTk4NSwxMi4zOTc4MTM1IDIzLjI0OTk4NSwxMiBDMjMuMjQ5OTg1LDExLjYwMjE4NjUgMjMuMDkxOTE5NCwxMS4yMjA2NzM5IDIyLjgxMDU3NSwxMC45Mzk0MjUgTDE4LjQ3MDQsNi41OTk0NzUgTDIwLjY0NTg1LDQuNDUyMzc1IEMyMS4zMDU1MTE4LDQuNjE1ODM5NDggMjEuOTkyNzEzOSw0LjMxNTc5MDM4IDIyLjMyMTI0MTQsMy43MjA4NTg0MSBDMjIuNjQ5NzY5LDMuMTI1OTI2NDUgMjIuNTM3NjgwMSwyLjM4NDUwMDY2IDIyLjA0Nzk2OTgsMS45MTMyNzAwNiBDMjEuNTU4MjU5NiwxLjQ0MjAzOTQ2IDIwLjgxMzA3MjUsMS4zNTg1MzkyNiAyMC4yMzEyMTE0LDEuNzA5Njk3NDQgQzE5LjY0OTM1MDMsMi4wNjA4NTU2MiAxOS4zNzU5NDQyLDIuNzU5MDg1NjYgMTkuNTY0NjUsMy40MTE5NzUgTDE3LjQwOTY3NSw1LjUzODYgTDEzLjA2MDU3NSwxLjE4OTQyNSBDMTIuNzc5MzI2MSwwLjkwODA4MDYzMyAxMi4zOTc4MTM1LDAuNzUwMDE0OTgzIDEyLDAuNzUwMDE0OTgzIEMxMS42MDIxODY1LDAuNzUwMDE0OTgzIDExLjIyMDY3MzksMC45MDgwODA2MzMgMTAuOTM5NDI1LDEuMTg5NDI1IEw2LjU5OTQ3NSw1LjUyOTQ1IEw0LjQ1MjYsMy4zNTM3NzUgQzQuNjE1OTcxODYsMi42OTM5OTg2MiA0LjMxNTc1MDI2LDIuMDA2NzYwNjIgMy43MjA2NzEzNCwxLjY3ODMxNTMxIEMzLjEyNTU5MjQzLDEuMzQ5ODcgMi4zODQwOTE1MiwxLjQ2MjE0NDEzIDEuOTEyOTIwNzgsMS45NTIwMzUzMiBDMS40NDE3NTAwNCwyLjQ0MTkyNjUgMS4zNTg0MzczNywzLjE4NzIzNzIyIDEuNzA5ODA3NzIsMy43NjkwNzQwNyBDMi4wNjExNzgwNyw0LjM1MDkxMDkyIDIuNzU5NTg2Myw0LjYyNDE0MTYzIDMuNDEyNSw0LjQzNTIgTDUuNTM4NzUsNi41OTAzMjUgTDEuMTg5NDI1LDEwLjkzOTQyNSBDMC45MDgwODA2MzMsMTEuMjIwNjczOSAwLjc1MDAxNDk4MywxMS42MDIxODY1IDAuNzUwMDE0OTgzLDEyIEMwLjc1MDAxNDk4MywxMi4zOTc4MTM1IDAuOTA4MDgwNjMzLDEyLjc3OTMyNjEgMS4xODk0MjUsMTMuMDYwNTc1IEw1LjUzODYsMTcuNDA5Njc1IEwzLjQxMjUsMTkuNTY0OCBDMi43NjEwNzcwNiwxOS4zNzcyNDU0IDIuMDY0ODc5MzYsMTkuNjUwNDQxNCAxLjcxNDg2MjE2LDIwLjIzMDk3MjYgQzEuMzY0ODQ0OTUsMjAuODExNTAzOSAxLjQ0ODIxOTMzLDIxLjU1NDcyMzkgMS45MTgxNjU3NywyMi4wNDMyNzE3IEMyLjM4ODExMjIxLDIyLjUzMTgxOTUgMy4xMjc1Mzc3NSwyMi42NDM5NjczIDMuNzIxMjEyMjMsMjIuMzE2NzM3NyBDNC4zMTQ4ODY3MSwyMS45ODk1MDgxIDQuNjE0ODg4OCwyMS4zMDQ0MzQ0IDQuNDUyNzUsMjAuNjQ2MjI1IEw2LjU5OTYyNSwxOC40NzA1NSBMMTAuOTM5NTc1LDIyLjgxMDU3NSBDMTEuMjIwODIzOSwyMy4wOTE5MTk0IDExLjYwMjMzNjUsMjMuMjQ5OTg1IDEyLjAwMDE1LDIzLjI0OTk4NSBDMTIuMzk3OTYzNSwyMy4yNDk5ODUgMTIuNzc5NDc2MSwyMy4wOTE5MTk0IDEzLjA2MDcyNSwyMi44MTA1NzUgTDE3LjQwOTgyNSwxOC40NjE0IEwxOS41NjQ4LDIwLjU4ODAyNSBDMTkuMzc3MjUyMywyMS4yMzk1ODc1IDE5LjY1MDU2OTEsMjEuOTM1OTAwNiAyMC4yMzEyNTYxLDIyLjI4NTkxNTYgQzIwLjgxMTk0MzEsMjIuNjM1OTMwNiAyMS41NTUzMDEyLDIyLjU1MjQyODggMjIuMDQzODYxNiwyMi4wODIzMDQ3IEMyMi41MzI0MjE5LDIxLjYxMjE4MDYgMjIuNjQ0NDQyMSwyMC44NzI1ODI0IDIyLjMxNzAxMTgsMjAuMjc4ODY3NyBDMjEuOTg5NTgxNCwxOS42ODUxNTI5IDIxLjMwNDI5MTUsMTkuMzg1MjY2OCAyMC42NDYsMTkuNTQ3NjI1IEwxOC40NzA1NSwxNy40MDA1MjUgTDIyLjgxMDU3NSwxMy4wNjA1NzUgWiBNMTIsMjEuNzUgTDIuMjUsMTIgTDEyLDIuMjUgTDIxLjc1LDEyIEwxMiwyMS43NSBaIi8+JiN4YTsgICAgICAgICAgICAgICAgICAgIDxyZWN0IGhlaWdodD0iMjQiIHdpZHRoPSIyNCIgeT0iMCIgeD0iMCIgaWQ9Il9UcmFuc3BhcmVudF9SZWN0YW5nbGVfIi8+JiN4YTsgICAgICAgICAgICAgICAgPC9nPiYjeGE7ICAgICAgICAgICAgPC9nPiYjeGE7ICAgICAgICA8L2c+JiN4YTsgICAgPC9nPiYjeGE7PC9zdmc+;fontFamily=IBM Plex Sans;fontSize=14;spacingTop=-7;labelPosition=right;align=left;" vertex="1" parent="LZxzUFQRepn7Im_rXGNJ-117">
          <mxGeometry x="187" y="53" width="48" height="48" as="geometry" />
        </mxCell>
        <mxCell id="LZxzUFQRepn7Im_rXGNJ-122" value="qa-dev-box" style="shape=image;aspect=fixed;image=data:image/svg+xml,PD94bWwgdmVyc2lvbj0iMS4wIiBlbmNvZGluZz0iVVRGLTgiPz4KPHN2ZyB3aWR0aD0iNDhweCIgaGVpZ2h0PSI0OXB4IiB2aWV3Qm94PSIwIDAgNDggNDkiIHZlcnNpb249IjEuMSIgeG1sbnM9Imh0dHA6Ly93d3cudzMub3JnLzIwMDAvc3ZnIiB4bWxuczp4bGluaz0iaHR0cDovL3d3dy53My5vcmcvMTk5OS94bGluayI+CiAgICA8dGl0bGU+VmlydHVhbCBTZXJ2ZXIgQ2xhc3NpYzwvdGl0bGU+CiAgICA8ZyBpZD0iVjItSWNvbnMiIHN0cm9rZT0ibm9uZSIgc3Ryb2tlLXdpZHRoPSIxIiBmaWxsPSJub25lIiBmaWxsLXJ1bGU9ImV2ZW5vZGQiPgogICAgICAgIDxnIGlkPSJJQk0tLy1DbG91ZC0vLUNvbXB1dGUiIHRyYW5zZm9ybT0idHJhbnNsYXRlKC0xMjUzLCAtNDgpIj4KICAgICAgICAgICAgPGcgaWQ9IlZpcnR1YWwtU2VydmVyLUNsYXNzaWMiIHRyYW5zZm9ybT0idHJhbnNsYXRlKDEyNTMsIDQ4LjM0MjEpIj4KICAgICAgICAgICAgICAgIDxwb2x5Z29uIGlkPSJSZWN0YW5nbGUiIGZpbGw9IiMxOTgwMzgiIHBvaW50cz0iMCA0OCA0OCA0OCA0OCAwIDAgMCI+PC9wb2x5Z29uPgogICAgICAgICAgICAgICAgPGcgaWQ9ImlibS1jbG91ZC0tdmlydHVhbC1zZXJ2ZXItdnBjIiB0cmFuc2Zvcm09InRyYW5zbGF0ZSgxMS45OTU4LCAxMS42NTc5KSI+CiAgICAgICAgICAgICAgICAgICAgPGNpcmNsZSBpZD0iT3ZhbCIgZmlsbD0iI0ZGRkZGRiIgZmlsbC1ydWxlPSJub256ZXJvIiBjeD0iNiIgY3k9IjE5LjUiIHI9IjEiPjwvY2lyY2xlPgogICAgICAgICAgICAgICAgICAgIDxwYXRoIGQ9Ik0zLjc1LDIyLjUgTDIwLjI1LDIyLjUgQzIxLjA3NSwyMi41IDIxLjc1LDIxLjgyNSAyMS43NSwyMSBMMjEuNzUsMTggQzIxLjc1LDE3LjE3NSAyMS4wNzUsMTYuNSAyMC4yNSwxNi41IEwzLjc1LDE2LjUgQzIuOTI1LDE2LjUgMi4yNSwxNy4xNzUgMi4yNSwxOCBMMi4yNSwyMSBDMi4yNSwyMS44MjUgMi45MjUsMjIuNSAzLjc1LDIyLjUgWiBNMy43NSwxOCBMMjAuMjUsMTggTDIwLjI1LDIxIEwzLjc1LDIxIEwzLjc1LDE4IFoiIGlkPSJTaGFwZSIgZmlsbD0iI0ZGRkZGRiIgZmlsbC1ydWxlPSJub256ZXJvIj48L3BhdGg+CiAgICAgICAgICAgICAgICAgICAgPHBhdGggZD0iTTE3LjI1LDE1IEw2Ljc1LDE1IEM0LjI2NzUsMTUgMi4yNSwxMi45ODI1IDIuMjUsMTAuNSBDMi4yNSw4LjIxMjUgMy45Njc1LDYuMzE1IDYuMTg3NSw2LjAzNzUgQzYuODQ3NSwzLjQxMjUgOS4yNDc1LDEuNSAxMiwxLjUgQzE0Ljc1MjUsMS41IDE3LjE1MjUsMy40MTI1IDE3LjgxMjUsNi4wMzc1IEMyMC4wMzI1LDYuMzE1IDIxLjc1LDguMjEyNSAyMS43NSwxMC41IEMyMS43NSwxMi45ODI1IDE5LjczMjUsMTUgMTcuMjUsMTUgWiBNNi43MTI1LDcuNSBDNS4wNzc1LDcuNTIyNSAzLjc1LDguODU3NSAzLjc1LDEwLjUgQzMuNzUsMTIuMTU3NSA1LjA5MjUsMTMuNSA2Ljc1LDEzLjUgTDE3LjI1LDEzLjUgQzE4LjkwNzUsMTMuNSAyMC4yNSwxMi4xNTc1IDIwLjI1LDEwLjUgQzIwLjI1LDguODU3NSAxOC45Myw3LjUyMjUgMTcuMjk1LDcuNSBMMTcuMjA1LDcuNTA3NSBMMTYuNTQ1LDcuNTIyNSBMMTYuNDU1LDYuODYyNSBDMTYuMTMyNSw0LjY1NzUgMTQuMjIsMyAxMiwzIEM5Ljc4LDMgNy44Njc1LDQuNjU3NSA3LjU1MjUsNi44NjI1IEw3LjQ2MjUsNy41MjI1IEw2LjcxMjUsNy41IFoiIGlkPSJTaGFwZSIgZmlsbD0iI0ZGRkZGRiIgZmlsbC1ydWxlPSJub256ZXJvIj48L3BhdGg+CiAgICAgICAgICAgICAgICAgICAgPHJlY3QgaWQ9IlJlY3RhbmdsZSIgeD0iMCIgeT0iMCIgd2lkdGg9IjI0IiBoZWlnaHQ9IjI0Ij48L3JlY3Q+CiAgICAgICAgICAgICAgICA8L2c+CiAgICAgICAgICAgIDwvZz4KICAgICAgICA8L2c+CiAgICA8L2c+Cjwvc3ZnPg==;fontFamily=IBM Plex Sans;fontSize=14;labelPosition=center;verticalLabelPosition=bottom;align=center;verticalAlign=top;spacingTop=-6;" vertex="1" parent="LZxzUFQRepn7Im_rXGNJ-117">
          <mxGeometry x="84.5" y="52" width="48" height="48" as="geometry" />
        </mxCell>
        <mxCell id="LZxzUFQRepn7Im_rXGNJ-123" value="Flow&#xa;Logs" style="shape=image;aspect=fixed;image=data:image/svg+xml,PD94bWwgdmVyc2lvbj0iMS4wIiBlbmNvZGluZz0iVVRGLTgiPz4KPHN2ZyB3aWR0aD0iNDhweCIgaGVpZ2h0PSI0OHB4IiB2aWV3Qm94PSIwIDAgNDggNDgiIHZlcnNpb249IjEuMSIgeG1sbnM9Imh0dHA6Ly93d3cudzMub3JnLzIwMDAvc3ZnIiB4bWxuczp4bGluaz0iaHR0cDovL3d3dy53My5vcmcvMTk5OS94bGluayI+CiAgICA8dGl0bGU+Zmxvdy1sb2dzLXZwYzwvdGl0bGU+CiAgICA8ZyBpZD0iVjItSWNvbnMiIHN0cm9rZT0ibm9uZSIgc3Ryb2tlLXdpZHRoPSIxIiBmaWxsPSJub25lIiBmaWxsLXJ1bGU9ImV2ZW5vZGQiPgogICAgICAgIDxnIGlkPSJJQk0tQ2xvdWQtLy1PYnNlcnZhYmlsaXR5IiB0cmFuc2Zvcm09InRyYW5zbGF0ZSgtNTYwLCAtNDgpIj4KICAgICAgICAgICAgPGcgaWQ9ImZsb3ctbG9ncy12cGMiIHRyYW5zZm9ybT0idHJhbnNsYXRlKDU2MCwgNDgpIj4KICAgICAgICAgICAgICAgIDxyZWN0IGlkPSJSZWN0YW5nbGUtQ29weS0yOCIgZmlsbD0iIzAwOUQ5QSIgeD0iMCIgeT0iMCIgd2lkdGg9IjQ4IiBoZWlnaHQ9IjQ4Ij48L3JlY3Q+CiAgICAgICAgICAgICAgICA8ZyBpZD0iZmxvdy1sb2dzLXZwYygxKSIgdHJhbnNmb3JtPSJ0cmFuc2xhdGUoMTIsIDEyKSI+CiAgICAgICAgICAgICAgICAgICAgPHJlY3QgaWQ9IlJlY3RhbmdsZSIgZmlsbD0iI0ZGRkZGRiIgZmlsbC1ydWxlPSJub256ZXJvIiB4PSIxMy41IiB5PSIxNC4yNSIgd2lkdGg9IjkiIGhlaWdodD0iMS41Ij48L3JlY3Q+CiAgICAgICAgICAgICAgICAgICAgPHJlY3QgaWQ9IlJlY3RhbmdsZSIgZmlsbD0iI0ZGRkZGRiIgZmlsbC1ydWxlPSJub256ZXJvIiB4PSIxMy41IiB5PSIxNy4yNSIgd2lkdGg9IjkiIGhlaWdodD0iMS41Ij48L3JlY3Q+CiAgICAgICAgICAgICAgICAgICAgPHJlY3QgaWQ9IlJlY3RhbmdsZSIgZmlsbD0iI0ZGRkZGRiIgZmlsbC1ydWxlPSJub256ZXJvIiB4PSIxMy41IiB5PSIyMC4yNSIgd2lkdGg9IjYiIGhlaWdodD0iMS41Ij48L3JlY3Q+CiAgICAgICAgICAgICAgICAgICAgPHBhdGggZD0iTTE4LDMgQzE2LjYzNTg3NDMsMy4wMDQxNDUyOCAxNS40NDY2Mjg4LDMuOTI4OTMyNDcgMTUuMTA2NTc1LDUuMjUgTDksNS4yNSBMOSwzIEwzLDMgTDMsOSBMOSw5IEw5LDYuNzUgTDE1LjEwNjU3NSw2Ljc1IEMxNS4xNzYzODA5LDcuMDE4NDQwMDEgMTUuMjgzNjMzNiw3LjI3NTcxNTAzIDE1LjQyNTE3NSw3LjUxNDI1IEw3LjUxNDI1LDE1LjQyNTE3NSBDNy4wNTY5OTY4NiwxNS4xNDk2NzYzIDYuNTMzODI3OTEsMTUuMDAyNzc5NiA2LDE1IEM0LjQzOTU1MTE4LDE0Ljk5NDExODYgMy4xMzUxNTk2OCwxNi4xODU0ODYzIDIuOTk5OTcyMTUsMTcuNzQwMDc5MyBDMi44NjQ3ODQ2MSwxOS4yOTQ2NzIzIDMuOTQzOTQ4NjgsMjAuNjkzMzE0MSA1LjQ4MTk4OTQ0LDIwLjk1Njg3NzcgQzcuMDIwMDMwMiwyMS4yMjA0NDEyIDguNTAzMjk4OTQsMjAuMjYwOTA1OSA4Ljg5MzQyNSwxOC43NSBMMTIsMTguNzUgTDEyLDE3LjI1IEw4Ljg5MzQyNSwxNy4yNSBDOC44MjM2MTkwNiwxNi45ODE1NiA4LjcxNjM2NjQzLDE2LjcyNDI4NSA4LjU3NDgyNSwxNi40ODU3NSBMMTYuNDg1NzUsOC41NzQ4MjUgQzE2Ljk0MzAwMzEsOC44NTAzMjM2OSAxNy40NjYxNzIxLDguOTk3MjIwNDEgMTgsOSBDMTkuNjU2ODU0Miw5IDIxLDcuNjU2ODU0MjUgMjEsNiBDMjEsNC4zNDMxNDU3NSAxOS42NTY4NTQyLDMgMTgsMyBaIE03LjUsNy41IEw0LjUsNy41IEw0LjUsNC41IEw3LjUsNC41IEw3LjUsNy41IFogTTYsMTkuNSBDNS4xNzE1NzI4OCwxOS41IDQuNSwxOC44Mjg0MjcxIDQuNSwxOCBDNC41LDE3LjE3MTU3MjkgNS4xNzE1NzI4OCwxNi41IDYsMTYuNSBDNi44Mjg0MjcxMiwxNi41IDcuNSwxNy4xNzE1NzI5IDcuNSwxOCBDNy40OTkwNDk0LDE4LjgyODAzMzEgNi44MjgwMzMwNSwxOS40OTkwNDk0IDYsMTkuNSBaIE0xOCw3LjUgQzE3LjE3MTU3MjksNy41IDE2LjUsNi44Mjg0MjcxMiAxNi41LDYgQzE2LjUsNS4xNzE1NzI4OCAxNy4xNzE1NzI5LDQuNSAxOCw0LjUgQzE4LjgyODQyNzEsNC41IDE5LjUsNS4xNzE1NzI4OCAxOS41LDYgQzE5LjQ5OTA0OTQsNi44MjgwMzMwNSAxOC44MjgwMzMxLDcuNDk5MDQ5NCAxOCw3LjUgTDE4LDcuNSBaIiBpZD0iU2hhcGUiIGZpbGw9IiNGRkZGRkYiIGZpbGwtcnVsZT0ibm9uemVybyI+PC9wYXRoPgogICAgICAgICAgICAgICAgICAgIDxyZWN0IGlkPSJfVHJhbnNwYXJlbnRfUmVjdGFuZ2xlXyIgeD0iMCIgeT0iMCIgd2lkdGg9IjI0IiBoZWlnaHQ9IjI0Ij48L3JlY3Q+CiAgICAgICAgICAgICAgICA8L2c+CiAgICAgICAgICAgIDwvZz4KICAgICAgICA8L2c+CiAgICA8L2c+Cjwvc3ZnPg==;fontFamily=IBM Plex Sans;fontSize=14;spacingTop=-7;labelPosition=left;verticalLabelPosition=middle;align=right;verticalAlign=middle;" vertex="1" parent="LZxzUFQRepn7Im_rXGNJ-107">
          <mxGeometry x="346.34000000000003" y="352" width="48" height="48" as="geometry" />
        </mxCell>
        <mxCell id="LZxzUFQRepn7Im_rXGNJ-124" value="toronto collector&#xa;bucket" style="shape=image;aspect=fixed;image=data:image/svg+xml,PD94bWwgdmVyc2lvbj0iMS4wIiBlbmNvZGluZz0iVVRGLTgiPz4KPHN2ZyB3aWR0aD0iNDhweCIgaGVpZ2h0PSI0OXB4IiB2aWV3Qm94PSIwIDAgNDggNDkiIHZlcnNpb249IjEuMSIgeG1sbnM9Imh0dHA6Ly93d3cudzMub3JnLzIwMDAvc3ZnIiB4bWxuczp4bGluaz0iaHR0cDovL3d3dy53My5vcmcvMTk5OS94bGluayI+CiAgICA8dGl0bGU+T2JqZWN0IEJ1Y2tldDwvdGl0bGU+CiAgICA8ZyBpZD0iVjItSWNvbnMiIHN0cm9rZT0ibm9uZSIgc3Ryb2tlLXdpZHRoPSIxIiBmaWxsPSJub25lIiBmaWxsLXJ1bGU9ImV2ZW5vZGQiPgogICAgICAgIDxnIGlkPSJJQk0tLy1DbG91ZC0vLVN0b3JhZ2UiIHRyYW5zZm9ybT0idHJhbnNsYXRlKC01MzQsIC00NykiPgogICAgICAgICAgICA8ZyBpZD0iT2JqZWN0LUJ1Y2tldCIgdHJhbnNmb3JtPSJ0cmFuc2xhdGUoNTM0LCA0Ny45MzYyKSI+CiAgICAgICAgICAgICAgICA8cG9seWdvbiBpZD0iRmlsbC00IiBmaWxsPSIjMEY2MkZFIiBwb2ludHM9IjAgNDggNDggNDggNDggMCAwIDAiPjwvcG9seWdvbj4KICAgICAgICAgICAgICAgIDxwYXRoIGQ9Ik0yOC43NSwzMC4wNjM3NzczIEMyOC4xODE3NTExLDMwLjA2NTAwMjUgMjcuNjM1MzA1NiwzMC4yODI2MzEzIDI3LjIyMTgsMzAuNjcyNDAyMyBMMjQuMjE5MDI1LDI4Ljg3MDY3NzMgQzI0LjI2MDMyNTUsMjguNjY4MTYxNiAyNC4yNjAzMjU1LDI4LjQ1OTM5MzEgMjQuMjE5MDI1LDI4LjI1Njg3NzMgTDI3LjIyMTgsMjYuNDU1MTUyMyBDMjguMDczODYzLDI3LjI5NzA0MzYgMjkuNDExNzE0MiwyNy4zOTQxMDYxIDMwLjM3NjM3NDYsMjYuNjg0MDE5OSBDMzEuMzQxMDM1MSwyNS45NzM5MzM4IDMxLjY0NTg5ODUsMjQuNjY3NjY5OSAzMS4wOTUyMjQ1LDIzLjYwMzkyNjMgQzMwLjU0NDU1MDUsMjIuNTQwMTgyNyAyOS4zMDE5NDc4LDIyLjAzNTAwNDEgMjguMTY1MjQwMiwyMi40MTI3NDQ3IEMyNy4wMjg1MzI2LDIyLjc5MDQ4NTQgMjYuMzM1NDQyNywyMy45Mzg5MTYyIDI2LjUzMDk3NSwyNS4xMjA2NzczIEwyMy41MjgyLDI2LjkyMjQwMjMgQzIyLjYzNTQyMDEsMjYuMDg1MzI5OSAyMS4yMzczMTA5LDI2LjExNTM0MDMgMjAuMzgxMjcyMiwyNi45ODk5NTEgQzE5LjUyNTIzMzUsMjcuODY0NTYxNyAxOS41MjUyMzM1LDI5LjI2Mjk5MjkgMjAuMzgxMjcyMiwzMC4xMzc2MDM3IEMyMS4yMzczMTA5LDMxLjAxMjIxNDQgMjIuNjM1NDIwMSwzMS4wNDIyMjQ3IDIzLjUyODIsMzAuMjA1MTUyMyBMMjYuNTMwOTc1LDMyLjAwNjg3NzMgQzI2LjUxMzU3NzcsMzIuMTA4MzM5NiAyNi41MDMyMjc5LDMyLjIxMDg4NDkgMjYuNSwzMi4zMTM3NzczIEMyNi41LDMzLjU1NjQxOCAyNy41MDczNTkzLDM0LjU2Mzc3NzMgMjguNzUsMzQuNTYzNzc3MyBDMjkuOTkyNjQwNywzNC41NjM3NzczIDMxLDMzLjU1NjQxOCAzMSwzMi4zMTM3NzczIEMzMSwzMS4wNzExMzY2IDI5Ljk5MjY0MDcsMzAuMDYzNzc3MyAyOC43NSwzMC4wNjM3NzczIFogTTI4Ljc1LDI0LjA2Mzc3NzMgQzI5LjE2NDIxMzYsMjQuMDYzNzc3MyAyOS41LDI0LjM5OTU2MzggMjkuNSwyNC44MTM3NzczIEMyOS41LDI1LjIyNzk5MDkgMjkuMTY0MjEzNiwyNS41NjM3NzczIDI4Ljc1LDI1LjU2Mzc3NzMgQzI4LjMzNTc4NjQsMjUuNTYzNzc3MyAyOCwyNS4yMjc5OTA5IDI4LDI0LjgxMzc3NzMgQzI4LjAwMDMzMDksMjQuMzk5NzAwOSAyOC4zMzU5MjM2LDI0LjA2NDEwODIgMjguNzUsMjQuMDYzNzc3MyBMMjguNzUsMjQuMDYzNzc3MyBaIE0yMiwyOS4zMTM3NzczIEMyMS41ODU3ODY0LDI5LjMxMzc3NzMgMjEuMjUsMjguOTc3OTkwOSAyMS4yNSwyOC41NjM3NzczIEMyMS4yNSwyOC4xNDk1NjM4IDIxLjU4NTc4NjQsMjcuODEzNzc3MyAyMiwyNy44MTM3NzczIEMyMi40MTQyMTM2LDI3LjgxMzc3NzMgMjIuNzUsMjguMTQ5NTYzOCAyMi43NSwyOC41NjM3NzczIEMyMi43NDk2NjkxLDI4Ljk3Nzg1MzggMjIuNDE0MDc2NCwyOS4zMTM0NDY1IDIyLDI5LjMxMzc3NzMgTDIyLDI5LjMxMzc3NzMgWiBNMjguNzUsMzMuMDYzNzc3MyBDMjguMzM1Nzg2NCwzMy4wNjM3NzczIDI4LDMyLjcyNzk5MDkgMjgsMzIuMzEzNzc3MyBDMjgsMzEuODk5NTYzOCAyOC4zMzU3ODY0LDMxLjU2Mzc3NzMgMjguNzUsMzEuNTYzNzc3MyBDMjkuMTY0MjEzNiwzMS41NjM3NzczIDI5LjUsMzEuODk5NTYzOCAyOS41LDMyLjMxMzc3NzMgQzI5LjQ5OTY2OTEsMzIuNzI3ODUzOCAyOS4xNjQwNzY0LDMzLjA2MzQ0NjUgMjguNzUsMzMuMDYzNzc3MyBaIiBpZD0iU2hhcGUiIGZpbGw9IiNGRkZGRkYiIGZpbGwtcnVsZT0ibm9uemVybyI+PC9wYXRoPgogICAgICAgICAgICAgICAgPHBhdGggZD0iTTE3LjUsMzMuMDYzNzcxNSBMMTQuNSwzMy4wNjM3NzE1IEMxMy42NzE5NjY5LDMzLjA2MjgyNjcgMTMuMDAwOTUwNiwzMi4zOTE4MTA0IDEzLDMxLjU2Mzc3MTUgTDEzLDE2LjU2Mzc3MTUgQzEzLjAwMDk1MDYsMTUuNzM1NzQ0MyAxMy42NzE5NjY5LDE1LjA2NDcyNzkgMTQuNSwxNS4wNjM3NzE1IEwyMC4xODkyNzUsMTUuMDYzNzcxNSBDMjAuNTg3MzU2NywxNS4wNjI2NjE0IDIwLjk2OTMyOTMsMTUuMjIwOTAwNiAyMS4yNSwxNS41MDMyMDIzIEwyMy44MTA3MjUsMTguMDYzNzcxNSBMMzIuNSwxOC4wNjM3NzE1IEMzMy4zMjgwMzMxLDE4LjA2NDcyNzkgMzMuOTk5MDQ5NCwxOC43MzU3NDQzIDM0LDE5LjU2Mzc3MTUgTDM0LDI1LjU2Mzc3MTUgTDMyLjUsMjUuNTYzNzcxNSBMMzIuNSwxOS41NjM3NzE1IEwyMy4xODkyNzUsMTkuNTYzNzcxNSBMMjAuMTg5Mjc1LDE2LjU2Mzc3MTUgTDE0LjUsMTYuNTYzNzcxNSBMMTQuNSwzMS41NjM3NzE1IEwxNy41LDMxLjU2Mzc3MTUgTDE3LjUsMzMuMDYzNzcxNSBaIiBpZD0iUGF0aCIgZmlsbD0iI0ZGRkZGRiIgZmlsbC1ydWxlPSJub256ZXJvIj48L3BhdGg+CiAgICAgICAgICAgICAgICA8cmVjdCBpZD0iX1RyYW5zcGFyZW50X1JlY3RhbmdsZV8iIHg9IjExLjUiIHk9IjEyLjA2Mzc3NzMiIHdpZHRoPSIyNCIgaGVpZ2h0PSIyNCI+PC9yZWN0PgogICAgICAgICAgICA8L2c+CiAgICAgICAgPC9nPgogICAgPC9nPgo8L3N2Zz4=;fontFamily=IBM Plex Sans;fontSize=14;labelPosition=center;verticalLabelPosition=bottom;align=center;verticalAlign=top;spacingTop=-7;" vertex="1" parent="LZxzUFQRepn7Im_rXGNJ-102">
          <mxGeometry x="276" y="480" width="48" height="48" as="geometry" />
        </mxCell>
        <mxCell id="LZxzUFQRepn7Im_rXGNJ-125" style="edgeStyle=orthogonalEdgeStyle;rounded=0;orthogonalLoop=1;jettySize=auto;html=1;fillColor=#ffe6cc;strokeColor=#d79b00;" edge="1" parent="LZxzUFQRepn7Im_rXGNJ-102" source="LZxzUFQRepn7Im_rXGNJ-127" target="LZxzUFQRepn7Im_rXGNJ-124">
          <mxGeometry relative="1" as="geometry" />
        </mxCell>
        <mxCell id="LZxzUFQRepn7Im_rXGNJ-126" value="archive query" style="edgeLabel;html=1;align=center;verticalAlign=middle;resizable=0;points=[];" vertex="1" connectable="0" parent="LZxzUFQRepn7Im_rXGNJ-125">
          <mxGeometry x="-0.0156" y="1" relative="1" as="geometry">
            <mxPoint as="offset" />
          </mxGeometry>
        </mxCell>
        <mxCell id="LZxzUFQRepn7Im_rXGNJ-127" value="Cloud logs" style="shape=image;aspect=fixed;image=data:image/svg+xml,PD94bWwgdmVyc2lvbj0iMS4wIiBlbmNvZGluZz0iVVRGLTgiPz4KPHN2ZyB3aWR0aD0iNDhweCIgaGVpZ2h0PSI0OHB4IiB2aWV3Qm94PSIwIDAgNDggNDgiIHZlcnNpb249IjEuMSIgeG1sbnM9Imh0dHA6Ly93d3cudzMub3JnLzIwMDAvc3ZnIiB4bWxuczp4bGluaz0iaHR0cDovL3d3dy53My5vcmcvMTk5OS94bGluayI+CiAgICA8dGl0bGU+Y2xvdWQtLWxvZ2dpbmc8L3RpdGxlPgogICAgPGcgaWQ9IlYyLUljb25zIiBzdHJva2U9Im5vbmUiIHN0cm9rZS13aWR0aD0iMSIgZmlsbD0ibm9uZSIgZmlsbC1ydWxlPSJldmVub2RkIj4KICAgICAgICA8ZyBpZD0iSUJNLUNsb3VkLS8tT2JzZXJ2YWJpbGl0eSIgdHJhbnNmb3JtPSJ0cmFuc2xhdGUoLTMwOCwgLTQ5KSI+CiAgICAgICAgICAgIDxnIGlkPSJjbG91ZC0tbG9nZ2luZyIgdHJhbnNmb3JtPSJ0cmFuc2xhdGUoMzA4LCA0OSkiPgogICAgICAgICAgICAgICAgPHJlY3QgaWQ9IlJlY3RhbmdsZS1Db3B5LTM0IiBmaWxsPSIjMDA5RDlBIiB4PSIwIiB5PSIwIiB3aWR0aD0iNDgiIGhlaWdodD0iNDgiPjwvcmVjdD4KICAgICAgICAgICAgICAgIDxnIHRyYW5zZm9ybT0idHJhbnNsYXRlKDExLCAxMikiPgogICAgICAgICAgICAgICAgICAgIDxwYXRoIGQ9Ik0yMSwxMiBMMjEsMTYuNSBMMywxNi41IEwzLDQuNSBMMTEuMjUsNC41IEwxMS4yNSwzIEwzLDMgQzIuMTcxNTcyODgsMyAxLjUsMy42NzE1NzI4OCAxLjUsNC41IEwxLjUsMTYuNSBDMS41LDE3LjMyODQyNzEgMi4xNzE1NzI4OCwxOCAzLDE4IEw5LDE4IEw5LDIxIEw2LDIxIEw2LDIyLjUgTDE4LDIyLjUgTDE4LDIxIEwxNSwyMSBMMTUsMTggTDIxLDE4IEMyMS44Mjg0MjcxLDE4IDIyLjUsMTcuMzI4NDI3MSAyMi41LDE2LjUgTDIyLjUsMTIgTDIxLDEyIFogTTEzLjUsMjEgTDEwLjUsMjEgTDEwLjUsMTggTDEzLjUsMTggTDEzLjUsMjEgWiIgaWQ9IlNoYXBlIiBmaWxsPSIjRkZGRkZGIiBmaWxsLXJ1bGU9Im5vbnplcm8iPjwvcGF0aD4KICAgICAgICAgICAgICAgICAgICA8cmVjdCBpZD0iUmVjdGFuZ2xlIiBmaWxsPSIjRkZGRkZGIiBmaWxsLXJ1bGU9Im5vbnplcm8iIHg9IjEzLjUiIHk9IjMiIHdpZHRoPSI5IiBoZWlnaHQ9IjEuNSI+PC9yZWN0PgogICAgICAgICAgICAgICAgICAgIDxyZWN0IGlkPSJSZWN0YW5nbGUiIGZpbGw9IiNGRkZGRkYiIGZpbGwtcnVsZT0ibm9uemVybyIgeD0iMTMuNSIgeT0iNiIgd2lkdGg9IjkiIGhlaWdodD0iMS41Ij48L3JlY3Q+CiAgICAgICAgICAgICAgICAgICAgPHJlY3QgaWQ9IlJlY3RhbmdsZSIgZmlsbD0iI0ZGRkZGRiIgZmlsbC1ydWxlPSJub256ZXJvIiB4PSIxMy41IiB5PSI5IiB3aWR0aD0iNC41IiBoZWlnaHQ9IjEuNSI+PC9yZWN0PgogICAgICAgICAgICAgICAgICAgIDxyZWN0IGlkPSJfVHJhbnNwYXJlbnRfUmVjdGFuZ2xlXyIgeD0iMCIgeT0iMCIgd2lkdGg9IjI0IiBoZWlnaHQ9IjI0Ij48L3JlY3Q+CiAgICAgICAgICAgICAgICA8L2c+CiAgICAgICAgICAgIDwvZz4KICAgICAgICA8L2c+CiAgICA8L2c+Cjwvc3ZnPg==;fontFamily=IBM Plex Sans;labelPosition=center;verticalLabelPosition=bottom;align=center;verticalAlign=top;fontSize=14;spacingTop=-7;" vertex="1" parent="LZxzUFQRepn7Im_rXGNJ-102">
          <mxGeometry x="100" y="480" width="48" height="48" as="geometry" />
        </mxCell>
        <mxCell id="LZxzUFQRepn7Im_rXGNJ-128" style="edgeStyle=orthogonalEdgeStyle;rounded=0;orthogonalLoop=1;jettySize=auto;html=1;entryX=1;entryY=0.5;entryDx=0;entryDy=0;fillColor=#e1d5e7;strokeColor=#9673a6;dashed=1;dashPattern=1 1;strokeWidth=2;" edge="1" parent="LZxzUFQRepn7Im_rXGNJ-102" source="LZxzUFQRepn7Im_rXGNJ-123" target="LZxzUFQRepn7Im_rXGNJ-124">
          <mxGeometry relative="1" as="geometry">
            <Array as="points">
              <mxPoint x="420" y="504" />
            </Array>
          </mxGeometry>
        </mxCell>
        <mxCell id="LZxzUFQRepn7Im_rXGNJ-129" value="" style="rounded=0;whiteSpace=wrap;html=1;fontFamily=IBM Plex Sans;fontSource=fonts%2FIBMPlexSans-Regular.woff;fontSize=14;spacingBottom=-28;spacingTop=0;labelPosition=-100;verticalLabelPosition=top;align=center;verticalAlign=bottom;spacingLeft=9;spacing=0;expand=0;recursiveResize=0;spacingRight=0;container=1;collapsible=0;strokeColor=#6c8ebf;fillColor=#dae8fc;" vertex="1" parent="LZxzUFQRepn7Im_rXGNJ-27">
          <mxGeometry x="780" y="739" width="470" height="580" as="geometry">
            <mxRectangle width="670" as="alternateBounds" />
          </mxGeometry>
        </mxCell>
        <mxCell id="LZxzUFQRepn7Im_rXGNJ-130" value="" style="rounded=0;whiteSpace=wrap;html=1;strokeColor=none;fillColor=#878d96;" vertex="1" parent="LZxzUFQRepn7Im_rXGNJ-129">
          <mxGeometry width="4" height="48" as="geometry" />
        </mxCell>
        <mxCell id="LZxzUFQRepn7Im_rXGNJ-131" value="eu-es region" style="text;html=1;strokeColor=none;fillColor=none;align=left;verticalAlign=middle;whiteSpace=wrap;rounded=0;fontFamily=IBM Plex Sans;fontSource=fonts%2FIBMPlexSans-Regular.woff;fontSize=14;" vertex="1" parent="LZxzUFQRepn7Im_rXGNJ-129">
          <mxGeometry x="51" y="8" width="168" height="20" as="geometry" />
        </mxCell>
        <mxCell id="LZxzUFQRepn7Im_rXGNJ-132" style="edgeStyle=orthogonalEdgeStyle;rounded=0;orthogonalLoop=1;jettySize=auto;html=1;exitX=0;exitY=0.5;exitDx=0;exitDy=0;entryX=1.009;entryY=0.22;entryDx=0;entryDy=0;entryPerimeter=0;fontFamily=IBM Plex Sans;fontSource=fonts%2FIBMPlexSans-Regular.woff;fontSize=14;startArrow=oval;startFill=1;strokeColor=#198038;" edge="1" parent="LZxzUFQRepn7Im_rXGNJ-129">
          <mxGeometry relative="1" as="geometry" />
        </mxCell>
        <mxCell id="LZxzUFQRepn7Im_rXGNJ-133" value="" style="shape=image;image=data:image/svg+xml,PD94bWwgdmVyc2lvbj0iMS4wIiBlbmNvZGluZz0iVVRGLTgiPz4KPHN2ZyB3aWR0aD0iMjNweCIgaGVpZ2h0PSIyOHB4IiB2aWV3Qm94PSIwIDAgMjMgMjgiIHZlcnNpb249IjEuMSIgeG1sbnM9Imh0dHA6Ly93d3cudzMub3JnLzIwMDAvc3ZnIiB4bWxuczp4bGluaz0iaHR0cDovL3d3dy53My5vcmcvMTk5OS94bGluayI+CiAgICA8IS0tIEdlbmVyYXRvcjogU2tldGNoIDUzICg3MjUyMCkgLSBodHRwczovL3NrZXRjaGFwcC5jb20gLS0+CiAgICA8dGl0bGU+UmVnaW9uIEJsYWNrPC90aXRsZT4KICAgIDxkZXNjPkNyZWF0ZWQgd2l0aCBTa2V0Y2guPC9kZXNjPgogICAgPGcgaWQ9IlBhZ2UtMSIgc3Ryb2tlPSJub25lIiBzdHJva2Utd2lkdGg9IjEiIGZpbGw9Im5vbmUiIGZpbGwtcnVsZT0iZXZlbm9kZCI+CiAgICAgICAgPGcgaWQ9IlJlZ2lvbi1CbGFjayIgdHJhbnNmb3JtPSJ0cmFuc2xhdGUoMC4xMjUwMDAsIDAuMDAwMDAwKSIgZmlsbD0iIzAwMDAwMCI+CiAgICAgICAgICAgIDxwYXRoIGQ9Ik0xMS4wMDAyLDggQzkuMzQzMiw4IDguMDAwMiw5LjM0MyA4LjAwMDIsMTEgQzguMDAwMiwxMi42NTcgOS4zNDMyLDE0IDExLjAwMDIsMTQgQzEyLjY1NzIsMTQgMTQuMDAwMiwxMi42NTcgMTQuMDAwMiwxMSBDMTMuOTk4Miw5LjM0NCAxMi42NTYyLDguMDAyIDExLjAwMDIsOCBNMTEuMDAwMiwxNiBDOC4yMzgyLDE2IDYuMDAwMiwxMy43NjEgNi4wMDAyLDExIEM2LjAwMDIsOC4yMzkgOC4yMzgyLDYgMTEuMDAwMiw2IEMxMy43NjEyLDYgMTYuMDAwMiw4LjIzOSAxNi4wMDAyLDExIEMxNS45OTcyLDEzLjc2IDEzLjc2MDIsMTUuOTk3IDExLjAwMDIsMTYiIGlkPSJGaWxsLTEiPjwvcGF0aD4KICAgICAgICAgICAgPGcgaWQ9Ikdyb3VwLTUiPgogICAgICAgICAgICAgICAgPHBhdGggZD0iTTMuODEyNywxNi4zOTUgQzMuODEzNywxNi4zOTUgNC4wNDU3LDE2LjcwMyA0LjA5ODcsMTYuNzcgTDEwLjk5OTcsMjQuOTA4IEwxNy45MTA3LDE2Ljc1OCBDMTcuOTU0NywxNi43MDMgMTguMTg4NywxNi4zOTMgMTguMTg4NywxNi4zOTIgQzE5LjM2NjcsMTQuODQxIDIwLjAwMTcsMTIuOTQ3IDE5Ljk5OTcsMTEgQzE5Ljk5OTcsNi4wMjkgMTUuOTcwNywyIDEwLjk5OTcsMiBDNi4wMjk3LDIgMi4wMDA3LDYuMDI5IDIuMDAwNywxMSBDMS45OTc3LDEyLjk0OCAyLjYzNDcsMTQuODQzIDMuODEyNywxNi4zOTUgTDMuODEyNywxNi4zOTUgWiBNMTAuOTk5NywyOCBMMi41NjQ3LDE4LjA1MSBDMi41MTY3LDE3Ljk5NCAyLjIxNjcsMTcuNiAyLjIxNjcsMTcuNiBDMC43NzQ3LDE1LjcwMiAtMC4wMDMzLDEzLjM4MyAtMC4wMDAzLDExIEMtMC4wMDAzLDQuOTI1IDQuOTI0NywwIDEwLjk5OTcsMCBDMTcuMDc1NywwIDIxLjk5OTcsNC45MjUgMjEuOTk5NywxMSBDMjIuMDAyNywxMy4zODIgMjEuMjI1NywxNS43IDE5Ljc4NTcsMTcuNTk3IEwxOS43ODM3LDE3LjYgQzE5Ljc4MzcsMTcuNiAxOS40ODM3LDE3Ljk5NCAxOS40Mzg3LDE4LjA0NyBMMTAuOTk5NywyOCBaIiBpZD0iRmlsbC0zIj48L3BhdGg+CiAgICAgICAgICAgIDwvZz4KICAgICAgICA8L2c+CiAgICA8L2c+Cjwvc3ZnPg==;" vertex="1" parent="LZxzUFQRepn7Im_rXGNJ-129">
          <mxGeometry x="19.66" y="8" width="24" height="24" as="geometry" />
        </mxCell>
        <mxCell id="LZxzUFQRepn7Im_rXGNJ-134" value="" style="rounded=0;whiteSpace=wrap;html=1;fontFamily=IBM Plex Sans;fontSource=fonts%2FIBMPlexSans-Regular.woff;fontSize=14;spacingBottom=-28;spacingTop=0;labelPosition=-100;verticalLabelPosition=top;align=center;verticalAlign=bottom;spacingLeft=9;spacing=0;expand=0;recursiveResize=0;spacingRight=0;container=1;collapsible=0;strokeColor=#82b366;fillColor=#d5e8d4;" vertex="1" parent="LZxzUFQRepn7Im_rXGNJ-129">
          <mxGeometry x="43.66" y="48" width="369" height="412" as="geometry">
            <mxRectangle width="670" as="alternateBounds" />
          </mxGeometry>
        </mxCell>
        <mxCell id="LZxzUFQRepn7Im_rXGNJ-135" value="" style="rounded=0;whiteSpace=wrap;html=1;strokeColor=none;fillColor=#1192E8;" vertex="1" parent="LZxzUFQRepn7Im_rXGNJ-134">
          <mxGeometry width="4" height="48" as="geometry" />
        </mxCell>
        <mxCell id="LZxzUFQRepn7Im_rXGNJ-136" value="madrid demo vpc" style="text;html=1;strokeColor=none;fillColor=none;align=left;verticalAlign=middle;whiteSpace=wrap;rounded=0;fontFamily=IBM Plex Sans;fontSource=fonts%2FIBMPlexSans-Regular.woff;fontSize=14;" vertex="1" parent="LZxzUFQRepn7Im_rXGNJ-134">
          <mxGeometry x="51" y="8" width="163" height="20" as="geometry" />
        </mxCell>
        <mxCell id="LZxzUFQRepn7Im_rXGNJ-137" value="" style="shape=image;image=data:image/svg+xml,PD94bWwgdmVyc2lvbj0iMS4wIiBlbmNvZGluZz0iVVRGLTgiPz4KPHN2ZyB3aWR0aD0iMjlweCIgaGVpZ2h0PSIyOHB4IiB2aWV3Qm94PSIwIDAgMjkgMjgiIHZlcnNpb249IjEuMSIgeG1sbnM9Imh0dHA6Ly93d3cudzMub3JnLzIwMDAvc3ZnIiB4bWxuczp4bGluaz0iaHR0cDovL3d3dy53My5vcmcvMTk5OS94bGluayI+CiAgICA8IS0tIEdlbmVyYXRvcjogU2tldGNoIDUzICg3MjUyMCkgLSBodHRwczovL3NrZXRjaGFwcC5jb20gLS0+CiAgICA8dGl0bGU+SUJNIFZQQyBCbGFjazwvdGl0bGU+CiAgICA8ZGVzYz5DcmVhdGVkIHdpdGggU2tldGNoLjwvZGVzYz4KICAgIDxnIGlkPSJQYWdlLTEiIHN0cm9rZT0ibm9uZSIgc3Ryb2tlLXdpZHRoPSIxIiBmaWxsPSJub25lIiBmaWxsLXJ1bGU9ImV2ZW5vZGQiPgogICAgICAgIDxnIGlkPSJJQk0tVlBDLUJsYWNrIiB0cmFuc2Zvcm09InRyYW5zbGF0ZSgwLjc1MDAwMCwgLTEuMDAwMDAwKSIgZmlsbD0iIzAwMDAwMCI+CiAgICAgICAgICAgIDxwYXRoIGQ9Ik0wLjAwMDksMS4wMDAyIEwwLjAwMDksOS4wMDAyIEw2LjU4NjksOS4wMDAyIEwyMC4wMDA5LDIyLjQxNDIgTDIwLjAwMDksMjkuMDAwMiBMMjguMDAwOSwyOS4wMDAyIEwyOC4wMDA5LDIxLjAwMDIgTDIxLjQxNTksMjEuMDAwMiBMOC4wMDA5LDcuNTg1MiBMOC4wMDA5LDEuMDAwMiBMMC4wMDA5LDEuMDAwMiBaIE0yLjAwMDksNy4wMDAyIEw2LjAwMDksNy4wMDAyIEw2LjAwMDksMy4wMDAyIEwyLjAwMDksMy4wMDAyIEwyLjAwMDksNy4wMDAyIFogTTIyLjAwMDksMjcuMDAxMiBMMjYuMDAxOSwyNy4wMDEyIEwyNi4wMDE5LDIzLjAwMDIgTDIyLjAwMDksMjMuMDAwMiBMMjIuMDAwOSwyNy4wMDEyIFoiIGlkPSJGaWxsLTEiPjwvcGF0aD4KICAgICAgICAgICAgPGcgaWQ9Ikdyb3VwLTgiIHRyYW5zZm9ybT0idHJhbnNsYXRlKDAuMDAwMDAwLCAwLjAwMTkwMCkiPgogICAgICAgICAgICAgICAgPGcgaWQ9Ikdyb3VwLTQiIHRyYW5zZm9ybT0idHJhbnNsYXRlKDExLjAwMDAwMCwgMC4wMDAwMDApIj4KICAgICAgICAgICAgICAgICAgICA8cGF0aCBkPSJNMTIuNjQ2Nyw2LjgxNzkgQzExLjU0MjcsNi44MTc5IDEwLjY0NjcsNS45MjI5IDEwLjY0NjcsNC44MTc5IEMxMC42NDY3LDMuNzEzOSAxMS41NDI3LDIuODE3OSAxMi42NDY3LDIuODE3OSBDMTMuNzUwNywyLjgxNzkgMTQuNjQ2NywzLjcxMzkgMTQuNjQ2Nyw0LjgxNzkgQzE0LjY0NTcsNS45MjE5IDEzLjc1MDcsNi44MTY5IDEyLjY0NjcsNi44MTc5IE0xNi43MzM3LDMuNTE4OSBDMTYuMzU2NywyLjQ5ODkgMTUuNTMxNywxLjY2NzkgMTQuNTE1NywxLjI4MDkgQzEyLjEyNzcsMC4zNzA5IDkuNzE3NywxLjc1NTkgOS4xNDI3LDMuOTk3OSBMMC4wMDA3LDMuOTk3OSBMMC4wMDA3LDUuOTk3OSBMOS4xNDI3LDUuOTk3OSBDOS41MDc3LDcuMzk3OSAxMC42MDE3LDguNDkwOSAxMi4wMDA3LDguODU1OSBMMTIuMDAwNywxNy45OTc5IEwxNC4wMDA3LDE3Ljk5NzkgTDE0LjAwMDcsOC44NTU5IEMxNi4yMjk3LDguMjgxOSAxNy42MTE3LDUuODk2OSAxNi43MzM3LDMuNTE4OSIgaWQ9IkZpbGwtMiI+PC9wYXRoPgogICAgICAgICAgICAgICAgPC9nPgogICAgICAgICAgICAgICAgPGcgaWQ9Ikdyb3VwLTciIHRyYW5zZm9ybT0idHJhbnNsYXRlKDAuMDAwMDAwLCAxMS4wMDAwMDApIj4KICAgICAgICAgICAgICAgICAgICA8cGF0aCBkPSJNMy42NDY3LDE1LjgxNzkgQzIuNTQyNywxNS44MTc5IDEuNjQ2NywxNC45MjI5IDEuNjQ2NywxMy44MTc5IEMxLjY0NjcsMTIuNzEzOSAyLjU0MjcsMTEuODE3OSAzLjY0NjcsMTEuODE3OSBDNC43NTA3LDExLjgxNzkgNS42NDY3LDEyLjcxMzkgNS42NDY3LDEzLjgxNzkgQzUuNjQ1NywxNC45MjE5IDQuNzUwNywxNS44MTY5IDMuNjQ2NywxNS44MTc5IEwzLjY0NjcsMTUuODE3OSBaIE0xNy4wMDA3LDEyLjk5NzkgTDcuODU4NywxMi45OTc5IEM3LjQ5MzcsMTEuNTk3OSA2LjQwMDcsMTAuNTA0OSA1LjAwMDcsMTAuMTM5OSBMNS4wMDA3LDAuOTk3OSBMMy4wMDA3LDAuOTk3OSBMMy4wMDA3LDEwLjEzOTkgQzAuNDg3NywxMC43ODQ5IC0wLjg1MTMsMTMuNjgzOSAwLjU5NDcsMTYuMTE5OSBDMS4xNTA3LDE3LjA1NTkgMi4xMTE3LDE3LjcyODkgMy4xODI3LDE3LjkyNjkgQzUuNDAyNywxOC4zMzc5IDcuMzUzNywxNi45Njk5IDcuODU4NywxNC45OTc5IEwxNy4wMDA3LDE0Ljk5NzkgTDE3LjAwMDcsMTIuOTk3OSBaIiBpZD0iRmlsbC01Ij48L3BhdGg+CiAgICAgICAgICAgICAgICA8L2c+CiAgICAgICAgICAgIDwvZz4KICAgICAgICA8L2c+CiAgICA8L2c+Cjwvc3ZnPg==;" vertex="1" parent="LZxzUFQRepn7Im_rXGNJ-134">
          <mxGeometry x="17" y="9.849999999999909" width="24" height="24" as="geometry" />
        </mxCell>
        <mxCell id="LZxzUFQRepn7Im_rXGNJ-138" value="" style="rounded=0;whiteSpace=wrap;html=1;fontFamily=IBM Plex Sans;fontSource=fonts%2FIBMPlexSans-Regular.woff;fontSize=14;fillColor=#f5f5f5;spacingBottom=-28;spacingTop=0;labelPosition=-100;verticalLabelPosition=top;align=center;verticalAlign=bottom;spacingLeft=9;spacing=0;expand=0;recursiveResize=0;spacingRight=0;container=0;collapsible=0;strokeColor=#666666;strokeWidth=2;dashed=1;dashPattern=1 2;fontColor=#333333;" vertex="1" parent="LZxzUFQRepn7Im_rXGNJ-134">
          <mxGeometry x="51" y="48" width="217" height="152" as="geometry">
            <mxRectangle width="670" as="alternateBounds" />
          </mxGeometry>
        </mxCell>
        <mxCell id="LZxzUFQRepn7Im_rXGNJ-139" value="Zone 1" style="text;html=1;strokeColor=none;fillColor=none;align=left;verticalAlign=middle;whiteSpace=wrap;rounded=0;fontFamily=IBM Plex Sans;fontSource=fonts%2FIBMPlexSans-Regular.woff;fontSize=14;" vertex="1" parent="LZxzUFQRepn7Im_rXGNJ-138">
          <mxGeometry x="51" y="8" width="168" height="20" as="geometry" />
        </mxCell>
        <mxCell id="LZxzUFQRepn7Im_rXGNJ-140" value="" style="shape=image;image=data:image/svg+xml,PD94bWwgdmVyc2lvbj0iMS4wIiBlbmNvZGluZz0iVVRGLTgiPz4KPHN2ZyB3aWR0aD0iMjlweCIgaGVpZ2h0PSIyNnB4IiB2aWV3Qm94PSIwIDAgMjkgMjYiIHZlcnNpb249IjEuMSIgeG1sbnM9Imh0dHA6Ly93d3cudzMub3JnLzIwMDAvc3ZnIiB4bWxuczp4bGluaz0iaHR0cDovL3d3dy53My5vcmcvMTk5OS94bGluayI+CiAgICA8IS0tIEdlbmVyYXRvcjogU2tldGNoIDUzICg3MjUyMCkgLSBodHRwczovL3NrZXRjaGFwcC5jb20gLS0+CiAgICA8dGl0bGU+Wm9uZSBCbGFjazwvdGl0bGU+CiAgICA8ZGVzYz5DcmVhdGVkIHdpdGggU2tldGNoLjwvZGVzYz4KICAgIDxnIGlkPSJQYWdlLTEiIHN0cm9rZT0ibm9uZSIgc3Ryb2tlLXdpZHRoPSIxIiBmaWxsPSJub25lIiBmaWxsLXJ1bGU9ImV2ZW5vZGQiPgogICAgICAgIDxnIGlkPSJab25lLUJsYWNrIiB0cmFuc2Zvcm09InRyYW5zbGF0ZSgwLjEyNTAwMCwgMC4wMDAwMDApIiBmaWxsPSIjMDAwMDAwIj4KICAgICAgICAgICAgPGcgaWQ9Ikdyb3VwLTMiPgogICAgICAgICAgICAgICAgPHBhdGggZD0iTTI2LjAwMDEsMjQuMDAwMSBMMjEuMDAwMSwyNC4wMDAxIEwyMS4wMDAxLDIwLjAwMDEgTDIzLjAwMDEsMjAuMDAwMSBMMjMuMDAwMSwxOC4wMDAxIEwyMS4wMDAxLDE4LjAwMDEgTDIxLjAwMDEsMTYuMDAwMSBMMjMuMDAwMSwxNi4wMDAxIEwyMy4wMDAxLDE0LjAwMDEgTDIxLjAwMDEsMTQuMDAwMSBMMjEuMDAwMSwxMi4wMDAxIEwyMy4wMDAxLDEyLjAwMDEgTDIzLjAwMDEsMTAuMDAwMSBMMjEuMDAwMSwxMC4wMDAxIEwyMS4wMDAxLDguMDAwMSBMMjYuMDAwMSw4LjAwMDEgTDI2LjAwMDEsMjQuMDAwMSBaIE05LjAwMDEsMjQuMDAwMSBMMTkuMDAwMSwyNC4wMDAxIEwxOS4wMDAxLDIuMDAwMSBMOS4wMDAxLDIuMDAwMSBMOS4wMDAxLDI0LjAwMDEgWiBNMi4wMDAxLDI0LjAwMDEgTDIuMDAwMSw4LjAwMDEgTDcuMDAwMSw4LjAwMDEgTDcuMDAwMSwxMC4wMDAxIEw1LjAwMDEsMTAuMDAwMSBMNS4wMDAxLDEyLjAwMDEgTDcuMDAwMSwxMi4wMDAxIEw3LjAwMDEsMTQuMDAwMSBMNS4wMDAxLDE0LjAwMDEgTDUuMDAwMSwxNi4wMDAxIEw3LjAwMDEsMTYuMDAwMSBMNy4wMDAxLDE4LjAwMDEgTDUuMDAwMSwxOC4wMDAxIEw1LjAwMDEsMjAuMDAwMSBMNy4wMDAxLDIwLjAwMDEgTDcuMDAwMSwyNC4wMDAxIEwyLjAwMDEsMjQuMDAwMSBaIE0yNi4wMDAxLDYuMDAwMSBMMjEuMDAwMSw2LjAwMDEgTDIxLjAwMDEsMi4wMDAxIEMyMC45OTkxLDAuODk2MSAyMC4xMDQxLDAuMDAxMSAxOS4wMDAxLDAuMDAwMSBMOS4wMDAxLDAuMDAwMSBDNy44OTYxLDAuMDAxMSA3LjAwMTEsMC44OTYxIDcuMDAwMSwyLjAwMDEgTDcuMDAwMSw2LjAwMDEgTDIuMDAwMSw2LjAwMDEgQzAuODk2MSw2LjAwMTEgMC4wMDExLDYuODk2MSAwLjAwMDEsOC4wMDAxIEwwLjAwMDEsMjQuMDAwMSBDMC4wMDExLDI1LjEwNDEgMC44OTYxLDI1Ljk5OTEgMi4wMDAxLDI2LjAwMDEgTDI2LjAwMDEsMjYuMDAwMSBDMjcuMTA0MSwyNS45OTkxIDI3Ljk5OTEsMjUuMTA0MSAyOC4wMDAxLDI0LjAwMDEgTDI4LjAwMDEsOC4wMDAxIEMyNy45OTkxLDYuODk2MSAyNy4xMDQxLDYuMDAxMSAyNi4wMDAxLDYuMDAwMSBMMjYuMDAwMSw2LjAwMDEgWiIgaWQ9IkZpbGwtMSI+PC9wYXRoPgogICAgICAgICAgICA8L2c+CiAgICAgICAgICAgIDxwb2x5Z29uIGlkPSJGaWxsLTQiIHBvaW50cz0iMTIgNiAxNiA2IDE2IDQgMTIgNCI+PC9wb2x5Z29uPgogICAgICAgICAgICA8cG9seWdvbiBpZD0iRmlsbC02IiBwb2ludHM9IjEyIDEwIDE2IDEwIDE2IDggMTIgOCI+PC9wb2x5Z29uPgogICAgICAgICAgICA8cG9seWdvbiBpZD0iRmlsbC03IiBwb2ludHM9IjEyIDE0IDE2IDE0IDE2IDEyIDEyIDEyIj48L3BvbHlnb24+CiAgICAgICAgPC9nPgogICAgPC9nPgo8L3N2Zz4=;" vertex="1" parent="LZxzUFQRepn7Im_rXGNJ-138">
          <mxGeometry x="18" y="12.07" width="24" height="24" as="geometry" />
        </mxCell>
        <mxCell id="LZxzUFQRepn7Im_rXGNJ-141" style="edgeStyle=orthogonalEdgeStyle;rounded=0;orthogonalLoop=1;jettySize=auto;html=1;exitX=0;exitY=0.5;exitDx=0;exitDy=0;entryX=1.009;entryY=0.22;entryDx=0;entryDy=0;entryPerimeter=0;fontFamily=IBM Plex Sans;fontSource=fonts%2FIBMPlexSans-Regular.woff;fontSize=14;startArrow=oval;startFill=1;strokeColor=#198038;" edge="1" parent="LZxzUFQRepn7Im_rXGNJ-138">
          <mxGeometry relative="1" as="geometry" />
        </mxCell>
        <mxCell id="LZxzUFQRepn7Im_rXGNJ-142" value="Public&#xa;Gateway" style="shape=image;verticalLabelPosition=middle;verticalAlign=middle;imageAspect=0;aspect=fixed;image=data:image/svg+xml,PHN2ZyB4bWxuczp4bGluaz0iaHR0cDovL3d3dy53My5vcmcvMTk5OS94bGluayIgeG1sbnM9Imh0dHA6Ly93d3cudzMub3JnLzIwMDAvc3ZnIiB2ZXJzaW9uPSIxLjEiIHZpZXdCb3g9IjAgMCA0OCA0OCIgaGVpZ2h0PSI0OHB4IiB3aWR0aD0iNDhweCI+JiN4YTsgICAgPHRpdGxlPmdhdGV3YXktLXB1YmxpYzwvdGl0bGU+JiN4YTsgICAgPGcgZmlsbC1ydWxlPSJldmVub2RkIiBmaWxsPSJub25lIiBzdHJva2Utd2lkdGg9IjEiIHN0cm9rZT0ibm9uZSIgaWQ9IlYyLUljb25zIj4mI3hhOyAgICAgICAgPGcgdHJhbnNmb3JtPSJ0cmFuc2xhdGUoLTYzNywgLTg2KSIgaWQ9IklCTS9DbG91ZC9OZXR3b3JrIj4mI3hhOyAgICAgICAgICAgIDxnIHRyYW5zZm9ybT0idHJhbnNsYXRlKDYzNywgODYpIiBpZD0iZ2F0ZXdheS0tcHVibGljIj4mI3hhOyAgICAgICAgICAgICAgICA8cmVjdCBoZWlnaHQ9IjQ4IiB3aWR0aD0iNDgiIHk9IjAiIHg9IjAiIGZpbGw9IiMxMTkyRTgiIGlkPSJSZWN0YW5nbGUtQ29weS0xOSIvPiYjeGE7ICAgICAgICAgICAgICAgIDxnIHRyYW5zZm9ybT0idHJhbnNsYXRlKDEyLCAxMikiPiYjeGE7ICAgICAgICAgICAgICAgICAgICA8cGF0aCBmaWxsLXJ1bGU9Im5vbnplcm8iIGZpbGw9IiNGRkZGRkYiIGlkPSJTaGFwZSIgZD0iTTE0LjI1LDEwLjUgTDEwLjUsMTAuNSBMMTAuNSw5IEMxMC41LDguMTcxNTcyODggMTEuMTcxNTcyOSw3LjUgMTIsNy41IEMxMi44Mjg0MjcxLDcuNSAxMy41LDguMTcxNTcyODggMTMuNSw5IEwxNSw5IEMxNSw3LjM0MzE0NTc1IDEzLjY1Njg1NDIsNiAxMiw2IEMxMC4zNDMxNDU4LDYgOSw3LjM0MzE0NTc1IDksOSBMOSwxMC43MDg3MjUgQzguNTM3NDk0NywxMC45NzQ0ODI5IDguMjUxNjczNTIsMTEuNDY2NTgxMiA4LjI1LDEyIEw4LjI1LDE1Ljc1IEM4LjI1MDk1MDYsMTYuNTc4MDMzMSA4LjkyMTk2Njk1LDE3LjI0OTA0OTQgOS43NSwxNy4yNSBMMTQuMjUsMTcuMjUgQzE1LjA3ODAzMzEsMTcuMjQ5MDQ5NCAxNS43NDkwNDk0LDE2LjU3ODAzMzEgMTUuNzUsMTUuNzUgTDE1Ljc1LDEyIEMxNS43NDkwNDk0LDExLjE3MTk2NjkgMTUuMDc4MDMzMSwxMC41MDA5NTA2IDE0LjI1LDEwLjUgWiBNMTQuMjUsMTUuNzUgTDkuNzUsMTUuNzUgTDkuNzUsMTIgTDE0LjI1LDEyIEwxNC4yNSwxNS43NSBaIi8+JiN4YTsgICAgICAgICAgICAgICAgICAgIDxwYXRoIGZpbGwtcnVsZT0ibm9uemVybyIgZmlsbD0iI0ZGRkZGRiIgaWQ9IlNoYXBlIiBkPSJNMjIuODEwNTc1LDEzLjA2MDU3NSBDMjMuMDkxOTE5NCwxMi43NzkzMjYxIDIzLjI0OTk4NSwxMi4zOTc4MTM1IDIzLjI0OTk4NSwxMiBDMjMuMjQ5OTg1LDExLjYwMjE4NjUgMjMuMDkxOTE5NCwxMS4yMjA2NzM5IDIyLjgxMDU3NSwxMC45Mzk0MjUgTDE4LjQ3MDQsNi41OTk0NzUgTDIwLjY0NTg1LDQuNDUyMzc1IEMyMS4zMDU1MTE4LDQuNjE1ODM5NDggMjEuOTkyNzEzOSw0LjMxNTc5MDM4IDIyLjMyMTI0MTQsMy43MjA4NTg0MSBDMjIuNjQ5NzY5LDMuMTI1OTI2NDUgMjIuNTM3NjgwMSwyLjM4NDUwMDY2IDIyLjA0Nzk2OTgsMS45MTMyNzAwNiBDMjEuNTU4MjU5NiwxLjQ0MjAzOTQ2IDIwLjgxMzA3MjUsMS4zNTg1MzkyNiAyMC4yMzEyMTE0LDEuNzA5Njk3NDQgQzE5LjY0OTM1MDMsMi4wNjA4NTU2MiAxOS4zNzU5NDQyLDIuNzU5MDg1NjYgMTkuNTY0NjUsMy40MTE5NzUgTDE3LjQwOTY3NSw1LjUzODYgTDEzLjA2MDU3NSwxLjE4OTQyNSBDMTIuNzc5MzI2MSwwLjkwODA4MDYzMyAxMi4zOTc4MTM1LDAuNzUwMDE0OTgzIDEyLDAuNzUwMDE0OTgzIEMxMS42MDIxODY1LDAuNzUwMDE0OTgzIDExLjIyMDY3MzksMC45MDgwODA2MzMgMTAuOTM5NDI1LDEuMTg5NDI1IEw2LjU5OTQ3NSw1LjUyOTQ1IEw0LjQ1MjYsMy4zNTM3NzUgQzQuNjE1OTcxODYsMi42OTM5OTg2MiA0LjMxNTc1MDI2LDIuMDA2NzYwNjIgMy43MjA2NzEzNCwxLjY3ODMxNTMxIEMzLjEyNTU5MjQzLDEuMzQ5ODcgMi4zODQwOTE1MiwxLjQ2MjE0NDEzIDEuOTEyOTIwNzgsMS45NTIwMzUzMiBDMS40NDE3NTAwNCwyLjQ0MTkyNjUgMS4zNTg0MzczNywzLjE4NzIzNzIyIDEuNzA5ODA3NzIsMy43NjkwNzQwNyBDMi4wNjExNzgwNyw0LjM1MDkxMDkyIDIuNzU5NTg2Myw0LjYyNDE0MTYzIDMuNDEyNSw0LjQzNTIgTDUuNTM4NzUsNi41OTAzMjUgTDEuMTg5NDI1LDEwLjkzOTQyNSBDMC45MDgwODA2MzMsMTEuMjIwNjczOSAwLjc1MDAxNDk4MywxMS42MDIxODY1IDAuNzUwMDE0OTgzLDEyIEMwLjc1MDAxNDk4MywxMi4zOTc4MTM1IDAuOTA4MDgwNjMzLDEyLjc3OTMyNjEgMS4xODk0MjUsMTMuMDYwNTc1IEw1LjUzODYsMTcuNDA5Njc1IEwzLjQxMjUsMTkuNTY0OCBDMi43NjEwNzcwNiwxOS4zNzcyNDU0IDIuMDY0ODc5MzYsMTkuNjUwNDQxNCAxLjcxNDg2MjE2LDIwLjIzMDk3MjYgQzEuMzY0ODQ0OTUsMjAuODExNTAzOSAxLjQ0ODIxOTMzLDIxLjU1NDcyMzkgMS45MTgxNjU3NywyMi4wNDMyNzE3IEMyLjM4ODExMjIxLDIyLjUzMTgxOTUgMy4xMjc1Mzc3NSwyMi42NDM5NjczIDMuNzIxMjEyMjMsMjIuMzE2NzM3NyBDNC4zMTQ4ODY3MSwyMS45ODk1MDgxIDQuNjE0ODg4OCwyMS4zMDQ0MzQ0IDQuNDUyNzUsMjAuNjQ2MjI1IEw2LjU5OTYyNSwxOC40NzA1NSBMMTAuOTM5NTc1LDIyLjgxMDU3NSBDMTEuMjIwODIzOSwyMy4wOTE5MTk0IDExLjYwMjMzNjUsMjMuMjQ5OTg1IDEyLjAwMDE1LDIzLjI0OTk4NSBDMTIuMzk3OTYzNSwyMy4yNDk5ODUgMTIuNzc5NDc2MSwyMy4wOTE5MTk0IDEzLjA2MDcyNSwyMi44MTA1NzUgTDE3LjQwOTgyNSwxOC40NjE0IEwxOS41NjQ4LDIwLjU4ODAyNSBDMTkuMzc3MjUyMywyMS4yMzk1ODc1IDE5LjY1MDU2OTEsMjEuOTM1OTAwNiAyMC4yMzEyNTYxLDIyLjI4NTkxNTYgQzIwLjgxMTk0MzEsMjIuNjM1OTMwNiAyMS41NTUzMDEyLDIyLjU1MjQyODggMjIuMDQzODYxNiwyMi4wODIzMDQ3IEMyMi41MzI0MjE5LDIxLjYxMjE4MDYgMjIuNjQ0NDQyMSwyMC44NzI1ODI0IDIyLjMxNzAxMTgsMjAuMjc4ODY3NyBDMjEuOTg5NTgxNCwxOS42ODUxNTI5IDIxLjMwNDI5MTUsMTkuMzg1MjY2OCAyMC42NDYsMTkuNTQ3NjI1IEwxOC40NzA1NSwxNy40MDA1MjUgTDIyLjgxMDU3NSwxMy4wNjA1NzUgWiBNMTIsMjEuNzUgTDIuMjUsMTIgTDEyLDIuMjUgTDIxLjc1LDEyIEwxMiwyMS43NSBaIi8+JiN4YTsgICAgICAgICAgICAgICAgICAgIDxyZWN0IGhlaWdodD0iMjQiIHdpZHRoPSIyNCIgeT0iMCIgeD0iMCIgaWQ9Il9UcmFuc3BhcmVudF9SZWN0YW5nbGVfIi8+JiN4YTsgICAgICAgICAgICAgICAgPC9nPiYjeGE7ICAgICAgICAgICAgPC9nPiYjeGE7ICAgICAgICA8L2c+JiN4YTsgICAgPC9nPiYjeGE7PC9zdmc+;fontFamily=IBM Plex Sans;fontSize=14;spacingTop=-7;labelPosition=right;align=left;" vertex="1" parent="LZxzUFQRepn7Im_rXGNJ-138">
          <mxGeometry x="187" y="52" width="48" height="48" as="geometry" />
        </mxCell>
        <mxCell id="LZxzUFQRepn7Im_rXGNJ-143" value="prod-eu-box" style="shape=image;aspect=fixed;image=data:image/svg+xml,PD94bWwgdmVyc2lvbj0iMS4wIiBlbmNvZGluZz0iVVRGLTgiPz4KPHN2ZyB3aWR0aD0iNDhweCIgaGVpZ2h0PSI0OXB4IiB2aWV3Qm94PSIwIDAgNDggNDkiIHZlcnNpb249IjEuMSIgeG1sbnM9Imh0dHA6Ly93d3cudzMub3JnLzIwMDAvc3ZnIiB4bWxuczp4bGluaz0iaHR0cDovL3d3dy53My5vcmcvMTk5OS94bGluayI+CiAgICA8dGl0bGU+VmlydHVhbCBTZXJ2ZXIgQ2xhc3NpYzwvdGl0bGU+CiAgICA8ZyBpZD0iVjItSWNvbnMiIHN0cm9rZT0ibm9uZSIgc3Ryb2tlLXdpZHRoPSIxIiBmaWxsPSJub25lIiBmaWxsLXJ1bGU9ImV2ZW5vZGQiPgogICAgICAgIDxnIGlkPSJJQk0tLy1DbG91ZC0vLUNvbXB1dGUiIHRyYW5zZm9ybT0idHJhbnNsYXRlKC0xMjUzLCAtNDgpIj4KICAgICAgICAgICAgPGcgaWQ9IlZpcnR1YWwtU2VydmVyLUNsYXNzaWMiIHRyYW5zZm9ybT0idHJhbnNsYXRlKDEyNTMsIDQ4LjM0MjEpIj4KICAgICAgICAgICAgICAgIDxwb2x5Z29uIGlkPSJSZWN0YW5nbGUiIGZpbGw9IiMxOTgwMzgiIHBvaW50cz0iMCA0OCA0OCA0OCA0OCAwIDAgMCI+PC9wb2x5Z29uPgogICAgICAgICAgICAgICAgPGcgaWQ9ImlibS1jbG91ZC0tdmlydHVhbC1zZXJ2ZXItdnBjIiB0cmFuc2Zvcm09InRyYW5zbGF0ZSgxMS45OTU4LCAxMS42NTc5KSI+CiAgICAgICAgICAgICAgICAgICAgPGNpcmNsZSBpZD0iT3ZhbCIgZmlsbD0iI0ZGRkZGRiIgZmlsbC1ydWxlPSJub256ZXJvIiBjeD0iNiIgY3k9IjE5LjUiIHI9IjEiPjwvY2lyY2xlPgogICAgICAgICAgICAgICAgICAgIDxwYXRoIGQ9Ik0zLjc1LDIyLjUgTDIwLjI1LDIyLjUgQzIxLjA3NSwyMi41IDIxLjc1LDIxLjgyNSAyMS43NSwyMSBMMjEuNzUsMTggQzIxLjc1LDE3LjE3NSAyMS4wNzUsMTYuNSAyMC4yNSwxNi41IEwzLjc1LDE2LjUgQzIuOTI1LDE2LjUgMi4yNSwxNy4xNzUgMi4yNSwxOCBMMi4yNSwyMSBDMi4yNSwyMS44MjUgMi45MjUsMjIuNSAzLjc1LDIyLjUgWiBNMy43NSwxOCBMMjAuMjUsMTggTDIwLjI1LDIxIEwzLjc1LDIxIEwzLjc1LDE4IFoiIGlkPSJTaGFwZSIgZmlsbD0iI0ZGRkZGRiIgZmlsbC1ydWxlPSJub256ZXJvIj48L3BhdGg+CiAgICAgICAgICAgICAgICAgICAgPHBhdGggZD0iTTE3LjI1LDE1IEw2Ljc1LDE1IEM0LjI2NzUsMTUgMi4yNSwxMi45ODI1IDIuMjUsMTAuNSBDMi4yNSw4LjIxMjUgMy45Njc1LDYuMzE1IDYuMTg3NSw2LjAzNzUgQzYuODQ3NSwzLjQxMjUgOS4yNDc1LDEuNSAxMiwxLjUgQzE0Ljc1MjUsMS41IDE3LjE1MjUsMy40MTI1IDE3LjgxMjUsNi4wMzc1IEMyMC4wMzI1LDYuMzE1IDIxLjc1LDguMjEyNSAyMS43NSwxMC41IEMyMS43NSwxMi45ODI1IDE5LjczMjUsMTUgMTcuMjUsMTUgWiBNNi43MTI1LDcuNSBDNS4wNzc1LDcuNTIyNSAzLjc1LDguODU3NSAzLjc1LDEwLjUgQzMuNzUsMTIuMTU3NSA1LjA5MjUsMTMuNSA2Ljc1LDEzLjUgTDE3LjI1LDEzLjUgQzE4LjkwNzUsMTMuNSAyMC4yNSwxMi4xNTc1IDIwLjI1LDEwLjUgQzIwLjI1LDguODU3NSAxOC45Myw3LjUyMjUgMTcuMjk1LDcuNSBMMTcuMjA1LDcuNTA3NSBMMTYuNTQ1LDcuNTIyNSBMMTYuNDU1LDYuODYyNSBDMTYuMTMyNSw0LjY1NzUgMTQuMjIsMyAxMiwzIEM5Ljc4LDMgNy44Njc1LDQuNjU3NSA3LjU1MjUsNi44NjI1IEw3LjQ2MjUsNy41MjI1IEw2LjcxMjUsNy41IFoiIGlkPSJTaGFwZSIgZmlsbD0iI0ZGRkZGRiIgZmlsbC1ydWxlPSJub256ZXJvIj48L3BhdGg+CiAgICAgICAgICAgICAgICAgICAgPHJlY3QgaWQ9IlJlY3RhbmdsZSIgeD0iMCIgeT0iMCIgd2lkdGg9IjI0IiBoZWlnaHQ9IjI0Ij48L3JlY3Q+CiAgICAgICAgICAgICAgICA8L2c+CiAgICAgICAgICAgIDwvZz4KICAgICAgICA8L2c+CiAgICA8L2c+Cjwvc3ZnPg==;fontFamily=IBM Plex Sans;fontSize=14;labelPosition=center;verticalLabelPosition=bottom;align=center;verticalAlign=top;spacingTop=-6;" vertex="1" parent="LZxzUFQRepn7Im_rXGNJ-138">
          <mxGeometry x="84.5" y="52" width="48" height="48" as="geometry" />
        </mxCell>
        <mxCell id="LZxzUFQRepn7Im_rXGNJ-144" value="" style="rounded=0;whiteSpace=wrap;html=1;fontFamily=IBM Plex Sans;fontSource=fonts%2FIBMPlexSans-Regular.woff;fontSize=14;fillColor=#f5f5f5;spacingBottom=-28;spacingTop=0;labelPosition=-100;verticalLabelPosition=top;align=center;verticalAlign=bottom;spacingLeft=9;spacing=0;expand=0;recursiveResize=0;spacingRight=0;container=0;collapsible=0;strokeColor=#666666;strokeWidth=2;dashed=1;dashPattern=1 2;fontColor=#333333;" vertex="1" parent="LZxzUFQRepn7Im_rXGNJ-134">
          <mxGeometry x="51" y="230" width="217" height="154" as="geometry">
            <mxRectangle width="670" as="alternateBounds" />
          </mxGeometry>
        </mxCell>
        <mxCell id="LZxzUFQRepn7Im_rXGNJ-145" value="Zone 2" style="text;html=1;strokeColor=none;fillColor=none;align=left;verticalAlign=middle;whiteSpace=wrap;rounded=0;fontFamily=IBM Plex Sans;fontSource=fonts%2FIBMPlexSans-Regular.woff;fontSize=14;" vertex="1" parent="LZxzUFQRepn7Im_rXGNJ-144">
          <mxGeometry x="51" y="8" width="168" height="20" as="geometry" />
        </mxCell>
        <mxCell id="LZxzUFQRepn7Im_rXGNJ-146" value="" style="shape=image;image=data:image/svg+xml,PD94bWwgdmVyc2lvbj0iMS4wIiBlbmNvZGluZz0iVVRGLTgiPz4KPHN2ZyB3aWR0aD0iMjlweCIgaGVpZ2h0PSIyNnB4IiB2aWV3Qm94PSIwIDAgMjkgMjYiIHZlcnNpb249IjEuMSIgeG1sbnM9Imh0dHA6Ly93d3cudzMub3JnLzIwMDAvc3ZnIiB4bWxuczp4bGluaz0iaHR0cDovL3d3dy53My5vcmcvMTk5OS94bGluayI+CiAgICA8IS0tIEdlbmVyYXRvcjogU2tldGNoIDUzICg3MjUyMCkgLSBodHRwczovL3NrZXRjaGFwcC5jb20gLS0+CiAgICA8dGl0bGU+Wm9uZSBCbGFjazwvdGl0bGU+CiAgICA8ZGVzYz5DcmVhdGVkIHdpdGggU2tldGNoLjwvZGVzYz4KICAgIDxnIGlkPSJQYWdlLTEiIHN0cm9rZT0ibm9uZSIgc3Ryb2tlLXdpZHRoPSIxIiBmaWxsPSJub25lIiBmaWxsLXJ1bGU9ImV2ZW5vZGQiPgogICAgICAgIDxnIGlkPSJab25lLUJsYWNrIiB0cmFuc2Zvcm09InRyYW5zbGF0ZSgwLjEyNTAwMCwgMC4wMDAwMDApIiBmaWxsPSIjMDAwMDAwIj4KICAgICAgICAgICAgPGcgaWQ9Ikdyb3VwLTMiPgogICAgICAgICAgICAgICAgPHBhdGggZD0iTTI2LjAwMDEsMjQuMDAwMSBMMjEuMDAwMSwyNC4wMDAxIEwyMS4wMDAxLDIwLjAwMDEgTDIzLjAwMDEsMjAuMDAwMSBMMjMuMDAwMSwxOC4wMDAxIEwyMS4wMDAxLDE4LjAwMDEgTDIxLjAwMDEsMTYuMDAwMSBMMjMuMDAwMSwxNi4wMDAxIEwyMy4wMDAxLDE0LjAwMDEgTDIxLjAwMDEsMTQuMDAwMSBMMjEuMDAwMSwxMi4wMDAxIEwyMy4wMDAxLDEyLjAwMDEgTDIzLjAwMDEsMTAuMDAwMSBMMjEuMDAwMSwxMC4wMDAxIEwyMS4wMDAxLDguMDAwMSBMMjYuMDAwMSw4LjAwMDEgTDI2LjAwMDEsMjQuMDAwMSBaIE05LjAwMDEsMjQuMDAwMSBMMTkuMDAwMSwyNC4wMDAxIEwxOS4wMDAxLDIuMDAwMSBMOS4wMDAxLDIuMDAwMSBMOS4wMDAxLDI0LjAwMDEgWiBNMi4wMDAxLDI0LjAwMDEgTDIuMDAwMSw4LjAwMDEgTDcuMDAwMSw4LjAwMDEgTDcuMDAwMSwxMC4wMDAxIEw1LjAwMDEsMTAuMDAwMSBMNS4wMDAxLDEyLjAwMDEgTDcuMDAwMSwxMi4wMDAxIEw3LjAwMDEsMTQuMDAwMSBMNS4wMDAxLDE0LjAwMDEgTDUuMDAwMSwxNi4wMDAxIEw3LjAwMDEsMTYuMDAwMSBMNy4wMDAxLDE4LjAwMDEgTDUuMDAwMSwxOC4wMDAxIEw1LjAwMDEsMjAuMDAwMSBMNy4wMDAxLDIwLjAwMDEgTDcuMDAwMSwyNC4wMDAxIEwyLjAwMDEsMjQuMDAwMSBaIE0yNi4wMDAxLDYuMDAwMSBMMjEuMDAwMSw2LjAwMDEgTDIxLjAwMDEsMi4wMDAxIEMyMC45OTkxLDAuODk2MSAyMC4xMDQxLDAuMDAxMSAxOS4wMDAxLDAuMDAwMSBMOS4wMDAxLDAuMDAwMSBDNy44OTYxLDAuMDAxMSA3LjAwMTEsMC44OTYxIDcuMDAwMSwyLjAwMDEgTDcuMDAwMSw2LjAwMDEgTDIuMDAwMSw2LjAwMDEgQzAuODk2MSw2LjAwMTEgMC4wMDExLDYuODk2MSAwLjAwMDEsOC4wMDAxIEwwLjAwMDEsMjQuMDAwMSBDMC4wMDExLDI1LjEwNDEgMC44OTYxLDI1Ljk5OTEgMi4wMDAxLDI2LjAwMDEgTDI2LjAwMDEsMjYuMDAwMSBDMjcuMTA0MSwyNS45OTkxIDI3Ljk5OTEsMjUuMTA0MSAyOC4wMDAxLDI0LjAwMDEgTDI4LjAwMDEsOC4wMDAxIEMyNy45OTkxLDYuODk2MSAyNy4xMDQxLDYuMDAxMSAyNi4wMDAxLDYuMDAwMSBMMjYuMDAwMSw2LjAwMDEgWiIgaWQ9IkZpbGwtMSI+PC9wYXRoPgogICAgICAgICAgICA8L2c+CiAgICAgICAgICAgIDxwb2x5Z29uIGlkPSJGaWxsLTQiIHBvaW50cz0iMTIgNiAxNiA2IDE2IDQgMTIgNCI+PC9wb2x5Z29uPgogICAgICAgICAgICA8cG9seWdvbiBpZD0iRmlsbC02IiBwb2ludHM9IjEyIDEwIDE2IDEwIDE2IDggMTIgOCI+PC9wb2x5Z29uPgogICAgICAgICAgICA8cG9seWdvbiBpZD0iRmlsbC03IiBwb2ludHM9IjEyIDE0IDE2IDE0IDE2IDEyIDEyIDEyIj48L3BvbHlnb24+CiAgICAgICAgPC9nPgogICAgPC9nPgo8L3N2Zz4=;" vertex="1" parent="LZxzUFQRepn7Im_rXGNJ-144">
          <mxGeometry x="18" y="12.07" width="24" height="24" as="geometry" />
        </mxCell>
        <mxCell id="LZxzUFQRepn7Im_rXGNJ-147" style="edgeStyle=orthogonalEdgeStyle;rounded=0;orthogonalLoop=1;jettySize=auto;html=1;exitX=0;exitY=0.5;exitDx=0;exitDy=0;entryX=1.009;entryY=0.22;entryDx=0;entryDy=0;entryPerimeter=0;fontFamily=IBM Plex Sans;fontSource=fonts%2FIBMPlexSans-Regular.woff;fontSize=14;startArrow=oval;startFill=1;strokeColor=#198038;" edge="1" parent="LZxzUFQRepn7Im_rXGNJ-144">
          <mxGeometry relative="1" as="geometry" />
        </mxCell>
        <mxCell id="LZxzUFQRepn7Im_rXGNJ-148" value="Public&#xa;Gateway" style="shape=image;verticalLabelPosition=middle;verticalAlign=middle;imageAspect=0;aspect=fixed;image=data:image/svg+xml,PHN2ZyB4bWxuczp4bGluaz0iaHR0cDovL3d3dy53My5vcmcvMTk5OS94bGluayIgeG1sbnM9Imh0dHA6Ly93d3cudzMub3JnLzIwMDAvc3ZnIiB2ZXJzaW9uPSIxLjEiIHZpZXdCb3g9IjAgMCA0OCA0OCIgaGVpZ2h0PSI0OHB4IiB3aWR0aD0iNDhweCI+JiN4YTsgICAgPHRpdGxlPmdhdGV3YXktLXB1YmxpYzwvdGl0bGU+JiN4YTsgICAgPGcgZmlsbC1ydWxlPSJldmVub2RkIiBmaWxsPSJub25lIiBzdHJva2Utd2lkdGg9IjEiIHN0cm9rZT0ibm9uZSIgaWQ9IlYyLUljb25zIj4mI3hhOyAgICAgICAgPGcgdHJhbnNmb3JtPSJ0cmFuc2xhdGUoLTYzNywgLTg2KSIgaWQ9IklCTS9DbG91ZC9OZXR3b3JrIj4mI3hhOyAgICAgICAgICAgIDxnIHRyYW5zZm9ybT0idHJhbnNsYXRlKDYzNywgODYpIiBpZD0iZ2F0ZXdheS0tcHVibGljIj4mI3hhOyAgICAgICAgICAgICAgICA8cmVjdCBoZWlnaHQ9IjQ4IiB3aWR0aD0iNDgiIHk9IjAiIHg9IjAiIGZpbGw9IiMxMTkyRTgiIGlkPSJSZWN0YW5nbGUtQ29weS0xOSIvPiYjeGE7ICAgICAgICAgICAgICAgIDxnIHRyYW5zZm9ybT0idHJhbnNsYXRlKDEyLCAxMikiPiYjeGE7ICAgICAgICAgICAgICAgICAgICA8cGF0aCBmaWxsLXJ1bGU9Im5vbnplcm8iIGZpbGw9IiNGRkZGRkYiIGlkPSJTaGFwZSIgZD0iTTE0LjI1LDEwLjUgTDEwLjUsMTAuNSBMMTAuNSw5IEMxMC41LDguMTcxNTcyODggMTEuMTcxNTcyOSw3LjUgMTIsNy41IEMxMi44Mjg0MjcxLDcuNSAxMy41LDguMTcxNTcyODggMTMuNSw5IEwxNSw5IEMxNSw3LjM0MzE0NTc1IDEzLjY1Njg1NDIsNiAxMiw2IEMxMC4zNDMxNDU4LDYgOSw3LjM0MzE0NTc1IDksOSBMOSwxMC43MDg3MjUgQzguNTM3NDk0NywxMC45NzQ0ODI5IDguMjUxNjczNTIsMTEuNDY2NTgxMiA4LjI1LDEyIEw4LjI1LDE1Ljc1IEM4LjI1MDk1MDYsMTYuNTc4MDMzMSA4LjkyMTk2Njk1LDE3LjI0OTA0OTQgOS43NSwxNy4yNSBMMTQuMjUsMTcuMjUgQzE1LjA3ODAzMzEsMTcuMjQ5MDQ5NCAxNS43NDkwNDk0LDE2LjU3ODAzMzEgMTUuNzUsMTUuNzUgTDE1Ljc1LDEyIEMxNS43NDkwNDk0LDExLjE3MTk2NjkgMTUuMDc4MDMzMSwxMC41MDA5NTA2IDE0LjI1LDEwLjUgWiBNMTQuMjUsMTUuNzUgTDkuNzUsMTUuNzUgTDkuNzUsMTIgTDE0LjI1LDEyIEwxNC4yNSwxNS43NSBaIi8+JiN4YTsgICAgICAgICAgICAgICAgICAgIDxwYXRoIGZpbGwtcnVsZT0ibm9uemVybyIgZmlsbD0iI0ZGRkZGRiIgaWQ9IlNoYXBlIiBkPSJNMjIuODEwNTc1LDEzLjA2MDU3NSBDMjMuMDkxOTE5NCwxMi43NzkzMjYxIDIzLjI0OTk4NSwxMi4zOTc4MTM1IDIzLjI0OTk4NSwxMiBDMjMuMjQ5OTg1LDExLjYwMjE4NjUgMjMuMDkxOTE5NCwxMS4yMjA2NzM5IDIyLjgxMDU3NSwxMC45Mzk0MjUgTDE4LjQ3MDQsNi41OTk0NzUgTDIwLjY0NTg1LDQuNDUyMzc1IEMyMS4zMDU1MTE4LDQuNjE1ODM5NDggMjEuOTkyNzEzOSw0LjMxNTc5MDM4IDIyLjMyMTI0MTQsMy43MjA4NTg0MSBDMjIuNjQ5NzY5LDMuMTI1OTI2NDUgMjIuNTM3NjgwMSwyLjM4NDUwMDY2IDIyLjA0Nzk2OTgsMS45MTMyNzAwNiBDMjEuNTU4MjU5NiwxLjQ0MjAzOTQ2IDIwLjgxMzA3MjUsMS4zNTg1MzkyNiAyMC4yMzEyMTE0LDEuNzA5Njk3NDQgQzE5LjY0OTM1MDMsMi4wNjA4NTU2MiAxOS4zNzU5NDQyLDIuNzU5MDg1NjYgMTkuNTY0NjUsMy40MTE5NzUgTDE3LjQwOTY3NSw1LjUzODYgTDEzLjA2MDU3NSwxLjE4OTQyNSBDMTIuNzc5MzI2MSwwLjkwODA4MDYzMyAxMi4zOTc4MTM1LDAuNzUwMDE0OTgzIDEyLDAuNzUwMDE0OTgzIEMxMS42MDIxODY1LDAuNzUwMDE0OTgzIDExLjIyMDY3MzksMC45MDgwODA2MzMgMTAuOTM5NDI1LDEuMTg5NDI1IEw2LjU5OTQ3NSw1LjUyOTQ1IEw0LjQ1MjYsMy4zNTM3NzUgQzQuNjE1OTcxODYsMi42OTM5OTg2MiA0LjMxNTc1MDI2LDIuMDA2NzYwNjIgMy43MjA2NzEzNCwxLjY3ODMxNTMxIEMzLjEyNTU5MjQzLDEuMzQ5ODcgMi4zODQwOTE1MiwxLjQ2MjE0NDEzIDEuOTEyOTIwNzgsMS45NTIwMzUzMiBDMS40NDE3NTAwNCwyLjQ0MTkyNjUgMS4zNTg0MzczNywzLjE4NzIzNzIyIDEuNzA5ODA3NzIsMy43NjkwNzQwNyBDMi4wNjExNzgwNyw0LjM1MDkxMDkyIDIuNzU5NTg2Myw0LjYyNDE0MTYzIDMuNDEyNSw0LjQzNTIgTDUuNTM4NzUsNi41OTAzMjUgTDEuMTg5NDI1LDEwLjkzOTQyNSBDMC45MDgwODA2MzMsMTEuMjIwNjczOSAwLjc1MDAxNDk4MywxMS42MDIxODY1IDAuNzUwMDE0OTgzLDEyIEMwLjc1MDAxNDk4MywxMi4zOTc4MTM1IDAuOTA4MDgwNjMzLDEyLjc3OTMyNjEgMS4xODk0MjUsMTMuMDYwNTc1IEw1LjUzODYsMTcuNDA5Njc1IEwzLjQxMjUsMTkuNTY0OCBDMi43NjEwNzcwNiwxOS4zNzcyNDU0IDIuMDY0ODc5MzYsMTkuNjUwNDQxNCAxLjcxNDg2MjE2LDIwLjIzMDk3MjYgQzEuMzY0ODQ0OTUsMjAuODExNTAzOSAxLjQ0ODIxOTMzLDIxLjU1NDcyMzkgMS45MTgxNjU3NywyMi4wNDMyNzE3IEMyLjM4ODExMjIxLDIyLjUzMTgxOTUgMy4xMjc1Mzc3NSwyMi42NDM5NjczIDMuNzIxMjEyMjMsMjIuMzE2NzM3NyBDNC4zMTQ4ODY3MSwyMS45ODk1MDgxIDQuNjE0ODg4OCwyMS4zMDQ0MzQ0IDQuNDUyNzUsMjAuNjQ2MjI1IEw2LjU5OTYyNSwxOC40NzA1NSBMMTAuOTM5NTc1LDIyLjgxMDU3NSBDMTEuMjIwODIzOSwyMy4wOTE5MTk0IDExLjYwMjMzNjUsMjMuMjQ5OTg1IDEyLjAwMDE1LDIzLjI0OTk4NSBDMTIuMzk3OTYzNSwyMy4yNDk5ODUgMTIuNzc5NDc2MSwyMy4wOTE5MTk0IDEzLjA2MDcyNSwyMi44MTA1NzUgTDE3LjQwOTgyNSwxOC40NjE0IEwxOS41NjQ4LDIwLjU4ODAyNSBDMTkuMzc3MjUyMywyMS4yMzk1ODc1IDE5LjY1MDU2OTEsMjEuOTM1OTAwNiAyMC4yMzEyNTYxLDIyLjI4NTkxNTYgQzIwLjgxMTk0MzEsMjIuNjM1OTMwNiAyMS41NTUzMDEyLDIyLjU1MjQyODggMjIuMDQzODYxNiwyMi4wODIzMDQ3IEMyMi41MzI0MjE5LDIxLjYxMjE4MDYgMjIuNjQ0NDQyMSwyMC44NzI1ODI0IDIyLjMxNzAxMTgsMjAuMjc4ODY3NyBDMjEuOTg5NTgxNCwxOS42ODUxNTI5IDIxLjMwNDI5MTUsMTkuMzg1MjY2OCAyMC42NDYsMTkuNTQ3NjI1IEwxOC40NzA1NSwxNy40MDA1MjUgTDIyLjgxMDU3NSwxMy4wNjA1NzUgWiBNMTIsMjEuNzUgTDIuMjUsMTIgTDEyLDIuMjUgTDIxLjc1LDEyIEwxMiwyMS43NSBaIi8+JiN4YTsgICAgICAgICAgICAgICAgICAgIDxyZWN0IGhlaWdodD0iMjQiIHdpZHRoPSIyNCIgeT0iMCIgeD0iMCIgaWQ9Il9UcmFuc3BhcmVudF9SZWN0YW5nbGVfIi8+JiN4YTsgICAgICAgICAgICAgICAgPC9nPiYjeGE7ICAgICAgICAgICAgPC9nPiYjeGE7ICAgICAgICA8L2c+JiN4YTsgICAgPC9nPiYjeGE7PC9zdmc+;fontFamily=IBM Plex Sans;fontSize=14;spacingTop=-7;labelPosition=right;align=left;" vertex="1" parent="LZxzUFQRepn7Im_rXGNJ-144">
          <mxGeometry x="187" y="53" width="48" height="48" as="geometry" />
        </mxCell>
        <mxCell id="LZxzUFQRepn7Im_rXGNJ-149" value="dev-eu-box" style="shape=image;aspect=fixed;image=data:image/svg+xml,PD94bWwgdmVyc2lvbj0iMS4wIiBlbmNvZGluZz0iVVRGLTgiPz4KPHN2ZyB3aWR0aD0iNDhweCIgaGVpZ2h0PSI0OXB4IiB2aWV3Qm94PSIwIDAgNDggNDkiIHZlcnNpb249IjEuMSIgeG1sbnM9Imh0dHA6Ly93d3cudzMub3JnLzIwMDAvc3ZnIiB4bWxuczp4bGluaz0iaHR0cDovL3d3dy53My5vcmcvMTk5OS94bGluayI+CiAgICA8dGl0bGU+VmlydHVhbCBTZXJ2ZXIgQ2xhc3NpYzwvdGl0bGU+CiAgICA8ZyBpZD0iVjItSWNvbnMiIHN0cm9rZT0ibm9uZSIgc3Ryb2tlLXdpZHRoPSIxIiBmaWxsPSJub25lIiBmaWxsLXJ1bGU9ImV2ZW5vZGQiPgogICAgICAgIDxnIGlkPSJJQk0tLy1DbG91ZC0vLUNvbXB1dGUiIHRyYW5zZm9ybT0idHJhbnNsYXRlKC0xMjUzLCAtNDgpIj4KICAgICAgICAgICAgPGcgaWQ9IlZpcnR1YWwtU2VydmVyLUNsYXNzaWMiIHRyYW5zZm9ybT0idHJhbnNsYXRlKDEyNTMsIDQ4LjM0MjEpIj4KICAgICAgICAgICAgICAgIDxwb2x5Z29uIGlkPSJSZWN0YW5nbGUiIGZpbGw9IiMxOTgwMzgiIHBvaW50cz0iMCA0OCA0OCA0OCA0OCAwIDAgMCI+PC9wb2x5Z29uPgogICAgICAgICAgICAgICAgPGcgaWQ9ImlibS1jbG91ZC0tdmlydHVhbC1zZXJ2ZXItdnBjIiB0cmFuc2Zvcm09InRyYW5zbGF0ZSgxMS45OTU4LCAxMS42NTc5KSI+CiAgICAgICAgICAgICAgICAgICAgPGNpcmNsZSBpZD0iT3ZhbCIgZmlsbD0iI0ZGRkZGRiIgZmlsbC1ydWxlPSJub256ZXJvIiBjeD0iNiIgY3k9IjE5LjUiIHI9IjEiPjwvY2lyY2xlPgogICAgICAgICAgICAgICAgICAgIDxwYXRoIGQ9Ik0zLjc1LDIyLjUgTDIwLjI1LDIyLjUgQzIxLjA3NSwyMi41IDIxLjc1LDIxLjgyNSAyMS43NSwyMSBMMjEuNzUsMTggQzIxLjc1LDE3LjE3NSAyMS4wNzUsMTYuNSAyMC4yNSwxNi41IEwzLjc1LDE2LjUgQzIuOTI1LDE2LjUgMi4yNSwxNy4xNzUgMi4yNSwxOCBMMi4yNSwyMSBDMi4yNSwyMS44MjUgMi45MjUsMjIuNSAzLjc1LDIyLjUgWiBNMy43NSwxOCBMMjAuMjUsMTggTDIwLjI1LDIxIEwzLjc1LDIxIEwzLjc1LDE4IFoiIGlkPSJTaGFwZSIgZmlsbD0iI0ZGRkZGRiIgZmlsbC1ydWxlPSJub256ZXJvIj48L3BhdGg+CiAgICAgICAgICAgICAgICAgICAgPHBhdGggZD0iTTE3LjI1LDE1IEw2Ljc1LDE1IEM0LjI2NzUsMTUgMi4yNSwxMi45ODI1IDIuMjUsMTAuNSBDMi4yNSw4LjIxMjUgMy45Njc1LDYuMzE1IDYuMTg3NSw2LjAzNzUgQzYuODQ3NSwzLjQxMjUgOS4yNDc1LDEuNSAxMiwxLjUgQzE0Ljc1MjUsMS41IDE3LjE1MjUsMy40MTI1IDE3LjgxMjUsNi4wMzc1IEMyMC4wMzI1LDYuMzE1IDIxLjc1LDguMjEyNSAyMS43NSwxMC41IEMyMS43NSwxMi45ODI1IDE5LjczMjUsMTUgMTcuMjUsMTUgWiBNNi43MTI1LDcuNSBDNS4wNzc1LDcuNTIyNSAzLjc1LDguODU3NSAzLjc1LDEwLjUgQzMuNzUsMTIuMTU3NSA1LjA5MjUsMTMuNSA2Ljc1LDEzLjUgTDE3LjI1LDEzLjUgQzE4LjkwNzUsMTMuNSAyMC4yNSwxMi4xNTc1IDIwLjI1LDEwLjUgQzIwLjI1LDguODU3NSAxOC45Myw3LjUyMjUgMTcuMjk1LDcuNSBMMTcuMjA1LDcuNTA3NSBMMTYuNTQ1LDcuNTIyNSBMMTYuNDU1LDYuODYyNSBDMTYuMTMyNSw0LjY1NzUgMTQuMjIsMyAxMiwzIEM5Ljc4LDMgNy44Njc1LDQuNjU3NSA3LjU1MjUsNi44NjI1IEw3LjQ2MjUsNy41MjI1IEw2LjcxMjUsNy41IFoiIGlkPSJTaGFwZSIgZmlsbD0iI0ZGRkZGRiIgZmlsbC1ydWxlPSJub256ZXJvIj48L3BhdGg+CiAgICAgICAgICAgICAgICAgICAgPHJlY3QgaWQ9IlJlY3RhbmdsZSIgeD0iMCIgeT0iMCIgd2lkdGg9IjI0IiBoZWlnaHQ9IjI0Ij48L3JlY3Q+CiAgICAgICAgICAgICAgICA8L2c+CiAgICAgICAgICAgIDwvZz4KICAgICAgICA8L2c+CiAgICA8L2c+Cjwvc3ZnPg==;fontFamily=IBM Plex Sans;fontSize=14;labelPosition=center;verticalLabelPosition=bottom;align=center;verticalAlign=top;spacingTop=-6;" vertex="1" parent="LZxzUFQRepn7Im_rXGNJ-144">
          <mxGeometry x="84.5" y="52" width="48" height="48" as="geometry" />
        </mxCell>
        <mxCell id="LZxzUFQRepn7Im_rXGNJ-150" value="Flow&#xa;Logs" style="shape=image;aspect=fixed;image=data:image/svg+xml,PD94bWwgdmVyc2lvbj0iMS4wIiBlbmNvZGluZz0iVVRGLTgiPz4KPHN2ZyB3aWR0aD0iNDhweCIgaGVpZ2h0PSI0OHB4IiB2aWV3Qm94PSIwIDAgNDggNDgiIHZlcnNpb249IjEuMSIgeG1sbnM9Imh0dHA6Ly93d3cudzMub3JnLzIwMDAvc3ZnIiB4bWxuczp4bGluaz0iaHR0cDovL3d3dy53My5vcmcvMTk5OS94bGluayI+CiAgICA8dGl0bGU+Zmxvdy1sb2dzLXZwYzwvdGl0bGU+CiAgICA8ZyBpZD0iVjItSWNvbnMiIHN0cm9rZT0ibm9uZSIgc3Ryb2tlLXdpZHRoPSIxIiBmaWxsPSJub25lIiBmaWxsLXJ1bGU9ImV2ZW5vZGQiPgogICAgICAgIDxnIGlkPSJJQk0tQ2xvdWQtLy1PYnNlcnZhYmlsaXR5IiB0cmFuc2Zvcm09InRyYW5zbGF0ZSgtNTYwLCAtNDgpIj4KICAgICAgICAgICAgPGcgaWQ9ImZsb3ctbG9ncy12cGMiIHRyYW5zZm9ybT0idHJhbnNsYXRlKDU2MCwgNDgpIj4KICAgICAgICAgICAgICAgIDxyZWN0IGlkPSJSZWN0YW5nbGUtQ29weS0yOCIgZmlsbD0iIzAwOUQ5QSIgeD0iMCIgeT0iMCIgd2lkdGg9IjQ4IiBoZWlnaHQ9IjQ4Ij48L3JlY3Q+CiAgICAgICAgICAgICAgICA8ZyBpZD0iZmxvdy1sb2dzLXZwYygxKSIgdHJhbnNmb3JtPSJ0cmFuc2xhdGUoMTIsIDEyKSI+CiAgICAgICAgICAgICAgICAgICAgPHJlY3QgaWQ9IlJlY3RhbmdsZSIgZmlsbD0iI0ZGRkZGRiIgZmlsbC1ydWxlPSJub256ZXJvIiB4PSIxMy41IiB5PSIxNC4yNSIgd2lkdGg9IjkiIGhlaWdodD0iMS41Ij48L3JlY3Q+CiAgICAgICAgICAgICAgICAgICAgPHJlY3QgaWQ9IlJlY3RhbmdsZSIgZmlsbD0iI0ZGRkZGRiIgZmlsbC1ydWxlPSJub256ZXJvIiB4PSIxMy41IiB5PSIxNy4yNSIgd2lkdGg9IjkiIGhlaWdodD0iMS41Ij48L3JlY3Q+CiAgICAgICAgICAgICAgICAgICAgPHJlY3QgaWQ9IlJlY3RhbmdsZSIgZmlsbD0iI0ZGRkZGRiIgZmlsbC1ydWxlPSJub256ZXJvIiB4PSIxMy41IiB5PSIyMC4yNSIgd2lkdGg9IjYiIGhlaWdodD0iMS41Ij48L3JlY3Q+CiAgICAgICAgICAgICAgICAgICAgPHBhdGggZD0iTTE4LDMgQzE2LjYzNTg3NDMsMy4wMDQxNDUyOCAxNS40NDY2Mjg4LDMuOTI4OTMyNDcgMTUuMTA2NTc1LDUuMjUgTDksNS4yNSBMOSwzIEwzLDMgTDMsOSBMOSw5IEw5LDYuNzUgTDE1LjEwNjU3NSw2Ljc1IEMxNS4xNzYzODA5LDcuMDE4NDQwMDEgMTUuMjgzNjMzNiw3LjI3NTcxNTAzIDE1LjQyNTE3NSw3LjUxNDI1IEw3LjUxNDI1LDE1LjQyNTE3NSBDNy4wNTY5OTY4NiwxNS4xNDk2NzYzIDYuNTMzODI3OTEsMTUuMDAyNzc5NiA2LDE1IEM0LjQzOTU1MTE4LDE0Ljk5NDExODYgMy4xMzUxNTk2OCwxNi4xODU0ODYzIDIuOTk5OTcyMTUsMTcuNzQwMDc5MyBDMi44NjQ3ODQ2MSwxOS4yOTQ2NzIzIDMuOTQzOTQ4NjgsMjAuNjkzMzE0MSA1LjQ4MTk4OTQ0LDIwLjk1Njg3NzcgQzcuMDIwMDMwMiwyMS4yMjA0NDEyIDguNTAzMjk4OTQsMjAuMjYwOTA1OSA4Ljg5MzQyNSwxOC43NSBMMTIsMTguNzUgTDEyLDE3LjI1IEw4Ljg5MzQyNSwxNy4yNSBDOC44MjM2MTkwNiwxNi45ODE1NiA4LjcxNjM2NjQzLDE2LjcyNDI4NSA4LjU3NDgyNSwxNi40ODU3NSBMMTYuNDg1NzUsOC41NzQ4MjUgQzE2Ljk0MzAwMzEsOC44NTAzMjM2OSAxNy40NjYxNzIxLDguOTk3MjIwNDEgMTgsOSBDMTkuNjU2ODU0Miw5IDIxLDcuNjU2ODU0MjUgMjEsNiBDMjEsNC4zNDMxNDU3NSAxOS42NTY4NTQyLDMgMTgsMyBaIE03LjUsNy41IEw0LjUsNy41IEw0LjUsNC41IEw3LjUsNC41IEw3LjUsNy41IFogTTYsMTkuNSBDNS4xNzE1NzI4OCwxOS41IDQuNSwxOC44Mjg0MjcxIDQuNSwxOCBDNC41LDE3LjE3MTU3MjkgNS4xNzE1NzI4OCwxNi41IDYsMTYuNSBDNi44Mjg0MjcxMiwxNi41IDcuNSwxNy4xNzE1NzI5IDcuNSwxOCBDNy40OTkwNDk0LDE4LjgyODAzMzEgNi44MjgwMzMwNSwxOS40OTkwNDk0IDYsMTkuNSBaIE0xOCw3LjUgQzE3LjE3MTU3MjksNy41IDE2LjUsNi44Mjg0MjcxMiAxNi41LDYgQzE2LjUsNS4xNzE1NzI4OCAxNy4xNzE1NzI5LDQuNSAxOCw0LjUgQzE4LjgyODQyNzEsNC41IDE5LjUsNS4xNzE1NzI4OCAxOS41LDYgQzE5LjQ5OTA0OTQsNi44MjgwMzMwNSAxOC44MjgwMzMxLDcuNDk5MDQ5NCAxOCw3LjUgTDE4LDcuNSBaIiBpZD0iU2hhcGUiIGZpbGw9IiNGRkZGRkYiIGZpbGwtcnVsZT0ibm9uemVybyI+PC9wYXRoPgogICAgICAgICAgICAgICAgICAgIDxyZWN0IGlkPSJfVHJhbnNwYXJlbnRfUmVjdGFuZ2xlXyIgeD0iMCIgeT0iMCIgd2lkdGg9IjI0IiBoZWlnaHQ9IjI0Ij48L3JlY3Q+CiAgICAgICAgICAgICAgICA8L2c+CiAgICAgICAgICAgIDwvZz4KICAgICAgICA8L2c+CiAgICA8L2c+Cjwvc3ZnPg==;fontFamily=IBM Plex Sans;fontSize=14;spacingTop=-7;labelPosition=left;verticalLabelPosition=middle;align=right;verticalAlign=middle;" vertex="1" parent="LZxzUFQRepn7Im_rXGNJ-134">
          <mxGeometry x="346.34000000000003" y="352" width="48" height="48" as="geometry" />
        </mxCell>
        <mxCell id="LZxzUFQRepn7Im_rXGNJ-151" value="madrid collector&#xa;bucket" style="shape=image;aspect=fixed;image=data:image/svg+xml,PD94bWwgdmVyc2lvbj0iMS4wIiBlbmNvZGluZz0iVVRGLTgiPz4KPHN2ZyB3aWR0aD0iNDhweCIgaGVpZ2h0PSI0OXB4IiB2aWV3Qm94PSIwIDAgNDggNDkiIHZlcnNpb249IjEuMSIgeG1sbnM9Imh0dHA6Ly93d3cudzMub3JnLzIwMDAvc3ZnIiB4bWxuczp4bGluaz0iaHR0cDovL3d3dy53My5vcmcvMTk5OS94bGluayI+CiAgICA8dGl0bGU+T2JqZWN0IEJ1Y2tldDwvdGl0bGU+CiAgICA8ZyBpZD0iVjItSWNvbnMiIHN0cm9rZT0ibm9uZSIgc3Ryb2tlLXdpZHRoPSIxIiBmaWxsPSJub25lIiBmaWxsLXJ1bGU9ImV2ZW5vZGQiPgogICAgICAgIDxnIGlkPSJJQk0tLy1DbG91ZC0vLVN0b3JhZ2UiIHRyYW5zZm9ybT0idHJhbnNsYXRlKC01MzQsIC00NykiPgogICAgICAgICAgICA8ZyBpZD0iT2JqZWN0LUJ1Y2tldCIgdHJhbnNmb3JtPSJ0cmFuc2xhdGUoNTM0LCA0Ny45MzYyKSI+CiAgICAgICAgICAgICAgICA8cG9seWdvbiBpZD0iRmlsbC00IiBmaWxsPSIjMEY2MkZFIiBwb2ludHM9IjAgNDggNDggNDggNDggMCAwIDAiPjwvcG9seWdvbj4KICAgICAgICAgICAgICAgIDxwYXRoIGQ9Ik0yOC43NSwzMC4wNjM3NzczIEMyOC4xODE3NTExLDMwLjA2NTAwMjUgMjcuNjM1MzA1NiwzMC4yODI2MzEzIDI3LjIyMTgsMzAuNjcyNDAyMyBMMjQuMjE5MDI1LDI4Ljg3MDY3NzMgQzI0LjI2MDMyNTUsMjguNjY4MTYxNiAyNC4yNjAzMjU1LDI4LjQ1OTM5MzEgMjQuMjE5MDI1LDI4LjI1Njg3NzMgTDI3LjIyMTgsMjYuNDU1MTUyMyBDMjguMDczODYzLDI3LjI5NzA0MzYgMjkuNDExNzE0MiwyNy4zOTQxMDYxIDMwLjM3NjM3NDYsMjYuNjg0MDE5OSBDMzEuMzQxMDM1MSwyNS45NzM5MzM4IDMxLjY0NTg5ODUsMjQuNjY3NjY5OSAzMS4wOTUyMjQ1LDIzLjYwMzkyNjMgQzMwLjU0NDU1MDUsMjIuNTQwMTgyNyAyOS4zMDE5NDc4LDIyLjAzNTAwNDEgMjguMTY1MjQwMiwyMi40MTI3NDQ3IEMyNy4wMjg1MzI2LDIyLjc5MDQ4NTQgMjYuMzM1NDQyNywyMy45Mzg5MTYyIDI2LjUzMDk3NSwyNS4xMjA2NzczIEwyMy41MjgyLDI2LjkyMjQwMjMgQzIyLjYzNTQyMDEsMjYuMDg1MzI5OSAyMS4yMzczMTA5LDI2LjExNTM0MDMgMjAuMzgxMjcyMiwyNi45ODk5NTEgQzE5LjUyNTIzMzUsMjcuODY0NTYxNyAxOS41MjUyMzM1LDI5LjI2Mjk5MjkgMjAuMzgxMjcyMiwzMC4xMzc2MDM3IEMyMS4yMzczMTA5LDMxLjAxMjIxNDQgMjIuNjM1NDIwMSwzMS4wNDIyMjQ3IDIzLjUyODIsMzAuMjA1MTUyMyBMMjYuNTMwOTc1LDMyLjAwNjg3NzMgQzI2LjUxMzU3NzcsMzIuMTA4MzM5NiAyNi41MDMyMjc5LDMyLjIxMDg4NDkgMjYuNSwzMi4zMTM3NzczIEMyNi41LDMzLjU1NjQxOCAyNy41MDczNTkzLDM0LjU2Mzc3NzMgMjguNzUsMzQuNTYzNzc3MyBDMjkuOTkyNjQwNywzNC41NjM3NzczIDMxLDMzLjU1NjQxOCAzMSwzMi4zMTM3NzczIEMzMSwzMS4wNzExMzY2IDI5Ljk5MjY0MDcsMzAuMDYzNzc3MyAyOC43NSwzMC4wNjM3NzczIFogTTI4Ljc1LDI0LjA2Mzc3NzMgQzI5LjE2NDIxMzYsMjQuMDYzNzc3MyAyOS41LDI0LjM5OTU2MzggMjkuNSwyNC44MTM3NzczIEMyOS41LDI1LjIyNzk5MDkgMjkuMTY0MjEzNiwyNS41NjM3NzczIDI4Ljc1LDI1LjU2Mzc3NzMgQzI4LjMzNTc4NjQsMjUuNTYzNzc3MyAyOCwyNS4yMjc5OTA5IDI4LDI0LjgxMzc3NzMgQzI4LjAwMDMzMDksMjQuMzk5NzAwOSAyOC4zMzU5MjM2LDI0LjA2NDEwODIgMjguNzUsMjQuMDYzNzc3MyBMMjguNzUsMjQuMDYzNzc3MyBaIE0yMiwyOS4zMTM3NzczIEMyMS41ODU3ODY0LDI5LjMxMzc3NzMgMjEuMjUsMjguOTc3OTkwOSAyMS4yNSwyOC41NjM3NzczIEMyMS4yNSwyOC4xNDk1NjM4IDIxLjU4NTc4NjQsMjcuODEzNzc3MyAyMiwyNy44MTM3NzczIEMyMi40MTQyMTM2LDI3LjgxMzc3NzMgMjIuNzUsMjguMTQ5NTYzOCAyMi43NSwyOC41NjM3NzczIEMyMi43NDk2NjkxLDI4Ljk3Nzg1MzggMjIuNDE0MDc2NCwyOS4zMTM0NDY1IDIyLDI5LjMxMzc3NzMgTDIyLDI5LjMxMzc3NzMgWiBNMjguNzUsMzMuMDYzNzc3MyBDMjguMzM1Nzg2NCwzMy4wNjM3NzczIDI4LDMyLjcyNzk5MDkgMjgsMzIuMzEzNzc3MyBDMjgsMzEuODk5NTYzOCAyOC4zMzU3ODY0LDMxLjU2Mzc3NzMgMjguNzUsMzEuNTYzNzc3MyBDMjkuMTY0MjEzNiwzMS41NjM3NzczIDI5LjUsMzEuODk5NTYzOCAyOS41LDMyLjMxMzc3NzMgQzI5LjQ5OTY2OTEsMzIuNzI3ODUzOCAyOS4xNjQwNzY0LDMzLjA2MzQ0NjUgMjguNzUsMzMuMDYzNzc3MyBaIiBpZD0iU2hhcGUiIGZpbGw9IiNGRkZGRkYiIGZpbGwtcnVsZT0ibm9uemVybyI+PC9wYXRoPgogICAgICAgICAgICAgICAgPHBhdGggZD0iTTE3LjUsMzMuMDYzNzcxNSBMMTQuNSwzMy4wNjM3NzE1IEMxMy42NzE5NjY5LDMzLjA2MjgyNjcgMTMuMDAwOTUwNiwzMi4zOTE4MTA0IDEzLDMxLjU2Mzc3MTUgTDEzLDE2LjU2Mzc3MTUgQzEzLjAwMDk1MDYsMTUuNzM1NzQ0MyAxMy42NzE5NjY5LDE1LjA2NDcyNzkgMTQuNSwxNS4wNjM3NzE1IEwyMC4xODkyNzUsMTUuMDYzNzcxNSBDMjAuNTg3MzU2NywxNS4wNjI2NjE0IDIwLjk2OTMyOTMsMTUuMjIwOTAwNiAyMS4yNSwxNS41MDMyMDIzIEwyMy44MTA3MjUsMTguMDYzNzcxNSBMMzIuNSwxOC4wNjM3NzE1IEMzMy4zMjgwMzMxLDE4LjA2NDcyNzkgMzMuOTk5MDQ5NCwxOC43MzU3NDQzIDM0LDE5LjU2Mzc3MTUgTDM0LDI1LjU2Mzc3MTUgTDMyLjUsMjUuNTYzNzcxNSBMMzIuNSwxOS41NjM3NzE1IEwyMy4xODkyNzUsMTkuNTYzNzcxNSBMMjAuMTg5Mjc1LDE2LjU2Mzc3MTUgTDE0LjUsMTYuNTYzNzcxNSBMMTQuNSwzMS41NjM3NzE1IEwxNy41LDMxLjU2Mzc3MTUgTDE3LjUsMzMuMDYzNzcxNSBaIiBpZD0iUGF0aCIgZmlsbD0iI0ZGRkZGRiIgZmlsbC1ydWxlPSJub256ZXJvIj48L3BhdGg+CiAgICAgICAgICAgICAgICA8cmVjdCBpZD0iX1RyYW5zcGFyZW50X1JlY3RhbmdsZV8iIHg9IjExLjUiIHk9IjEyLjA2Mzc3NzMiIHdpZHRoPSIyNCIgaGVpZ2h0PSIyNCI+PC9yZWN0PgogICAgICAgICAgICA8L2c+CiAgICAgICAgPC9nPgogICAgPC9nPgo8L3N2Zz4=;fontFamily=IBM Plex Sans;fontSize=14;labelPosition=center;verticalLabelPosition=bottom;align=center;verticalAlign=top;spacingTop=-7;" vertex="1" parent="LZxzUFQRepn7Im_rXGNJ-129">
          <mxGeometry x="276" y="480" width="48" height="48" as="geometry" />
        </mxCell>
        <mxCell id="LZxzUFQRepn7Im_rXGNJ-152" style="edgeStyle=orthogonalEdgeStyle;rounded=0;orthogonalLoop=1;jettySize=auto;html=1;fillColor=#ffe6cc;strokeColor=#d79b00;" edge="1" parent="LZxzUFQRepn7Im_rXGNJ-129" source="LZxzUFQRepn7Im_rXGNJ-154" target="LZxzUFQRepn7Im_rXGNJ-151">
          <mxGeometry relative="1" as="geometry" />
        </mxCell>
        <mxCell id="LZxzUFQRepn7Im_rXGNJ-153" value="archive query" style="edgeLabel;html=1;align=center;verticalAlign=middle;resizable=0;points=[];" vertex="1" connectable="0" parent="LZxzUFQRepn7Im_rXGNJ-152">
          <mxGeometry x="-0.0156" y="1" relative="1" as="geometry">
            <mxPoint as="offset" />
          </mxGeometry>
        </mxCell>
        <mxCell id="LZxzUFQRepn7Im_rXGNJ-154" value="Cloud logs" style="shape=image;aspect=fixed;image=data:image/svg+xml,PD94bWwgdmVyc2lvbj0iMS4wIiBlbmNvZGluZz0iVVRGLTgiPz4KPHN2ZyB3aWR0aD0iNDhweCIgaGVpZ2h0PSI0OHB4IiB2aWV3Qm94PSIwIDAgNDggNDgiIHZlcnNpb249IjEuMSIgeG1sbnM9Imh0dHA6Ly93d3cudzMub3JnLzIwMDAvc3ZnIiB4bWxuczp4bGluaz0iaHR0cDovL3d3dy53My5vcmcvMTk5OS94bGluayI+CiAgICA8dGl0bGU+Y2xvdWQtLWxvZ2dpbmc8L3RpdGxlPgogICAgPGcgaWQ9IlYyLUljb25zIiBzdHJva2U9Im5vbmUiIHN0cm9rZS13aWR0aD0iMSIgZmlsbD0ibm9uZSIgZmlsbC1ydWxlPSJldmVub2RkIj4KICAgICAgICA8ZyBpZD0iSUJNLUNsb3VkLS8tT2JzZXJ2YWJpbGl0eSIgdHJhbnNmb3JtPSJ0cmFuc2xhdGUoLTMwOCwgLTQ5KSI+CiAgICAgICAgICAgIDxnIGlkPSJjbG91ZC0tbG9nZ2luZyIgdHJhbnNmb3JtPSJ0cmFuc2xhdGUoMzA4LCA0OSkiPgogICAgICAgICAgICAgICAgPHJlY3QgaWQ9IlJlY3RhbmdsZS1Db3B5LTM0IiBmaWxsPSIjMDA5RDlBIiB4PSIwIiB5PSIwIiB3aWR0aD0iNDgiIGhlaWdodD0iNDgiPjwvcmVjdD4KICAgICAgICAgICAgICAgIDxnIHRyYW5zZm9ybT0idHJhbnNsYXRlKDExLCAxMikiPgogICAgICAgICAgICAgICAgICAgIDxwYXRoIGQ9Ik0yMSwxMiBMMjEsMTYuNSBMMywxNi41IEwzLDQuNSBMMTEuMjUsNC41IEwxMS4yNSwzIEwzLDMgQzIuMTcxNTcyODgsMyAxLjUsMy42NzE1NzI4OCAxLjUsNC41IEwxLjUsMTYuNSBDMS41LDE3LjMyODQyNzEgMi4xNzE1NzI4OCwxOCAzLDE4IEw5LDE4IEw5LDIxIEw2LDIxIEw2LDIyLjUgTDE4LDIyLjUgTDE4LDIxIEwxNSwyMSBMMTUsMTggTDIxLDE4IEMyMS44Mjg0MjcxLDE4IDIyLjUsMTcuMzI4NDI3MSAyMi41LDE2LjUgTDIyLjUsMTIgTDIxLDEyIFogTTEzLjUsMjEgTDEwLjUsMjEgTDEwLjUsMTggTDEzLjUsMTggTDEzLjUsMjEgWiIgaWQ9IlNoYXBlIiBmaWxsPSIjRkZGRkZGIiBmaWxsLXJ1bGU9Im5vbnplcm8iPjwvcGF0aD4KICAgICAgICAgICAgICAgICAgICA8cmVjdCBpZD0iUmVjdGFuZ2xlIiBmaWxsPSIjRkZGRkZGIiBmaWxsLXJ1bGU9Im5vbnplcm8iIHg9IjEzLjUiIHk9IjMiIHdpZHRoPSI5IiBoZWlnaHQ9IjEuNSI+PC9yZWN0PgogICAgICAgICAgICAgICAgICAgIDxyZWN0IGlkPSJSZWN0YW5nbGUiIGZpbGw9IiNGRkZGRkYiIGZpbGwtcnVsZT0ibm9uemVybyIgeD0iMTMuNSIgeT0iNiIgd2lkdGg9IjkiIGhlaWdodD0iMS41Ij48L3JlY3Q+CiAgICAgICAgICAgICAgICAgICAgPHJlY3QgaWQ9IlJlY3RhbmdsZSIgZmlsbD0iI0ZGRkZGRiIgZmlsbC1ydWxlPSJub256ZXJvIiB4PSIxMy41IiB5PSI5IiB3aWR0aD0iNC41IiBoZWlnaHQ9IjEuNSI+PC9yZWN0PgogICAgICAgICAgICAgICAgICAgIDxyZWN0IGlkPSJfVHJhbnNwYXJlbnRfUmVjdGFuZ2xlXyIgeD0iMCIgeT0iMCIgd2lkdGg9IjI0IiBoZWlnaHQ9IjI0Ij48L3JlY3Q+CiAgICAgICAgICAgICAgICA8L2c+CiAgICAgICAgICAgIDwvZz4KICAgICAgICA8L2c+CiAgICA8L2c+Cjwvc3ZnPg==;fontFamily=IBM Plex Sans;labelPosition=center;verticalLabelPosition=bottom;align=center;verticalAlign=top;fontSize=14;spacingTop=-7;" vertex="1" parent="LZxzUFQRepn7Im_rXGNJ-129">
          <mxGeometry x="100" y="480" width="48" height="48" as="geometry" />
        </mxCell>
        <mxCell id="LZxzUFQRepn7Im_rXGNJ-155" style="edgeStyle=orthogonalEdgeStyle;rounded=0;orthogonalLoop=1;jettySize=auto;html=1;entryX=1;entryY=0.5;entryDx=0;entryDy=0;fillColor=#e1d5e7;strokeColor=#9673a6;dashed=1;dashPattern=1 1;strokeWidth=2;" edge="1" parent="LZxzUFQRepn7Im_rXGNJ-129" source="LZxzUFQRepn7Im_rXGNJ-150" target="LZxzUFQRepn7Im_rXGNJ-151">
          <mxGeometry relative="1" as="geometry">
            <Array as="points">
              <mxPoint x="420" y="504" />
            </Array>
          </mxGeometry>
        </mxCell>
        <mxCell id="LZxzUFQRepn7Im_rXGNJ-41" value="Transit&#xa;Gateway" style="shape=image;verticalLabelPosition=bottom;verticalAlign=top;imageAspect=0;aspect=fixed;image=data:image/svg+xml,PHN2ZyB4bWxuczp4bGluaz0iaHR0cDovL3d3dy53My5vcmcvMTk5OS94bGluayIgeG1sbnM9Imh0dHA6Ly93d3cudzMub3JnLzIwMDAvc3ZnIiB2ZXJzaW9uPSIxLjEiIHZpZXdCb3g9IjAgMCA0OCA0OCIgaGVpZ2h0PSI0OHB4IiB3aWR0aD0iNDhweCI+JiN4YTsgICAgPHRpdGxlPnRyYW5zaXQtZ2F0ZXdheTwvdGl0bGU+JiN4YTsgICAgPGcgZmlsbC1ydWxlPSJldmVub2RkIiBmaWxsPSJub25lIiBzdHJva2Utd2lkdGg9IjEiIHN0cm9rZT0ibm9uZSIgaWQ9IlYyLUljb25zIj4mI3hhOyAgICAgICAgPGcgdHJhbnNmb3JtPSJ0cmFuc2xhdGUoLTExNjIsIC04MSkiIGlkPSJJQk0vQ2xvdWQvTmV0d29yayI+JiN4YTsgICAgICAgICAgICA8ZyB0cmFuc2Zvcm09InRyYW5zbGF0ZSgxMTYyLCA4MSkiIGlkPSJ0cmFuc2l0LWdhdGV3YXkiPiYjeGE7ICAgICAgICAgICAgICAgIDxyZWN0IGhlaWdodD0iNDgiIHdpZHRoPSI0OCIgeT0iMCIgeD0iMCIgZmlsbD0iIzExOTJFOCIgaWQ9IlJlY3RhbmdsZS1Db3B5Ii8+JiN4YTsgICAgICAgICAgICAgICAgPGcgdHJhbnNmb3JtPSJ0cmFuc2xhdGUoMTIsIDEyKSI+JiN4YTsgICAgICAgICAgICAgICAgICAgIDxwYXRoIGZpbGwtcnVsZT0ibm9uemVybyIgZmlsbD0iI0ZGRkZGRiIgaWQ9IlBhdGgiIGQ9Ik05LjM3NSw1LjYyNSBMOC4zMjUsNC41NzUgTDEwLjk1LDEuOTUgQzExLjU1LDEuMzUgMTIuNTI1LDEuMzUgMTMuMDUsMS45NSBMMTUuNjc1LDQuNTc1IEwxNC42MjUsNS42MjUgTDEyLDMgTDkuMzc1LDUuNjI1IFoiLz4mI3hhOyAgICAgICAgICAgICAgICAgICAgPHBhdGggZmlsbC1ydWxlPSJub256ZXJvIiBmaWxsPSIjRkZGRkZGIiBpZD0iUGF0aCIgZD0iTTE0LjYyNSwxOC4zNzUgTDE1LjY3NSwxOS40MjUgTDEzLjA1LDIyLjA1IEMxMi40NSwyMi42NSAxMS40NzUsMjIuNjUgMTAuOTUsMjIuMDUgTDguMzI1LDE5LjQyNSBMOS4zNzUsMTguMzc1IEwxMiwyMSBMMTQuNjI1LDE4LjM3NSBaIi8+JiN4YTsgICAgICAgICAgICAgICAgICAgIDxwYXRoIGZpbGwtcnVsZT0ibm9uemVybyIgZmlsbD0iI0ZGRkZGRiIgaWQ9IlBhdGgiIGQ9Ik0xOC4zNzUsOS4zNzUgTDE5LjQyNSw4LjMyNSBMMjIuMDUsMTAuOTUgQzIyLjY1LDExLjU1IDIyLjY1LDEyLjUyNSAyMi4wNSwxMy4wNSBMMTkuNDI1LDE1LjY3NSBMMTguMzc1LDE0LjYyNSBMMjEsMTIgTDE4LjM3NSw5LjM3NSBaIi8+JiN4YTsgICAgICAgICAgICAgICAgICAgIDxwYXRoIGZpbGwtcnVsZT0ibm9uemVybyIgZmlsbD0iI0ZGRkZGRiIgaWQ9IlBhdGgiIGQ9Ik01LjYyNSwxNC42MjUgTDQuNTc1LDE1LjY3NSBMMS45NSwxMy4wNSBDMS4zNSwxMi40NSAxLjM1LDExLjQ3NSAxLjk1LDEwLjk1IEw0LjU3NSw4LjMyNSBMNS42MjUsOS4zNzUgTDMsMTIgTDUuNjI1LDE0LjYyNSBaIi8+JiN4YTsgICAgICAgICAgICAgICAgICAgIDxwYXRoIGZpbGwtcnVsZT0ibm9uemVybyIgZmlsbD0iI0ZGRkZGRiIgaWQ9IlNoYXBlIiBkPSJNMTkuNSwxOCBDMTkuMzUsMTggMTkuMjc1LDE4IDE5LjEyNSwxOC4wNzUgTDE0LjU1LDEzLjUgQzE1LjE1LDEyLjYgMTUuMTUsMTEuNCAxNC41NSwxMC41IEwxOS4xMjUsNS45MjUgQzE5LjI3NSw2IDE5LjM1LDYgMTkuNSw2IEMyMC4zMjUsNiAyMSw1LjMyNSAyMSw0LjUgQzIxLDMuNjc1IDIwLjMyNSwzIDE5LjUsMyBDMTguNjc1LDMgMTgsMy42NzUgMTgsNC41IEMxOCw0LjY1IDE4LDQuNzI1IDE4LjA3NSw0Ljg3NSBMMTMuNSw5LjQ1IEMxMi42LDguODUgMTEuNCw4Ljg1IDEwLjUsOS40NSBMNS45MjUsNC44NzUgQzYsNC43MjUgNiw0LjY1IDYsNC41IEM2LDMuNjc1IDUuMzI1LDMgNC41LDMgQzMuNjc1LDMgMywzLjY3NSAzLDQuNSBDMyw1LjMyNSAzLjY3NSw2IDQuNSw2IEM0LjY1LDYgNC43MjUsNiA0Ljg3NSw1LjkyNSBMOS40NSwxMC41IEM4Ljg1LDExLjQgOC44NSwxMi42IDkuNDUsMTMuNSBMNC44NzUsMTguMDc1IEM0LjcyNSwxOCA0LjY1LDE4IDQuNSwxOCBDMy42NzUsMTggMywxOC42NzUgMywxOS41IEMzLDIwLjMyNSAzLjY3NSwyMSA0LjUsMjEgQzUuMzI1LDIxIDYsMjAuMzI1IDYsMTkuNSBDNiwxOS4zNSA2LDE5LjI3NSA1LjkyNSwxOS4xMjUgTDEwLjUsMTQuNTUgQzExLjQsMTUuMTUgMTIuNiwxNS4xNSAxMy41LDE0LjU1IEwxOC4wNzUsMTkuMTI1IEMxOC4wNzUsMTkuMjc1IDE4LDE5LjM1IDE4LDE5LjUgQzE4LDIwLjMyNSAxOC42NzUsMjEgMTkuNSwyMSBDMjAuMzI1LDIxIDIxLDIwLjMyNSAyMSwxOS41IEMyMSwxOC42NzUgMjAuMzI1LDE4IDE5LjUsMTggWiBNMTIsMTMuNSBDMTEuMTc1LDEzLjUgMTAuNSwxMi44MjUgMTAuNSwxMiBDMTAuNSwxMS4xNzUgMTEuMTc1LDEwLjUgMTIsMTAuNSBDMTIuODI1LDEwLjUgMTMuNSwxMS4xNzUgMTMuNSwxMiBDMTMuNSwxMi44MjUgMTIuODI1LDEzLjUgMTIsMTMuNSBaIi8+JiN4YTsgICAgICAgICAgICAgICAgICAgIDxyZWN0IGhlaWdodD0iMjQiIHdpZHRoPSIyNCIgeT0iMCIgeD0iMCIgaWQ9Il9UcmFuc3BhcmVudF9SZWN0YW5nbGVfIi8+JiN4YTsgICAgICAgICAgICAgICAgPC9nPiYjeGE7ICAgICAgICAgICAgPC9nPiYjeGE7ICAgICAgICA8L2c+JiN4YTsgICAgPC9nPiYjeGE7PC9zdmc+;fontFamily=IBM Plex Sans;fontSize=14;spacingTop=-7;labelPosition=center;align=center;" vertex="1" parent="LZxzUFQRepn7Im_rXGNJ-27">
          <mxGeometry x="670" y="670" width="48" height="48" as="geometry" />
        </mxCell>
        <mxCell id="LZxzUFQRepn7Im_rXGNJ-157" style="edgeStyle=orthogonalEdgeStyle;rounded=0;orthogonalLoop=1;jettySize=auto;html=1;entryX=0.487;entryY=1;entryDx=0;entryDy=0;entryPerimeter=0;startArrow=none;startFill=0;endArrow=classic;endFill=1;dashed=1;fillColor=#dae8fc;strokeColor=#6c8ebf;strokeWidth=2;dashPattern=1 2;" edge="1" parent="LZxzUFQRepn7Im_rXGNJ-27" source="LZxzUFQRepn7Im_rXGNJ-41" target="LZxzUFQRepn7Im_rXGNJ-102">
          <mxGeometry relative="1" as="geometry" />
        </mxCell>
        <mxCell id="LZxzUFQRepn7Im_rXGNJ-158" style="edgeStyle=orthogonalEdgeStyle;rounded=0;orthogonalLoop=1;jettySize=auto;html=1;entryX=0.487;entryY=0;entryDx=0;entryDy=0;entryPerimeter=0;startArrow=none;startFill=0;endArrow=classic;endFill=1;dashed=1;fillColor=#dae8fc;strokeColor=#6c8ebf;strokeWidth=2;dashPattern=1 2;" edge="1" parent="LZxzUFQRepn7Im_rXGNJ-27" source="LZxzUFQRepn7Im_rXGNJ-41" target="LZxzUFQRepn7Im_rXGNJ-129">
          <mxGeometry relative="1" as="geometry" />
        </mxCell>
        <mxCell id="LZxzUFQRepn7Im_rXGNJ-165" value="" style="rounded=0;whiteSpace=wrap;html=1;fontFamily=IBM Plex Sans;fontSource=fonts%2FIBMPlexSans-Regular.woff;fontSize=14;spacingBottom=-28;spacingTop=0;labelPosition=-100;verticalLabelPosition=top;align=center;verticalAlign=bottom;spacingLeft=9;spacing=0;expand=0;recursiveResize=0;spacingRight=0;container=1;collapsible=0;strokeColor=#666666;fillColor=#f5f5f5;fontColor=#333333;" vertex="1" parent="LZxzUFQRepn7Im_rXGNJ-27">
          <mxGeometry x="140.00000000000003" y="290" width="390" height="90" as="geometry">
            <mxRectangle width="670" as="alternateBounds" />
          </mxGeometry>
        </mxCell>
        <mxCell id="LZxzUFQRepn7Im_rXGNJ-166" value="" style="rounded=0;whiteSpace=wrap;html=1;strokeColor=none;fillColor=#1192E8;" vertex="1" parent="LZxzUFQRepn7Im_rXGNJ-165">
          <mxGeometry width="4" height="48" as="geometry" />
        </mxCell>
        <mxCell id="LZxzUFQRepn7Im_rXGNJ-167" value="Tailscale" style="text;html=1;strokeColor=none;fillColor=none;align=left;verticalAlign=middle;whiteSpace=wrap;rounded=0;fontFamily=IBM Plex Sans;fontSource=fonts%2FIBMPlexSans-Regular.woff;fontSize=14;" vertex="1" parent="LZxzUFQRepn7Im_rXGNJ-165">
          <mxGeometry x="51" y="8" width="163" height="20" as="geometry" />
        </mxCell>
        <mxCell id="LZxzUFQRepn7Im_rXGNJ-168" value="" style="shape=image;image=data:image/svg+xml,PD94bWwgdmVyc2lvbj0iMS4wIiBlbmNvZGluZz0iVVRGLTgiPz4KPHN2ZyB3aWR0aD0iMzNweCIgaGVpZ2h0PSIyOHB4IiB2aWV3Qm94PSIwIDAgMzMgMjgiIHZlcnNpb249IjEuMSIgeG1sbnM9Imh0dHA6Ly93d3cudzMub3JnLzIwMDAvc3ZnIiB4bWxuczp4bGluaz0iaHR0cDovL3d3dy53My5vcmcvMTk5OS94bGluayI+CiAgICA8IS0tIEdlbmVyYXRvcjogU2tldGNoIDUzICg3MjUyMCkgLSBodHRwczovL3NrZXRjaGFwcC5jb20gLS0+CiAgICA8dGl0bGU+T3ZlcmxheSBOZXR3b3JrIEJsYWNrPC90aXRsZT4KICAgIDxkZXNjPkNyZWF0ZWQgd2l0aCBTa2V0Y2guPC9kZXNjPgogICAgPGRlZnM+CiAgICAgICAgPHBvbHlnb24gaWQ9InBhdGgtMSIgcG9pbnRzPSIwIDAuOTk4MzA4OTY4IDMyLjAwMjIyMjQgMC45OTgzMDg5NjggMzIuMDAyMjIyNCAyMy45OTk5IDAgMjMuOTk5OSI+PC9wb2x5Z29uPgogICAgPC9kZWZzPgogICAgPGcgaWQ9IlBhZ2UtMSIgc3Ryb2tlPSJub25lIiBzdHJva2Utd2lkdGg9IjEiIGZpbGw9Im5vbmUiIGZpbGwtcnVsZT0iZXZlbm9kZCI+CiAgICAgICAgPGcgaWQ9Ik92ZXJsYXktTmV0d29yay1CbGFjayIgdHJhbnNmb3JtPSJ0cmFuc2xhdGUoMC4xNjIwMzcsIC0wLjUwMDAwMCkiPgogICAgICAgICAgICA8ZyBpZD0iVmlydHVhbC1TZXJ2ZXItQmxhY2stQ29weSI+CiAgICAgICAgICAgICAgICA8ZyBpZD0iR3JvdXAtNSIgdHJhbnNmb3JtPSJ0cmFuc2xhdGUoMC4wMDAwMDAsIDAuMDAxNTAwKSI+CiAgICAgICAgICAgICAgICAgICAgPG1hc2sgaWQ9Im1hc2stMiIgZmlsbD0id2hpdGUiPgogICAgICAgICAgICAgICAgICAgICAgICA8dXNlIHhsaW5rOmhyZWY9IiNwYXRoLTEiPjwvdXNlPgogICAgICAgICAgICAgICAgICAgIDwvbWFzaz4KICAgICAgICAgICAgICAgICAgICA8ZyBpZD0iQ2xpcC00Ij48L2c+CiAgICAgICAgICAgICAgICAgICAgPHBhdGggZD0iTTI1LjkxMTcsOS4xMjk5IEMyNS44NjI3LDkuMTIwOSAyNS44MjQ3LDkuMDgyOSAyNS44MTQ3LDkuMDM0OSBDMjUuMDEzNyw1LjA1MDkgMjEuODgyNywxLjk0NjkgMTcuODkxNywxLjE4MTkgQzEyLjQ3NDcsMC4xMzQ5IDcuMjI5NywzLjY3MTkgNi4xNzU3LDkuMDkzOSBDNi4xNjY3LDkuMTAyOSA2LjE2MDcsOS4xMDk5IDYuMTUwNyw5LjExODkgQzAuMDU2NywxMC4yMzU5IC0yLjkzNDMsMTguNDA2OSAzLjk3MjcsMjMuNjE0OSBDNC4zMTI3LDIzLjg3MjkgNC43Mzg3LDIzLjk5OTkgNS4xNjQ3LDIzLjk5OTkgTDguMDAxNywyMy45OTk5IEw4LjAwMTcsMjEuOTk5OSBMNy40OTY3LDIxLjk5OTkgQzQuNDUzNywyMS45OTA5IDEuOTkzNywxOS41MTY5IDIuMDAxNywxNi40NzM5IEMyLjAwMjcsMTYuMjE0OSAyLjAyMDcsMTUuOTU1OSAyLjA1NzcsMTUuNjk5OSBDMi40NzE3LDEzLjI5NzkgNC4zNjY3LDExLjQyNDkgNi43NzE3LDExLjAzODkgTDcuNzg4NywxMC44NTU5IEM3Ljg0MTcsMTAuODQ1OSA3Ljg4MjcsMTAuODA0OSA3Ljg5MjcsMTAuNzUxOSBMOC4wNzM3LDkuODE2OSBDOC42ODQ3LDYuMzM4OSAxMS40MzM3LDMuNjMxOSAxNC45MTk3LDMuMDczOSBDMTUuODY4NywyLjk0MzkgMTYuODMzNywyLjk4NTkgMTcuNzY2NywzLjE5ODkgQzIwLjkzMjcsMy45Njk5IDIzLjM0MzcsNi41MzY5IDIzLjkxNDcsOS43NDM5IEwyNC4xMDg3LDEwLjc1MTkgQzI0LjExODcsMTAuODA0OSAyNC4xNjA3LDEwLjg0NTkgMjQuMjEzNywxMC44NTU5IEwyNS4yNzA3LDExLjA0NjkgQzI2LjQzNzcsMTEuMjMxOSAyNy41MTk3LDExLjc2NzkgMjguMzcxNywxMi41ODU5IEMzMS4yMTA3LDE1LjQwMDkgMzAuMzQwNywyMC41NDI5IDI1LjczNzcsMjEuOTMzOSBDMjUuNTg2NywyMS45Nzk5IDI1LjQyNTcsMjEuOTk5OSAyNS4yNjc3LDIxLjk5OTkgTDI0LjAwMTcsMjEuOTk5OSBMMjQuMDAxNywyMy45OTk5IEwyNy4xNTg3LDIzLjk5OTkgQzI3LjYzMjcsMjMuOTk5OSAyOC4xMDA3LDIzLjgzOTkgMjguNDU1NywyMy41MjU5IEMzNC44NzA3LDE3LjgzOTkgMzEuNzA1NywxMC4yMzg5IDI1LjkxMTcsOS4xMjk5IiBpZD0iRmlsbC0zIiBmaWxsPSIjMDAwMDAwIiBtYXNrPSJ1cmwoI21hc2stMikiPjwvcGF0aD4KICAgICAgICAgICAgICAgIDwvZz4KICAgICAgICAgICAgPC9nPgogICAgICAgICAgICA8cG9seWdvbiBpZD0iRmlsbC0yIiBmaWxsPSIjMDAwMDAwIiBwb2ludHM9IjguNzI1NjA3ODIgMjIuNzM2MTE0MyAxMy43MjU2MDc4IDI3LjczNjExNDMgMTUuMTM1NjA3OCAyNi4zMjYxMTQzIDEyLjU1NTYwNzggMjMuNzM2MTE0MyAyMi43MjU2MDc4IDIzLjczNjExNDMgMjIuNzI1NjA3OCAyMS43MzYxMTQzIDEyLjU1NTYwNzggMjEuNzM2MTE0MyAxNS4xMzU2MDc4IDE5LjE0NjExNDMgMTMuNzI1NjA3OCAxNy43MzcxMTQzIj48L3BvbHlnb24+CiAgICAgICAgICAgIDxwb2x5Z29uIGlkPSJGaWxsLTMiIGZpbGw9IiMwMDAwMDAiIHBvaW50cz0iMTguNTAwNSA3LjczNzExNDMxIDE3LjA5MDUgOS4xNDcxMTQzMSAxOS42Njk1IDExLjczNzExNDMgOS41MDA1IDExLjczNzExNDMgOS41MDA1IDEzLjczNzExNDMgMTkuNjY5NSAxMy43MzcxMTQzIDE3LjA5MDUgMTYuMzI3MTE0MyAxOC41MDA1IDE3LjczNzExNDMgMjMuNDk5NSAxMi43MzYxMTQzIj48L3BvbHlnb24+CiAgICAgICAgPC9nPgogICAgPC9nPgo8L3N2Zz4=;" vertex="1" parent="LZxzUFQRepn7Im_rXGNJ-165">
          <mxGeometry x="20" y="6" width="24" height="24" as="geometry" />
        </mxCell>
        <mxCell id="LZxzUFQRepn7Im_rXGNJ-171" value="tailscale up \&lt;div&gt;&amp;nbsp; &amp;nbsp;--advertise-routes=10.240.0.0/17,10.249.64.0/24,10.251.0.0/24&lt;/div&gt;" style="text;html=1;align=left;verticalAlign=middle;resizable=0;points=[];autosize=1;strokeColor=none;fillColor=none;" vertex="1" parent="LZxzUFQRepn7Im_rXGNJ-165">
          <mxGeometry x="20" y="30" width="370" height="40" as="geometry" />
        </mxCell>
        <mxCell id="LZxzUFQRepn7Im_rXGNJ-170" style="rounded=0;orthogonalLoop=1;jettySize=auto;html=1;entryX=0.5;entryY=1;entryDx=0;entryDy=0;exitX=0.5;exitY=0;exitDx=0;exitDy=0;fillColor=#f8cecc;strokeColor=#b85450;strokeWidth=1;" edge="1" parent="LZxzUFQRepn7Im_rXGNJ-27" source="LZxzUFQRepn7Im_rXGNJ-47" target="LZxzUFQRepn7Im_rXGNJ-165">
          <mxGeometry relative="1" as="geometry" />
        </mxCell>
        <mxCell id="LZxzUFQRepn7Im_rXGNJ-156" style="edgeStyle=orthogonalEdgeStyle;rounded=0;orthogonalLoop=1;jettySize=auto;html=1;entryX=0;entryY=0.5;entryDx=0;entryDy=0;startArrow=none;startFill=0;endArrow=classic;endFill=1;dashed=1;dashPattern=1 2;fillColor=#dae8fc;strokeColor=#6c8ebf;strokeWidth=2;curved=1;exitX=0.5;exitY=1;exitDx=0;exitDy=0;" edge="1" parent="LZxzUFQRepn7Im_rXGNJ-27" source="LZxzUFQRepn7Im_rXGNJ-47" target="LZxzUFQRepn7Im_rXGNJ-41">
          <mxGeometry relative="1" as="geometry">
            <Array as="points">
              <mxPoint x="263" y="592" />
              <mxPoint x="270" y="592" />
              <mxPoint x="270" y="694" />
            </Array>
          </mxGeometry>
        </mxCell>
        <mxCell id="LZxzUFQRepn7Im_rXGNJ-160" style="edgeStyle=orthogonalEdgeStyle;rounded=0;orthogonalLoop=1;jettySize=auto;html=1;entryX=0;entryY=0.5;entryDx=0;entryDy=0;fillColor=#dae8fc;strokeColor=#6c8ebf;" edge="1" parent="1" source="LZxzUFQRepn7Im_rXGNJ-159" target="LZxzUFQRepn7Im_rXGNJ-47">
          <mxGeometry relative="1" as="geometry">
            <Array as="points">
              <mxPoint x="580" y="1924" />
              <mxPoint x="580" y="1842" />
            </Array>
          </mxGeometry>
        </mxCell>
        <mxCell id="LZxzUFQRepn7Im_rXGNJ-159" value="tailscale&#xa;devices" style="shape=image;verticalLabelPosition=bottom;verticalAlign=top;imageAspect=0;aspect=fixed;image=data:image/svg+xml,PHN2ZyB4bWxuczp4bGluaz0iaHR0cDovL3d3dy53My5vcmcvMTk5OS94bGluayIgeG1sbnM9Imh0dHA6Ly93d3cudzMub3JnLzIwMDAvc3ZnIiB2ZXJzaW9uPSIxLjEiIHZpZXdCb3g9IjAgMCA0OCA0OCIgaGVpZ2h0PSI0OHB4IiB3aWR0aD0iNDhweCI+JiN4YTsgICAgPHRpdGxlPmRldmljZXM8L3RpdGxlPiYjeGE7ICAgIDxnIGZpbGwtcnVsZT0iZXZlbm9kZCIgZmlsbD0ibm9uZSIgc3Ryb2tlLXdpZHRoPSIxIiBzdHJva2U9Im5vbmUiIGlkPSJWMi1JY29ucyI+JiN4YTsgICAgICAgIDxnIHRyYW5zZm9ybT0idHJhbnNsYXRlKC01MCwgLTE4KSIgaWQ9IklCTS9DbG91ZC9BY3RvcnMiPiYjeGE7ICAgICAgICAgICAgPGcgdHJhbnNmb3JtPSJ0cmFuc2xhdGUoNTAsIDE4KSIgaWQ9ImRldmljZXMiPiYjeGE7ICAgICAgICAgICAgICAgIDxyZWN0IHJ4PSIyNCIgaGVpZ2h0PSI0OCIgd2lkdGg9IjQ4IiB5PSIwIiB4PSIwIiBmaWxsPSIjMDAwMDAwIiBpZD0iUmVjdGFuZ2xlIi8+JiN4YTsgICAgICAgICAgICAgICAgPHBhdGggZmlsbC1ydWxlPSJub256ZXJvIiBmaWxsPSIjRkZGRkZGIiBpZD0iU2hhcGUiIGQ9Ik0xOS41MDAzMTc1LDM0LjUgTDE1LjAwMDMxNzUsMzQuNSBDMTQuMTcxODkwNCwzNC41IDEzLjUwMDMxNzUsMzMuODI4NDI3MSAxMy41MDAzMTc1LDMzIEwxMy41MDAzMTc1LDI0IEMxMy41MDAzMTc1LDIzLjE3MTU3MjkgMTQuMTcxODkwNCwyMi41IDE1LjAwMDMxNzUsMjIuNSBMMTkuNTAwMzE3NSwyMi41IEMyMC4zMjg3NDQ3LDIyLjUgMjEuMDAwMzE3NSwyMy4xNzE1NzI5IDIxLjAwMDMxNzUsMjQgTDIxLjAwMDMxNzUsMzMgQzIxLjAwMDMxNzUsMzMuODI4NDI3MSAyMC4zMjg3NDQ3LDM0LjUgMTkuNTAwMzE3NSwzNC41IFogTTE1LjAwMDMxNzUsMjQgTDE1LjAwMDMxNzUsMzMgTDE5LjUwMDMxNzUsMzMgTDE5LjUwMDMxNzUsMjQgTDE1LjAwMDMxNzUsMjQgWiIvPiYjeGE7ICAgICAgICAgICAgICAgIDxwYXRoIGZpbGwtcnVsZT0ibm9uemVybyIgZmlsbD0iI0ZGRkZGRiIgaWQ9IlBhdGgiIGQ9Ik0zMy4wMDAzMTc1LDE1IEwxNi41MDAzMTc1LDE1IEMxNS42NzE4OTA0LDE1IDE1LjAwMDMxNzUsMTUuNjcxNTcyOSAxNS4wMDAzMTc1LDE2LjUgTDE1LjAwMDMxNzUsMjEgTDE2LjUwMDMxNzUsMjEgTDE2LjUwMDMxNzUsMTYuNSBMMzMuMDAwMzE3NSwxNi41IEwzMy4wMDAzMTc1LDI3IEwyMi41MDAzMTc1LDI3IEwyMi41MDAzMTc1LDI4LjUgTDI0LjAwMDMxNzUsMjguNSBMMjQuMDAwMzE3NSwzMS41IEwyMi41MDAzMTc1LDMxLjUgTDIyLjUwMDMxNzUsMzMgTDI5LjI1MDMxNzUsMzMgTDI5LjI1MDMxNzUsMzEuNSBMMjUuNTAwMzE3NSwzMS41IEwyNS41MDAzMTc1LDI4LjUgTDMzLjAwMDMxNzUsMjguNSBDMzMuODI4NzQ0NywyOC41IDM0LjUwMDMxNzUsMjcuODI4NDI3MSAzNC41MDAzMTc1LDI3IEwzNC41MDAzMTc1LDE2LjUgQzM0LjUwMDMxNzUsMTUuNjcxNTcyOSAzMy44Mjg3NDQ3LDE1IDMzLjAwMDMxNzUsMTUgWiIvPiYjeGE7ICAgICAgICAgICAgICAgIDxyZWN0IGhlaWdodD0iMjQiIHdpZHRoPSIyNCIgeT0iMTIiIHg9IjEyLjAwMDMxNzUiIGlkPSJfVHJhbnNwYXJlbnRfUmVjdGFuZ2xlXyIvPiYjeGE7ICAgICAgICAgICAgPC9nPiYjeGE7ICAgICAgICA8L2c+JiN4YTsgICAgPC9nPiYjeGE7PC9zdmc+;fontFamily=IBM Plex Sans;fontSize=14;spacingTop=-7;labelPosition=center;align=center;" vertex="1" parent="1">
          <mxGeometry x="440" y="1900" width="48" height="48" as="geometry" />
        </mxCell>
      </root>
    </mxGraphModel>
  </diagram>
</mxfile>
